<svg preserveAspectRatio="none" width="100%" height="100%" overflow="visible" style="display: block;" viewBox="0 0 20 19" fill="none" xmlns="http://www.w3.org/2000/svg">
<path id="ic_star" d="M19.9653 7.18184C19.8986 6.9782 19.7254 6.83566 19.5188 6.8085L13.2814 5.92603L10.4759 0.305454C10.3826 0.115386 10.1894 0 9.97612 0C9.76288 0 9.5763 0.115393 9.483 0.312249L6.7108 5.9464L0.473418 6.8696C0.266838 6.90354 0.0935883 7.04608 0.0269495 7.24293C-0.0396893 7.44658 0.0202661 7.66381 0.173535 7.80636L4.69834 12.1711L3.6521 18.3551C3.61212 18.5656 3.69876 18.7692 3.87202 18.8914C3.96532 18.9593 4.0786 19 4.19855 19C4.29184 19 4.37178 18.9796 4.45841 18.9321L10.0294 15.9929L15.6138 18.8982C15.6937 18.9389 15.7804 18.9593 15.867 18.9593C16.1736 18.9593 16.4201 18.7081 16.4201 18.4094C16.4201 18.3619 16.4201 18.3212 16.4068 18.2805L15.3272 12.1304L19.8253 7.73848C19.9853 7.58914 20.0386 7.37192 19.9719 7.16828L19.9653 7.18184Z" fill="var(--fill-0, white)"/>
</svg>
