<svg width="136" height="136" viewBox="0 0 136 136" fill="none" xmlns="http://www.w3.org/2000/svg">
  <circle cx="68" cy="68" r="68" fill="#FFF6E8"/>
  <g transform="translate(30.6, 40.8)">
    <svg width="68" height="54" viewBox="0 0 68 54" fill="none">
      <path d="M22.2768 10.2C25.1736 10.2 25.4184 11.3832 25.4184 13.3008V17.7888C25.3776 23.052 25.296 27.4584 23.2152 30.2328C22.1136 31.7016 20.2776 31.62 19.0536 31.0896C17.748 30.5184 17.0136 29.376 17.544 27.744C18.6864 23.9904 18.6456 21.7464 18.6456 18.156V15.8304H3.7128C0.6528 15.8304 0 14.5656 0 12.9744C0 11.628 0.6528 10.2 3.7128 10.2H22.2768Z" fill="#73DB23"/>
      <path d="M44.1843 20.4C41.0507 20.4 40.8 18.8764 40.8 17.2257V3.68216C40.8 0.846472 42.4295 0 44.1843 0C45.9392 0 47.5687 0.846472 47.5687 3.68216V14.517H64.8246C67.5822 14.517 68 16.2523 68 17.4373C68 18.8764 67.5822 20.4 64.8246 20.4H44.1843Z" fill="#FFA11E"/>
      <path d="M33.9048 53.4208C30.8448 53.4208 30.6 51.952 30.6 50.3608V37.5496C30.6 34.816 32.1912 34 33.9048 34H54.9984C57.6912 34 58.0992 35.4688 58.0992 36.856C58.0992 37.9984 57.6912 39.6712 54.9984 39.6712H37.2096V47.7496H55.4064C58.0992 47.7496 58.5072 49.4224 58.5072 50.5648C58.5072 51.952 58.0992 53.4208 55.4064 53.4208H33.9048Z" fill="#2FC5FF"/>
    </svg>
  </g>
</svg>
