<svg preserveAspectRatio="none" width="100%" height="100%" overflow="visible" style="display: block;" viewBox="0 0 68 68" fill="none" xmlns="http://www.w3.org/2000/svg">
<g id="ph:hand-palm-fill">
<path id="Vector" d="M57.375 27.625V40.375C57.375 46.5744 54.9123 52.52 50.5286 56.9036C46.145 61.2873 40.1994 63.75 34 63.75C27.8006 63.75 21.855 61.2873 17.4714 56.9036C13.0877 52.52 10.625 46.5744 10.625 40.375V17C10.625 15.8728 11.0728 14.7918 11.8698 13.9948C12.6668 13.1978 13.7478 12.75 14.875 12.75C16.0022 12.75 17.0832 13.1978 17.8802 13.9948C18.6772 14.7918 19.125 15.8728 19.125 17V31.875C19.125 32.4386 19.3489 32.9791 19.7474 33.3776C20.1459 33.7761 20.6864 34 21.25 34C21.8136 34 22.3541 33.7761 22.7526 33.3776C23.1511 32.9791 23.375 32.4386 23.375 31.875V8.5C23.375 7.37283 23.8228 6.29183 24.6198 5.4948C25.4168 4.69777 26.4978 4.25 27.625 4.25C28.7522 4.25 29.8332 4.69777 30.6302 5.4948C31.4272 6.29183 31.875 7.37283 31.875 8.5V29.75C31.875 30.3136 32.0989 30.8541 32.4974 31.2526C32.8959 31.6511 33.4364 31.875 34 31.875C34.5636 31.875 35.1041 31.6511 35.5026 31.2526C35.9011 30.8541 36.125 30.3136 36.125 29.75V12.75C36.125 11.6228 36.5728 10.5418 37.3698 9.7448C38.1668 8.94777 39.2478 8.5 40.375 8.5C41.5022 8.5 42.5832 8.94777 43.3802 9.7448C44.1772 10.5418 44.625 11.6228 44.625 12.75V34.178C41.6558 34.6841 38.9611 36.2234 37.0169 38.5239C35.0727 40.8244 34.0041 43.738 34 46.75C34 47.3136 34.2239 47.8541 34.6224 48.2526C35.0209 48.6511 35.5614 48.875 36.125 48.875C36.6886 48.875 37.2291 48.6511 37.6276 48.2526C38.0261 47.8541 38.25 47.3136 38.25 46.75C38.25 44.4957 39.1455 42.3337 40.7396 40.7396C42.3337 39.1455 44.4957 38.25 46.75 38.25C47.3136 38.25 47.8541 38.0261 48.2526 37.6276C48.6511 37.2291 48.875 36.6886 48.875 36.125V27.625C48.875 26.4978 49.3228 25.4168 50.1198 24.6198C50.9168 23.8228 51.9978 23.375 53.125 23.375C54.2522 23.375 55.3332 23.8228 56.1302 24.6198C56.9272 25.4168 57.375 26.4978 57.375 27.625Z" fill="var(--fill-0, #FFB886)"/>
</g>
</svg>
