<svg preserveAspectRatio="none" width="100%" height="100%" overflow="visible" style="display: block;" viewBox="0 0 132 132" fill="none" xmlns="http://www.w3.org/2000/svg">
<g id="img_kids">
<circle id="Ellipse 70" cx="66" cy="66" r="66" fill="var(--fill-0, #F8EFE4)"/>
<g id="fAce">
<path id="Union" d="M66.6731 43.3244C79.9006 43.3246 91.0879 52.033 94.7883 64.0148C99.9908 64.722 104 69.1682 104 74.551C104 80.4257 99.2254 85.1886 93.3352 85.1887C93.316 85.1887 93.2967 85.1868 93.2776 85.1867C88.5664 95.1242 78.4259 102 66.6731 102C54.9164 102 44.772 95.1204 40.0627 85.1779C39.9309 85.1827 39.7983 85.1887 39.6653 85.1887C33.7751 85.1886 29.0002 80.4256 29.0002 74.551C29.0004 69.0454 33.1943 64.5161 38.5696 63.9689C42.2842 52.0104 53.4621 43.3244 66.6731 43.3244Z" fill="var(--fill-0, #FFDCC3)"/>
<path id="Union_2" d="M66.6725 32C85.7028 32 99.3351 44.9509 99.693 66.1416C96.9337 66.0844 90.0443 65.1812 84.5622 62.0244C81.4621 60.2392 79.635 57.6013 78.6198 55.1914C76.0163 58.7861 71.4844 61.166 66.3288 61.166C61.0635 61.166 56.4491 58.6834 53.8747 54.96C53.2402 56.259 50.8134 59.368 45.5143 62.5391C40.0098 65.8331 35.0913 65.9701 33.32 65.627C33.9023 44.7414 47.7968 32 66.6725 32Z" fill="var(--fill-0, #644242)"/>
<ellipse id="Ellipse 45" cx="54.7365" cy="74.535" rx="3.6765" ry="3.66682" fill="var(--fill-0, #3C3C3C)"/>
<ellipse id="Ellipse 46" cx="78.2643" cy="74.535" rx="3.6765" ry="3.66682" fill="var(--fill-0, #3C3C3C)"/>
<path id="Subtract" d="M71.6198 78.2031C71.6196 81.0455 69.3087 83.3496 66.4587 83.3496C64.2041 83.3494 62.2873 81.9069 61.5848 79.897C61.2702 78.9968 62.0716 78.2021 63.0252 78.2021H71.6189C71.6194 78.2021 71.6198 78.2026 71.6198 78.2031Z" fill="var(--fill-0, #FF8E4C)"/>
</g>
</g>
</svg>
