<svg width="58" height="58" viewBox="0 0 58 58" fill="none" xmlns="http://www.w3.org/2000/svg">
<path d="M31.5049 5.3005C30.3193 3.50175 27.6807 3.50175 26.4951 5.3005L17.5654 18.8491C16.2507 20.8437 17.6813 23.5 20.0703 23.5H37.9297C40.3187 23.5 41.7493 20.8437 40.4346 18.8491L31.5049 5.3005Z" fill="#F9B3B3"/>
<path d="M23 32H9C7.34315 32 6 33.3431 6 35V49C6 50.6569 7.34315 52 9 52H23C24.6569 52 26 50.6569 26 49V35C26 33.3431 24.6569 32 23 32Z" fill="#5DA6EE"/>
<path d="M42 52C47.799 52 52.5 47.299 52.5 41.5C52.5 35.701 47.799 31 42 31C36.201 31 31.5 35.701 31.5 41.5C31.5 47.299 36.201 52 42 52Z" fill="#FFD99D"/>
</svg>
