<svg width="58" height="58" viewBox="0 0 58 58" fill="none" xmlns="http://www.w3.org/2000/svg">
<path d="M50.5 21.8424V47.3375C50.5 52.0512 46.6975 55.873 42.0078 55.873H15.9922C11.3025 55.873 7.5 52.0512 7.5 47.3375V10.4086C7.5 5.69495 11.3025 1.87305 15.9922 1.87305H31.5983L50.4841 21.8424H50.5Z" fill="#F2F2F2"/>
<path d="M50.5 21.873H35.4656C33.2837 21.873 31.5 20.1041 31.5 17.9049V1.87305" fill="#D9D9D9"/>
<path d="M30.215 43.2815C30.3777 44.1329 29.7919 44.7793 28.9458 44.9527C28.1484 45.1104 27.2535 44.8739 27.0094 43.991L26.4887 41.705H21.7372L21.2328 43.9752C21.0538 44.6689 20.4192 45 19.7683 45C19.6056 45 19.4591 44.9842 19.2964 44.9527C18.4503 44.7793 17.8645 44.1329 18.0272 43.2815L20.5006 32.3243C20.6633 31.5833 21.363 31 22.1766 31H25.8541C26.684 31 27.5138 31.3626 27.7416 32.3243L30.215 43.2815ZM25.789 38.6464L24.7476 34.0743H23.4783L22.4369 38.6464H25.789Z" fill="#968EFF"/>
<path d="M32.7589 44.9369C31.929 44.9369 31.327 44.2117 31.327 43.4077C31.327 42.6194 31.929 41.8784 32.7589 41.8784H33.9305V34.0586H32.7589C31.929 34.0586 31.327 33.3333 31.327 32.5293C31.327 31.741 31.929 31 32.7589 31H38.5518C39.3817 31 40 31.741 40 32.5293C40 33.3333 39.3817 34.0586 38.5518 34.0586H37.3476V41.8784H38.5518C39.3817 41.8784 40 42.6194 40 43.4077C40 44.2117 39.3817 44.9369 38.5518 44.9369H32.7589Z" fill="#968EFF"/>
</svg>
