<svg width="58" height="58" viewBox="0 0 58 58" fill="none" xmlns="http://www.w3.org/2000/svg">
<path d="M28.5265 12.9517C21.3314 12.9669 15.4961 18.8177 15.4961 26.0281C15.4961 28.9305 16.4431 31.6039 18.0471 33.7731C19.9872 36.2937 21.3009 39.242 21.8814 42.3736C22.1258 43.7179 22.2633 45.0774 22.2633 46.4523V47.766C22.2633 51.2337 25.0741 54.0598 28.5418 54.0751C32.0095 54.0598 34.8203 51.2337 34.8203 47.766V46.4523C34.8203 45.0774 34.9425 43.7179 35.2022 42.3736C35.7827 39.242 37.0965 36.2937 39.0365 33.7731C40.6405 31.6039 41.5877 28.9305 41.5877 26.0281C41.5877 18.8177 35.7522 12.9822 28.5571 12.9517H28.5265Z" fill="#FFF0B2"/>
<path d="M35.0117 43.5508C34.8834 44.5103 34.8203 45.4773 34.8203 46.4521V47.7666C34.8201 51.234 32.0094 54.0597 28.542 54.0752C25.0744 54.0599 22.2629 51.2341 22.2627 47.7666V46.4521C22.2627 45.4773 22.1928 44.5103 22.0654 43.5508H35.0117Z" fill="#D9D9D9"/>
<path d="M28.5264 6.79556V4" stroke="#FFCF86" stroke-width="3.05523" stroke-linecap="round" stroke-linejoin="round"/>
<path d="M11.936 16.374L9.52246 14.9839" stroke="#FFCF86" stroke-width="3.05523" stroke-linecap="round" stroke-linejoin="round"/>
<path d="M11.9513 35.5454L9.52246 36.9356" stroke="#FFCF86" stroke-width="3.05523" stroke-linecap="round" stroke-linejoin="round"/>
<path d="M45.1309 35.5146L47.5446 36.92" stroke="#FFCF86" stroke-width="3.05523" stroke-linecap="round" stroke-linejoin="round"/>
<path d="M45.1157 16.3588L47.5448 14.9688" stroke="#FFCF86" stroke-width="3.05523" stroke-linecap="round" stroke-linejoin="round"/>
</svg>
