<svg width="58" height="59" viewBox="0 0 58 59" fill="none" xmlns="http://www.w3.org/2000/svg">
<path fill-rule="evenodd" clip-rule="evenodd" d="M53.5004 32.3766C53.5004 45.9132 42.5368 56.8768 29.0002 56.8768C15.4636 56.8768 4.5 45.9132 4.5 32.3766C4.5 18.84 15.4636 7.87646 29.0002 7.87646C42.5368 7.87646 53.5004 18.84 53.5004 32.3766Z" fill="#FFEFDE"/>
<path d="M30.0656 16.3331C30.0656 16.3331 22.2156 12.3672 23.8053 4.45173C23.8053 4.45173 24.0942 3.2863 24.9045 2.4226C26.5456 0.6732 30.2227 2.0617 30.4262 4.45173" stroke="#1E1307" stroke-width="3.27762" stroke-linecap="round" stroke-linejoin="round"/>
<path d="M18.9868 38.6867C18.9868 38.6867 21.3631 43.9472 28.7706 43.9472C28.7706 43.9472 36.096 44.9797 39.0459 38.2441" stroke="#1E1307" stroke-width="3.27762" stroke-linecap="round" stroke-linejoin="round"/>
<path fill-rule="evenodd" clip-rule="evenodd" d="M22.0192 27.4447C22.0192 28.9688 20.79 30.198 19.2659 30.198C17.7418 30.198 16.5127 28.9688 16.5127 27.4447C16.5127 25.9206 17.7418 24.6914 19.2659 24.6914C20.79 24.6914 22.0192 25.9206 22.0192 27.4447Z" fill="#1E1307"/>
<path fill-rule="evenodd" clip-rule="evenodd" d="M41.357 27.4447C41.357 28.9688 40.1279 30.198 38.6038 30.198C37.0797 30.198 35.8506 28.9688 35.8506 27.4447C35.8506 25.9206 37.0797 24.6914 38.6038 24.6914C40.1279 24.6914 41.357 25.9206 41.357 27.4447Z" fill="#1E1307"/>
</svg>
