<svg preserveAspectRatio="none" width="100%" height="100%" overflow="visible" style="display: block;" viewBox="0 0 6 11" fill="none" xmlns="http://www.w3.org/2000/svg">
<path id="Vector" d="M3.91053 10.5051C3.91167 10.2001 3.84733 9.8984 3.72175 9.6198C3.59618 9.3412 3.41222 9.09203 3.18201 8.88874L2.77274 8.51295C2.02669 7.91289 1.47812 7.10744 1.19672 6.19891C0.915317 5.29038 0.913778 4.31977 1.1923 3.41037C1.47082 2.50097 2.01683 1.69385 2.76097 1.09149C3.50511 0.489127 4.41382 0.118718 5.37164 0.0273342C4.33046 -0.0829171 3.28109 0.142205 2.38015 0.669112C1.47921 1.19602 0.774984 1.99646 0.372627 2.95095C-0.0297288 3.90544 -0.108662 4.96279 0.147607 5.9652C0.403876 6.96761 0.98163 7.86133 1.79459 8.51295L2.20387 8.88874C2.4347 9.09154 2.61906 9.34062 2.74468 9.61933C2.87031 9.89805 2.93429 10.2 2.93236 10.5051C2.9651 10.5374 4.27477 10.5536 5.35935 10.5455C4.87602 10.5559 4.39248 10.5424 3.91053 10.5051V10.5051Z" fill="var(--fill-0, #FECC52)"/>
</svg>
