<svg preserveAspectRatio="none" width="100%" height="100%" overflow="visible" style="display: block;" viewBox="0 0 11 6" fill="none" xmlns="http://www.w3.org/2000/svg">
<path id="Vector" d="M0 0.80501C0.060222 2.91826 1.52015 4.71762 3.48193 5.41291C4.48015 5.76694 5.57692 5.83081 6.61347 5.62825C7.71389 5.41473 8.60445 4.78697 9.25594 3.88729C9.61728 3.38726 9.88006 2.82701 10.1064 2.25764C10.3472 1.65177 10.5918 1.01305 10.6009 0.352436C10.6064 -0.116566 9.87641 -0.118391 9.87094 0.352436C9.86364 0.865236 9.66838 1.35979 9.49136 1.83609C9.31434 2.31239 9.12637 2.72846 8.87636 3.14089C8.40006 3.93108 7.7212 4.56797 6.82151 4.82893C5.06048 5.33991 3.00198 4.81617 1.78294 3.43106C1.14604 2.70839 0.759164 1.77039 0.731791 0.806837C0.719016 0.337835 -0.0109477 0.33601 0.00182669 0.806837L0 0.80501Z" fill="var(--fill-0, #51556C)"/>
</svg>
