<svg preserveAspectRatio="none" width="100%" height="100%" overflow="visible" style="display: block;" viewBox="0 0 20 16" fill="none" xmlns="http://www.w3.org/2000/svg">
<g id="Group 443">
<path id="&#227;&#132;&#177;" d="M6.552 3C7.404 3 7.476 3.348 7.476 3.912V5.232C7.464 6.78 7.44 8.076 6.828 8.892C6.504 9.324 5.964 9.3 5.604 9.144C5.22 8.976 5.004 8.64 5.16 8.16C5.496 7.056 5.484 6.396 5.484 5.34V4.656H1.092C0.192 4.656 0 4.284 0 3.816C0 3.42 0.192 3 1.092 3H6.552Z" fill="var(--fill-0, #73DB23)"/>
<path id="&#227;&#132;&#180;" d="M12.9954 6C12.0737 6 12 5.55187 12 5.06639V1.08299C12 0.248962 12.4793 0 12.9954 0C13.5115 0 13.9908 0.248962 13.9908 1.08299V4.26971H19.0661C19.8771 4.26971 20 4.78008 20 5.12863C20 5.55187 19.8771 6 19.0661 6H12.9954Z" fill="var(--fill-0, #FFA11E)"/>
<path id="&#227;&#132;&#183;" d="M9.972 15.712C9.072 15.712 9 15.28 9 14.812V11.044C9 10.24 9.468 10 9.972 10H16.176C16.968 10 17.088 10.432 17.088 10.84C17.088 11.176 16.968 11.668 16.176 11.668H10.944V14.044H16.296C17.088 14.044 17.208 14.536 17.208 14.872C17.208 15.28 17.088 15.712 16.296 15.712H9.972Z" fill="var(--fill-0, #2FC5FF)"/>
</g>
</svg>
