<svg preserveAspectRatio="none" width="100%" height="100%" overflow="visible" style="display: block;" viewBox="0 0 2 2" fill="none" xmlns="http://www.w3.org/2000/svg">
<path id="Vector" d="M1.3595 1.577C1.32231 1.57719 1.28546 1.57029 1.25104 1.55669C1.21662 1.54309 1.18531 1.52307 1.15892 1.49776L0.0830818 0.467638C0.0567412 0.442201 0.0358467 0.411989 0.0215913 0.378754C0.00733582 0.345518 0 0.309909 0 0.273936C0 0.237962 0.00733582 0.202326 0.0215913 0.16909C0.0358467 0.135855 0.0567412 0.10567 0.0830818 0.0802326C0.109422 0.0547953 0.140679 0.0346174 0.175095 0.0208508C0.209511 0.00708424 0.246412 0 0.283663 0C0.320915 0 0.357788 0.00708424 0.392204 0.0208508C0.42662 0.0346174 0.457904 0.0547953 0.484245 0.0802326L1.55095 1.11036C1.6033 1.16216 1.63262 1.23168 1.63262 1.30406C1.63262 1.37644 1.6033 1.44596 1.55095 1.49776C1.49991 1.54676 1.43144 1.57509 1.3595 1.577V1.577Z" fill="var(--fill-0, #FFBD1B)"/>
</svg>
