<svg preserveAspectRatio="none" width="100%" height="100%" overflow="visible" style="display: block;" viewBox="0 0 10 11" fill="none" xmlns="http://www.w3.org/2000/svg">
<path id="Vector" d="M9.71616 4.79947C9.71668 3.99086 9.51013 3.19525 9.11571 2.48658C8.7213 1.77791 8.15182 1.17919 7.46021 0.746069C6.76859 0.312953 5.97727 0.0594951 5.15984 0.00926469C4.34241 -0.0409657 3.52539 0.113643 2.78471 0.458746C2.04404 0.803849 1.40378 1.32824 0.9234 1.98316C0.443024 2.63808 0.138141 3.40226 0.037107 4.2047C-0.0639275 5.00713 0.0421668 5.82177 0.345511 6.57288C0.648855 7.32398 1.1396 7.98718 1.77215 8.50083L2.18142 8.87662C2.41225 9.07941 2.59664 9.32847 2.72226 9.60718C2.84789 9.8859 2.91187 10.1879 2.90994 10.4929C2.96724 10.5495 6.72845 10.5495 6.78575 10.4929C6.78382 10.1879 6.8478 9.8859 6.97342 9.60718C7.09904 9.32847 7.28343 9.07941 7.51426 8.87662L7.92354 8.50083C8.48166 8.05374 8.93204 7.48967 9.24208 6.8495C9.55213 6.20932 9.71408 5.50906 9.71616 4.79947V4.79947Z" fill="var(--fill-0, #FFDE6D)"/>
</svg>
