<svg preserveAspectRatio="none" width="100%" height="100%" overflow="visible" style="display: block;" viewBox="0 0 2 2" fill="none" xmlns="http://www.w3.org/2000/svg">
<path id="Vector" d="M0.282244 1.577C0.245057 1.57719 0.208179 1.57029 0.17376 1.55669C0.13934 1.54309 0.108054 1.52307 0.0816628 1.49776C0.0293144 1.44596 0 1.37644 0 1.30406C0 1.23168 0.0293144 1.16216 0.0816628 1.11036L1.14837 0.0802326C1.20157 0.0288597 1.27372 0 1.34895 0C1.42418 0 1.49634 0.0288597 1.54953 0.0802326C1.60273 0.131606 1.63262 0.201283 1.63262 0.273936C1.63262 0.346588 1.60273 0.416266 1.54953 0.467638L0.482826 1.49776C0.456435 1.52307 0.425121 1.54309 0.390702 1.55669C0.356282 1.57029 0.319432 1.57719 0.282244 1.577V1.577Z" fill="var(--fill-0, #FFBD1B)"/>
</svg>
