<svg preserveAspectRatio="none" width="100%" height="100%" overflow="visible" style="display: block;" viewBox="0 0 1422 413" fill="none" xmlns="http://www.w3.org/2000/svg">
<g id="Logo">
<g id="Vector" filter="url(#filter0_f_475_2084)">
<path d="M180.256 48.943L129.374 26.7912C112.481 19.4368 92.9179 27.1129 85.5763 43.9765L26.0032 180.816C19.8114 195.038 28.4504 212.454 45.3434 219.809C62.2364 227.163 80.8705 221.62 87.0623 207.398L97.9862 182.306L118.339 191.166C157.722 208.312 203.418 190.382 220.533 151.067C237.649 111.753 219.639 66.0885 180.256 48.943ZM140.452 140.372L115.622 129.562C112.467 128.189 111.029 124.542 112.4 121.392L125.181 92.0333C126.552 88.8841 130.202 87.452 133.357 88.8254L158.187 99.6355C169.381 104.509 174.56 117.639 169.695 128.814C164.83 139.988 151.691 145.144 140.497 140.271L140.452 140.372Z" fill="var(--fill-0, #923D9B)"/>
</g>
<path id="Vector_2" d="M1237.23 13.32L1149.7 28.6083C1137.59 30.7232 1129.51 42.1728 1131.62 54.2418C1133.73 66.3107 1145.21 74.3459 1157.32 72.231L1179.2 68.4089L1191.9 141.113C1194.01 153.182 1205.48 161.217 1217.59 159.103C1229.7 156.988 1237.77 145.538 1235.66 133.469L1222.97 60.7647L1244.85 56.9426C1256.96 54.8278 1265.03 43.3782 1262.92 31.3092C1260.81 19.2403 1249.34 11.2051 1237.23 13.32Z" fill="var(--fill-0, #EB4C25)"/>
<g id="Vector_3" filter="url(#filter1_f_475_2084)">
<path d="M1208.19 338.161C1212.01 328.717 1207.37 317.922 1197.84 314.064L1154.79 296.65C1153.75 296.231 1153.26 295.075 1153.67 294.048L1157.69 284.125C1158.1 283.098 1159.26 282.613 1160.3 283.032L1203.35 300.446C1212.88 304.303 1223.72 299.769 1227.54 290.325C1231.36 280.88 1226.72 270.085 1217.19 266.228L1151.55 239.674C1140.08 235.034 1127.11 240.459 1122.51 251.819L1086.52 340.785C1081.93 352.146 1087.48 365.062 1098.95 369.701L1164.59 396.255C1174.12 400.113 1184.96 395.579 1188.78 386.134C1192.6 376.69 1187.97 365.895 1178.43 362.038L1135.38 344.624C1134.35 344.205 1133.85 343.048 1134.26 342.021L1138.28 332.098C1138.69 331.072 1139.86 330.586 1140.89 331.005L1183.94 348.419C1193.47 352.276 1204.31 347.742 1208.13 338.298L1208.19 338.161Z" fill="var(--fill-0, #FF9501)"/>
</g>
<path id="Vector_4" d="M272.156 279.624C239.361 287.43 219.12 320.245 226.91 352.976C234.701 385.707 267.555 405.885 300.349 398.08C333.144 390.274 353.385 357.459 345.595 324.728C337.805 291.997 304.95 271.819 272.156 279.624ZM307.169 336.048L304.202 338.005C298.332 341.906 294.427 348.237 293.581 355.224L293.166 358.748C292.924 360.782 290.238 361.421 289.044 359.73L287.085 356.77C283.183 350.914 276.844 347.02 269.846 346.183L266.316 345.771C264.279 345.531 263.641 342.851 265.337 341.656L268.303 339.699C274.173 335.798 278.078 329.467 278.924 322.48L279.339 318.956C279.581 316.922 282.267 316.283 283.462 317.975L285.42 320.934C289.322 326.791 295.661 330.684 302.659 331.522L306.189 331.933C308.226 332.173 308.864 334.854 307.169 336.048Z" fill="var(--fill-0, #00AFF2)"/>
<g id="Vector_5">
</g>
<g id="N">
<path id="Vector (Stroke)" d="M1398.71 223.623L1414.76 283.53C1417.03 291.987 1410.94 301.722 1401.2 304.333C1397.93 305.209 1395.64 305.123 1393.63 304.61C1391.47 304.059 1389.46 302.979 1386.64 301.435C1385.71 300.928 1378.85 296.738 1372.06 292.569L1351.22 279.757L1356.28 298.642C1358.73 307.782 1353.38 316.588 1343.81 319.152C1334.3 321.698 1325.08 316.303 1322.75 307.626L1306.98 248.761C1304.55 239.677 1310.37 230.685 1319.45 228.251C1325.67 226.584 1332.42 228.936 1337.7 231.828L1362.62 246.797L1370.24 251.504L1365.18 232.607C1362.75 223.523 1368.57 214.531 1377.65 212.097C1387.16 209.549 1396.39 214.945 1398.71 223.623Z" fill="var(--fill-0, #6EC62A)"/>
<path id="Polygon 2" d="M1391.2 187.241C1391.61 187.326 1391.74 187.837 1391.43 188.114L1367.68 209.357C1367.39 209.609 1366.95 209.475 1366.85 209.111L1359.41 181.349C1359.31 180.985 1359.63 180.645 1360 180.722L1391.2 187.241Z" fill="var(--fill-0, #6EC62A)"/>
<rect id="Rectangle 48" x="1361.18" y="187.968" width="5.01262" height="40.101" transform="rotate(-15 1361.18 187.968)" fill="var(--fill-0, #6EC62A)"/>
</g>
</g>
<defs>
<filter id="filter0_f_475_2084" x="0" y="0" width="251.003" height="247.059" filterUnits="userSpaceOnUse" color-interpolation-filters="sRGB">
<feFlood flood-opacity="0" result="BackgroundImageFix"/>
<feBlend mode="normal" in="SourceGraphic" in2="BackgroundImageFix" result="shape"/>
<feGaussianBlur stdDeviation="12" result="effect1_foregroundBlur_475_2084"/>
</filter>
<filter id="filter1_f_475_2084" x="1079.91" y="233.015" width="153.971" height="169.616" filterUnits="userSpaceOnUse" color-interpolation-filters="sRGB">
<feFlood flood-opacity="0" result="BackgroundImageFix"/>
<feBlend mode="normal" in="SourceGraphic" in2="BackgroundImageFix" result="shape"/>
<feGaussianBlur stdDeviation="2.5" result="effect1_foregroundBlur_475_2084"/>
</filter>
</defs>
</svg>
