<svg preserveAspectRatio="none" width="100%" height="100%" overflow="visible" style="display: block;" viewBox="0 0 273 109" fill="none" xmlns="http://www.w3.org/2000/svg">
<g id="&#236;&#157;&#180;&#235;&#159;&#176;&#235;&#182;&#132;&#235;&#147;&#164;&#236;&#151;&#144;&#234;&#178;&#140; &#234;&#182;&#140;&#237;&#149;&#180;&#235;&#147;&#156;&#235;&#166;&#189;&#235;&#139;&#136;&#235;&#139;&#164;.">
<path id="Vector" d="M268.52 107.056C267.52 107.056 266.669 106.722 265.965 106.056C265.261 105.352 264.909 104.482 264.909 103.444C264.909 102.407 265.261 101.556 265.965 100.889C266.669 100.185 267.52 99.8334 268.52 99.8334C269.52 99.8334 270.372 100.185 271.076 100.889C271.78 101.556 272.132 102.407 272.132 103.444C272.132 104.482 271.78 105.352 271.076 106.056C270.372 106.722 269.52 107.056 268.52 107.056Z" fill="var(--fill-0, #1E1307)"/>
<path id="Vector_2" d="M256.86 88.1667V108.667H251.86V66.0001H256.86V83.1112H262.471V88.1667H256.86ZM237.971 101.389C239.897 101.389 241.823 101.204 243.748 100.833C245.674 100.463 247.248 99.963 248.471 99.3334V104.111C247.286 104.741 245.693 105.241 243.693 105.611C241.73 105.982 239.73 106.167 237.693 106.167H221.86V67.5001H245.304V72.2778H226.915V101.389H237.971Z" fill="var(--fill-0, #1E1307)"/>
<path id="Vector_3" d="M208.977 108.667V66.0001H214.032V108.667H208.977ZM194.921 101.333C196.847 101.333 198.754 101.148 200.643 100.778C202.569 100.37 204.162 99.8519 205.421 99.2223V104.056C204.199 104.722 202.625 105.241 200.699 105.611C198.81 105.982 196.884 106.167 194.921 106.167H178.254V67.2223H183.421V101.333H194.921Z" fill="var(--fill-0, #1E1307)"/>
<path id="Vector_4" d="M170.038 89.8334H164.982V66.0001H170.038V89.8334ZM152.871 71.0556H133.705V67.0001H157.816V79.9445H138.816V84.8889H149.427C152.131 84.8889 154.575 84.7223 156.76 84.3889C158.945 84.0556 160.649 83.5926 161.871 83.0001V87.1112C160.649 87.7038 158.945 88.1667 156.76 88.5001C154.575 88.8334 152.075 89.0001 149.26 89.0001H133.816V76.0556H152.871V71.0556ZM170.038 91.6112V108.167H135.427V91.6112H140.371V95.6667H165.038V91.6112H170.038ZM165.038 99.7223H140.371V104H165.038V99.7223Z" fill="var(--fill-0, #1E1307)"/>
<path id="Vector_5" d="M95.7105 72.3889V87.8889H126.377V92.7778H90.6549V67.5001H125.933V72.3889H95.7105ZM87.9883 106.667V101.722H128.544V106.667H87.9883Z" fill="var(--fill-0, #1E1307)"/>
<path id="Vector_6" d="M64.7719 72.5001V77.2223H43.1053V72.5001H51.4386V65.8889H56.4386V72.5001H64.7719ZM83.1608 108.667H78.4941V88.0001H72.2719V107.944H67.6608V66.2223H72.2719V83.0556H78.4941V66.0001H83.1608V108.667ZM54.1608 80.4445C56.0127 80.4445 57.6423 80.963 59.0497 82.0001C60.4941 83.0001 61.6238 84.4815 62.4386 86.4445C63.2534 88.4075 63.6608 90.7778 63.6608 93.5556C63.6608 96.3334 63.2534 98.7038 62.4386 100.667C61.6238 102.63 60.4941 104.13 59.0497 105.167C57.6423 106.167 56.0127 106.667 54.1608 106.667C51.346 106.667 49.0682 105.537 47.3275 103.278C45.5867 100.982 44.7164 97.7408 44.7164 93.5556C44.7164 89.3704 45.5867 86.1482 47.3275 83.8889C49.0682 81.5926 51.346 80.4445 54.1608 80.4445ZM54.1608 102.056C55.6053 102.056 56.7719 101.315 57.6608 99.8334C58.5867 98.3149 59.0497 96.2223 59.0497 93.5556C59.0497 90.8889 58.5867 88.7964 57.6608 87.2778C56.7719 85.7593 55.6053 85.0001 54.1608 85.0001C52.7164 85.0001 51.5312 85.7593 50.6053 87.2778C49.7164 88.7964 49.2719 90.8889 49.2719 93.5556C49.2719 96.2223 49.7164 98.3149 50.6053 99.8334C51.5312 101.315 52.7164 102.056 54.1608 102.056Z" fill="var(--fill-0, #1E1307)"/>
<path id="Vector_7" d="M33.3333 66.0001H38.3333V99.2778H33.3333V95.8334H21.2222V91.5556H33.3333V66.0001ZM2.94444 71.1667V66.7778H25.7778V80.3334H20.7778V71.1667H2.94444ZM0 87.3334V82.8889H17C23.2222 82.8889 27.5556 82.3519 30 81.2778V85.6667C28.7778 86.2223 26.9815 86.6482 24.6111 86.9445C22.2407 87.2038 19.5741 87.3334 16.6111 87.3334H16V96.2778H11V87.3334H0ZM39.0556 108.167H3.44444V93.8334H8.44444V103.611H39.0556V108.167Z" fill="var(--fill-0, #1E1307)"/>
<path id="Vector_8" d="M259.137 42.6667H254.304V5.34058e-05H259.137V42.6667ZM248.915 0.222275V41.9445H244.137V22.0001H237.137C236.1 27.6297 234.137 32.0556 231.248 35.2778C228.36 38.463 224.915 40.0556 220.915 40.0556V35.1112C223.36 35.0371 225.489 34.1112 227.304 32.3334C229.156 30.5186 230.563 27.9815 231.526 24.7223C232.526 21.463 233.026 17.6667 233.026 13.3334V6.27783H220.915V1.50005H237.86V13.0556C237.86 14.426 237.804 15.7593 237.693 17.0556H244.137V0.222275H248.915Z" fill="var(--fill-0, #1E1307)"/>
<path id="Vector_9" d="M215.143 42.6667H210.365V5.34058e-05H215.143V42.6667ZM205.254 0.222275V41.9445H200.532V22.6667H195.421C195.273 28.8519 194.402 33.4075 192.81 36.3334C191.217 39.2593 188.921 40.7223 185.921 40.7223C182.81 40.7223 180.458 39.1112 178.865 35.8889C177.273 32.6667 176.477 27.6482 176.477 20.8334C176.477 14.0186 177.273 9.00005 178.865 5.77783C180.458 2.55561 182.81 0.944498 185.921 0.944498C188.81 0.944498 191.032 2.29635 192.588 5.00006C194.18 7.70376 195.106 11.9075 195.365 17.6112H200.532V0.222275H205.254ZM185.921 35.9445C187.551 35.9445 188.754 34.7223 189.532 32.2778C190.31 29.7964 190.699 25.9815 190.699 20.8334C190.699 15.6852 190.31 11.8889 189.532 9.4445C188.754 6.96302 187.551 5.72227 185.921 5.72227C184.328 5.72227 183.143 6.96302 182.365 9.4445C181.588 11.8889 181.199 15.6852 181.199 20.8334C181.199 25.9815 181.588 29.7964 182.365 32.2778C183.143 34.7223 184.328 35.9445 185.921 35.9445Z" fill="var(--fill-0, #1E1307)"/>
<path id="Vector_10" d="M139.871 4.4445V10.1667H170.149V14.1667H134.871V0.444498H169.705V4.4445H139.871ZM131.982 21.7223V17.7223H172.538V21.7223H131.982ZM139.649 35.2223V38.5556H170.482V42.1667H134.76V32.0556H164.927V28.7778H134.649V25.2223H169.816V35.2223H139.649Z" fill="var(--fill-0, #1E1307)"/>
<path id="Vector_11" d="M90.8772 18.4445V0.222275H95.8216V5.16672H120.766V0.222275H125.711V18.4445H90.8772ZM120.766 9.16672H95.8216V14.3334H120.766V9.16672ZM128.544 26.9445H110.766V33.4445H105.766V26.9445H87.9883V22.5001H128.544V26.9445ZM126.488 37.7223V42.1667H90.7661V30.6667H95.8772V37.7223H126.488Z" fill="var(--fill-0, #1E1307)"/>
<path id="Vector_12" d="M70.4941 13.8334V8.9445H77.2719V5.34058e-05H82.3275V31.8334H77.2719V13.8334H70.4941ZM62.9386 5.22227H45.5497V1.00005H67.883V15.5001H50.6053V21.7223H60.2164C62.883 21.7223 65.309 21.5741 67.4941 21.2778C69.6793 20.9445 71.4015 20.4815 72.6608 19.8889V24.1112C71.4386 24.7038 69.6978 25.1667 67.4386 25.5001C65.1793 25.8334 62.6608 26.0001 59.883 26.0001H45.6608V11.4445H62.9386V5.22227ZM83.1608 42.1667H47.6053V29.7778H52.7719V37.4445H83.1608V42.1667Z" fill="var(--fill-0, #1E1307)"/>
<path id="Vector_13" d="M33 42.6667V5.34058e-05H38.0556V42.6667H33ZM14.0556 0.944498C17.8333 0.944498 20.8148 2.61117 23 5.9445C25.2222 9.27783 26.3333 14.2408 26.3333 20.8334C26.3333 27.426 25.2222 32.3889 23 35.7223C20.8148 39.0556 17.8333 40.7223 14.0556 40.7223C10.2778 40.7223 7.27778 39.0556 5.05556 35.7223C2.83333 32.3889 1.72222 27.426 1.72222 20.8334C1.72222 14.2408 2.83333 9.27783 5.05556 5.9445C7.27778 2.61117 10.2778 0.944498 14.0556 0.944498ZM14.0556 5.77783C11.7963 5.77783 10 7.01857 8.66667 9.50005C7.33333 11.9445 6.66667 15.7223 6.66667 20.8334C6.66667 25.9445 7.33333 29.7408 8.66667 32.2223C10 34.6667 11.7963 35.8889 14.0556 35.8889C16.2407 35.8889 18 34.6482 19.3333 32.1667C20.6667 29.6852 21.3333 25.9075 21.3333 20.8334C21.3333 15.7593 20.6667 11.9815 19.3333 9.50005C18 7.01857 16.2407 5.77783 14.0556 5.77783Z" fill="var(--fill-0, #1E1307)"/>
</g>
</svg>
