<svg preserveAspectRatio="none" width="100%" height="100%" overflow="visible" style="display: block;" viewBox="0 0 13 13" fill="none" xmlns="http://www.w3.org/2000/svg">
<g id="Group 432">
<circle id="Ellipse 19" cx="4.49159" cy="1.63346" r="1.63346" fill="var(--fill-0, white)"/>
<path id="Subtract" d="M3.03306 4.75732C3.62803 3.57847 5.31511 3.58922 5.89439 4.77588L8.67954 10.4819C9.13408 11.4135 8.45528 12.5002 7.4188 12.5005H7.24985C7.04406 12.5005 6.841 12.4455 6.66294 12.3423L5.827 11.8579C4.99382 11.3748 3.96723 11.367 3.12681 11.8374L2.20884 12.3511C2.03451 12.4487 1.83734 12.5004 1.63755 12.5005H1.40415C0.359424 12.5003 -0.318462 11.3981 0.152198 10.4653L3.03306 4.75732ZM3.2479 7.3501C3.14549 7.3501 3.06253 7.43328 3.06235 7.53564V8.06494C3.06235 8.79793 3.65652 9.39209 4.3895 9.39209C5.12247 9.39207 5.71665 8.79791 5.71665 8.06494V7.53564C5.71648 7.4333 5.63348 7.35014 5.5311 7.3501H3.2479Z" fill="var(--fill-0, white)"/>
<circle id="Ellipse 14" cx="11.0885" cy="5.44354" r="1.41131" fill="var(--fill-0, white)"/>
<rect id="Rectangle 4" x="9.67722" y="7.25806" width="2.82262" height="5.24202" rx="1.41131" fill="var(--fill-0, white)"/>
</g>
</svg>
