<svg preserveAspectRatio="none" width="100%" height="100%" overflow="visible" style="display: block;" viewBox="0 0 82 86" fill="none" xmlns="http://www.w3.org/2000/svg">
<g id="Group 436">
<path id="Rectangle 4304" d="M82 66.3185V26.1353H0.16333V78.0795C0.16333 82.4097 3.67371 85.9201 8.00397 85.9201H61.9084L82 66.3185Z" fill="var(--fill-0, white)"/>
<path id="Rectangle 4305" d="M0 14.0477C0 9.7174 3.51037 6.20703 7.84064 6.20703H74.1594C78.4896 6.20703 82 9.71741 82 14.0477V26.1353H0V14.0477Z" fill="var(--fill-0, #FDAEB3)"/>
<rect id="Rectangle 4306" x="12.741" width="6.20717" height="12.4143" rx="3.10359" fill="var(--fill-0, #4B596A)"/>
<rect id="Rectangle 4307" x="62.7251" width="6.20717" height="12.4143" rx="3.10359" fill="var(--fill-0, #4B596A)"/>
<path id="Vector 20" d="M81.8367 66.1553L61.9084 85.7569L62.2869 70.6147C62.349 68.134 64.3778 66.1553 66.8592 66.1553H81.8367Z" fill="var(--fill-0, #F1F1F1)"/>
<g id="24">
<path id="Vector" d="M58.7408 61.4819C60.6692 61.4819 61.0227 62.4461 61.0227 63.4425C61.0227 64.5352 60.6049 65.4673 58.7408 65.4673H57.198V67.6528C57.198 68.6491 56.6838 70.0954 54.4019 70.0954C52.1199 70.0954 51.6057 68.6491 51.6057 67.6528V65.4673H41.9315C40.0674 65.4673 39.8424 63.4103 40.5495 62.189L49.3559 46.8261C50.1594 45.4762 51.5414 45.2834 52.7949 45.8619C54.3376 46.569 54.5626 48.0474 53.7591 49.3973L46.6561 61.4819H51.6057V56.5645C51.6057 55.1825 52.3449 53.929 54.4019 53.929C56.4267 53.929 57.198 55.1503 57.198 56.5645V61.4819H58.7408Z" fill="var(--fill-0, #FB5D6A)"/>
<path id="Vector_2" d="M36.4288 66.0779C38.068 66.0779 38.6786 67.0421 38.6786 68.1349C38.6786 68.9705 38.1965 70.0954 36.4288 70.0954H23.605C21.8694 70.0954 20.9695 68.8098 20.9695 67.4921C20.9695 67.01 21.1623 66.4315 21.548 65.8208C22.8015 64.1174 24.987 62.0926 27.0761 60.2285C30.1294 57.4966 32.8613 54.9896 32.8613 52.6756C32.8613 51.3257 32.6042 49.6223 30.0972 49.6223C28.3617 49.6223 26.7868 50.4579 26.7868 52.2899C26.7868 53.2541 25.9512 54.0897 24.2799 54.0897C22.93 54.0897 21.6444 53.4791 21.6444 51.7435C21.6444 47.9831 25.6619 45.5405 29.9365 45.5405C35.2396 45.5405 38.2929 48.2724 38.2929 52.4184C38.2929 56.1467 35.4646 58.9107 31.9935 62.0604C30.6115 63.3139 29.2295 64.4709 27.8153 66.0779H36.4288Z" fill="var(--fill-0, #FB5D6A)"/>
</g>
</g>
</svg>
