<svg preserveAspectRatio="none" width="100%" height="100%" overflow="visible" style="display: block;" viewBox="0 0 734 108" fill="none" xmlns="http://www.w3.org/2000/svg">
<g id="&#236;&#154;&#176;&#235;&#166;&#172; &#236;&#149;&#132;&#236;&#157;&#180;&#236;&#157;&#152; &#236;&#150;&#184;&#236;&#150;&#180;&#235;&#176;&#156;&#235;&#139;&#172;, &#234;&#178;&#128;&#236;&#166;&#157;&#235;&#144;&#156; &#236;&#160;&#132;&#235;&#172;&#184;&#234;&#176;&#128;&#236;&#153;&#128; &#236;&#160;&#149;&#237;&#153;&#149;&#237;&#149;&#152;&#234;&#178;&#140; &#234;&#178;&#128;&#236;&#130;&#172;&#237;&#149;&#152;&#236;&#132;&#184;&#236;&#154;&#148;">
<path id="Vector" d="M733.76 105H692.871V98.2223H701.204V88.2223C699.093 87.0371 697.464 85.5371 696.316 83.7223C695.167 81.9075 694.593 79.8704 694.593 77.6112C694.593 74.9815 695.371 72.6667 696.927 70.6667C698.482 68.6297 700.667 67.0556 703.482 65.9445C706.334 64.8334 709.612 64.2778 713.316 64.2778C717.019 64.2778 720.279 64.8334 723.093 65.9445C725.945 67.0556 728.149 68.6297 729.704 70.6667C731.26 72.6667 732.038 74.9815 732.038 77.6112C732.038 79.9075 731.464 81.963 730.316 83.7778C729.167 85.5556 727.519 87.0371 725.371 88.2223V98.2223H733.76V105ZM713.316 70.8889C709.945 70.8889 707.204 71.5186 705.093 72.7778C703.019 74.0001 701.982 75.6112 701.982 77.6112C701.982 79.6482 703.019 81.2964 705.093 82.5556C707.204 83.7778 709.945 84.3889 713.316 84.3889C716.686 84.3889 719.408 83.7778 721.482 82.5556C723.593 81.2964 724.649 79.6482 724.649 77.6112C724.649 75.6112 723.593 74.0001 721.482 72.7778C719.408 71.5186 716.686 70.8889 713.316 70.8889ZM718.371 98.2223V90.6112C716.927 90.8704 715.241 91.0001 713.316 91.0001C711.39 91.0001 709.704 90.8704 708.26 90.6112V98.2223H718.371Z" fill="var(--fill-0, #1E1307)"/>
<path id="Vector_2" d="M688.821 106.667H682.21V64.0001H688.821V106.667ZM678.321 64.1667V105.944H671.71V84.5556H666.655V77.5556H671.71V64.1667H678.321ZM663.266 65.1112C663.266 71.8889 662.951 77.6112 662.321 82.2778L671.71 101.111L665.932 104.056L660.21 92.3334C657.803 99.8889 654.062 103.944 648.988 104.5V97.0001C651.507 96.4445 653.395 93.3519 654.655 87.7223C655.951 82.0926 656.599 74.4815 656.599 64.8889L663.266 65.1112Z" fill="var(--fill-0, #1E1307)"/>
<path id="Vector_3" d="M632.105 69.5556V76.3334H605.772V69.5556H615.327V63.8334H622.494V69.5556H632.105ZM642.55 87.2223V106.667H635.55V64.0001H642.55V80.1112H647.605V87.2223H642.55ZM618.938 78.6112C621.235 78.6112 623.253 79.1852 624.994 80.3334C626.772 81.4445 628.142 83.0001 629.105 85.0001C630.068 87.0001 630.55 89.2593 630.55 91.7778C630.55 94.3334 630.068 96.6112 629.105 98.6112C628.142 100.611 626.772 102.185 624.994 103.333C623.253 104.445 621.235 105 618.938 105C616.605 105 614.55 104.445 612.772 103.333C611.031 102.185 609.679 100.611 608.716 98.6112C607.753 96.6112 607.272 94.3334 607.272 91.7778C607.272 89.2593 607.753 87.0001 608.716 85.0001C609.679 83.0001 611.031 81.4445 612.772 80.3334C614.55 79.1852 616.605 78.6112 618.938 78.6112ZM618.938 98.6667C620.42 98.6667 621.605 98.0371 622.494 96.7778C623.383 95.5186 623.827 93.8519 623.827 91.7778C623.827 89.7038 623.383 88.0556 622.494 86.8334C621.605 85.5741 620.42 84.9445 618.938 84.9445C617.42 84.9445 616.216 85.5741 615.327 86.8334C614.438 88.0556 613.994 89.7038 613.994 91.7778C613.994 93.8519 614.438 95.5186 615.327 96.7778C616.253 98.0371 617.457 98.6667 618.938 98.6667Z" fill="var(--fill-0, #1E1307)"/>
<path id="Vector_4" d="M598.555 87.2223V106.667H591.555V64.0001H598.555V80.1112H603.611V87.2223H598.555ZM579.444 65.1112C579.444 71.4815 578.926 77.2964 577.889 82.5556L590 100.222L584.222 104.444L575.389 91.1112C573.796 95.3334 571.759 98.5926 569.278 100.889C566.833 103.185 564.074 104.389 561 104.5V96.9445C563.259 96.6112 565.241 95.0371 566.944 92.2223C568.648 89.4075 569.963 85.6482 570.889 80.9445C571.852 76.2038 572.333 70.8519 572.333 64.8889L579.444 65.1112Z" fill="var(--fill-0, #1E1307)"/>
<path id="Vector_5" d="M555.95 87.1112H548.95V79.1112H539.117C537.265 81.6667 534.506 83.5741 530.839 84.8334C527.209 86.0556 522.913 86.6667 517.95 86.6667V80.3889C523.098 80.3149 527.172 79.5186 530.172 78.0001C533.209 76.4445 534.728 74.3149 534.728 71.6112V70.8334H517.95V64.6667H541.895V70.1112C541.895 70.926 541.839 71.6667 541.728 72.3334H548.95V64.0001H555.95V87.1112ZM555.95 88.8889V106.5H520.172V88.8889H555.95ZM548.95 100.389V95.0001H527.228V100.389H548.95Z" fill="var(--fill-0, #1E1307)"/>
<path id="Vector_6" d="M501.859 106.667H495.192V64.0001H501.859V106.667ZM491.414 64.1667V105.944H484.747V87.1112H479.247C478.099 92.6667 476.044 96.9445 473.081 99.9445C470.118 102.944 466.636 104.444 462.636 104.444V97.5556C464.821 97.4075 466.71 96.5556 468.303 95.0001C469.933 93.4445 471.192 91.2038 472.081 88.2778C472.97 85.3519 473.414 81.8704 473.414 77.8334V71.8334H462.636V65.1667H480.136V77.5001L480.081 80.1112H484.747V64.1667H491.414Z" fill="var(--fill-0, #1E1307)"/>
<path id="Vector_7" d="M445.142 69.5556V76.3334H418.809V69.5556H428.364V63.8334H435.531V69.5556H445.142ZM455.587 87.2223V106.667H448.587V64.0001H455.587V80.1112H460.642V87.2223H455.587ZM431.975 78.6112C434.272 78.6112 436.29 79.1852 438.031 80.3334C439.809 81.4445 441.179 83.0001 442.142 85.0001C443.105 87.0001 443.587 89.2593 443.587 91.7778C443.587 94.3334 443.105 96.6112 442.142 98.6112C441.179 100.611 439.809 102.185 438.031 103.333C436.29 104.445 434.272 105 431.975 105C429.642 105 427.587 104.445 425.809 103.333C424.068 102.185 422.716 100.611 421.753 98.6112C420.79 96.6112 420.309 94.3334 420.309 91.7778C420.309 89.2593 420.79 87.0001 421.753 85.0001C422.716 83.0001 424.068 81.4445 425.809 80.3334C427.587 79.1852 429.642 78.6112 431.975 78.6112ZM431.975 98.6667C433.457 98.6667 434.642 98.0371 435.531 96.7778C436.42 95.5186 436.864 93.8519 436.864 91.7778C436.864 89.7038 436.42 88.0556 435.531 86.8334C434.642 85.5741 433.457 84.9445 431.975 84.9445C430.457 84.9445 429.253 85.5741 428.364 86.8334C427.475 88.0556 427.031 89.7038 427.031 91.7778C427.031 93.8519 427.475 95.5186 428.364 96.7778C429.29 98.0371 430.494 98.6667 431.975 98.6667Z" fill="var(--fill-0, #1E1307)"/>
<path id="Vector_8" d="M373.87 71.2223V66.0556H383.815V62.7223H390.981V66.0556H400.981V71.2223H373.87ZM411.704 80.7778V93.3334H404.704V64.0001H411.704V73.9445H416.648V80.7778H411.704ZM402.037 91.3889C399.778 92.426 395.944 92.9445 390.537 92.9445H373.926V87.5556H383.926V85.4445C381.333 85.1482 379.278 84.4445 377.759 83.3334C376.278 82.2223 375.537 80.8149 375.537 79.1112C375.537 77.0001 376.611 75.3704 378.759 74.2223C380.944 73.0371 383.852 72.4445 387.481 72.4445C391.074 72.4445 393.944 73.0371 396.092 74.2223C398.278 75.3704 399.37 77.0001 399.37 79.1112C399.37 80.8149 398.611 82.2223 397.092 83.3334C395.574 84.4445 393.5 85.1667 390.87 85.5001V87.5556C393.092 87.5556 395.204 87.426 397.204 87.1667C399.204 86.8704 400.815 86.463 402.037 85.9445V91.3889ZM382.037 79.1112C382.037 79.6667 382.518 80.0926 383.481 80.3889C384.444 80.6852 385.778 80.8334 387.481 80.8334C389.148 80.8334 390.463 80.6852 391.426 80.3889C392.389 80.0926 392.87 79.6667 392.87 79.1112C392.87 78.5186 392.389 78.0741 391.426 77.7778C390.463 77.4445 389.148 77.2778 387.481 77.2778C385.815 77.2778 384.481 77.4445 383.481 77.7778C382.518 78.0741 382.037 78.5186 382.037 79.1112ZM411.704 95.1112V107H404.648V100.611H376.259V95.1112H411.704Z" fill="var(--fill-0, #1E1307)"/>
<path id="Vector_9" d="M361.987 64.0001H368.987V87.8889H361.987V77.3334H355.821V71.0556H361.987V64.0001ZM344.432 79.7223C342.839 81.8704 340.858 83.6112 338.487 84.9445C336.117 86.2408 333.524 86.963 330.709 87.1112V80.6112C333.45 80.3889 335.709 79.3519 337.487 77.5001C339.265 75.6482 340.358 73.426 340.765 70.8334H331.209V64.6667H357.098V70.8334H347.876C347.765 71.9815 347.543 73.0926 347.209 74.1667L358.543 81.2223L355.154 86.6667L344.432 79.7223ZM351.098 88.7778C356.654 88.7778 361.08 89.5001 364.376 90.9445C367.709 92.3889 369.376 94.7038 369.376 97.8889C369.376 101.074 367.709 103.389 364.376 104.833C361.08 106.278 356.654 107 351.098 107C345.58 107 341.172 106.278 337.876 104.833C334.58 103.389 332.932 101.074 332.932 97.8889C332.932 94.7038 334.58 92.3889 337.876 90.9445C341.172 89.5001 345.58 88.7778 351.098 88.7778ZM351.098 101.167C354.283 101.167 356.858 100.907 358.821 100.389C360.821 99.8334 361.821 99.0001 361.821 97.8889C361.821 96.8149 360.821 96.0001 358.821 95.4445C356.821 94.8889 354.246 94.6112 351.098 94.6112C347.95 94.6112 345.395 94.8889 343.432 95.4445C341.469 96.0001 340.487 96.8149 340.487 97.8889C340.487 99.0001 341.469 99.8334 343.432 100.389C345.395 100.907 347.95 101.167 351.098 101.167Z" fill="var(--fill-0, #1E1307)"/>
<path id="Vector_10" d="M312.729 86.8334V106.667H305.729V64.0001H312.729V79.6667H317.673V86.8334H312.729ZM291.84 97.6112C294.099 97.6112 296.21 97.4815 298.173 97.2223C300.173 96.926 301.803 96.4815 303.062 95.8889V102.778C300.618 103.926 296.803 104.5 291.618 104.5H274.951V97.6112H284.785V90.7223C282.044 89.9815 279.859 88.463 278.229 86.1667C276.599 83.8704 275.785 81.0741 275.785 77.7778C275.785 75.1852 276.322 72.8889 277.396 70.8889C278.47 68.8519 279.951 67.2778 281.84 66.1667C283.766 65.0186 285.933 64.4445 288.34 64.4445C290.747 64.4445 292.914 65.0186 294.84 66.1667C296.766 67.2778 298.266 68.8519 299.34 70.8889C300.451 72.8889 301.007 75.1852 301.007 77.7778C301.007 81.0371 300.173 83.8334 298.507 86.1667C296.84 88.463 294.618 89.9815 291.84 90.7223V97.6112ZM288.34 71.0556C286.562 71.0556 285.136 71.6852 284.062 72.9445C283.025 74.2038 282.507 75.8149 282.507 77.7778C282.507 79.7408 283.025 81.3704 284.062 82.6667C285.136 83.926 286.562 84.5556 288.34 84.5556C290.118 84.5556 291.544 83.926 292.618 82.6667C293.729 81.3704 294.285 79.7408 294.285 77.7778C294.285 75.8519 293.729 74.2593 292.618 73.0001C291.507 71.7038 290.081 71.0556 288.34 71.0556Z" fill="var(--fill-0, #1E1307)"/>
<path id="Vector_11" d="M268.624 87.2223V106.667H261.624V64.0001H268.624V80.1112H273.679V87.2223H268.624ZM254.901 65.1667V76.3334C254.901 82.0371 253.976 87.0001 252.124 91.2223C250.309 95.4445 247.679 98.7038 244.235 101C240.827 103.296 236.809 104.444 232.179 104.444V97.4445C237.179 97.4445 241.013 95.5926 243.679 91.8889C246.383 88.1482 247.735 82.9815 247.735 76.3889V71.8889H232.179V65.1667H254.901Z" fill="var(--fill-0, #1E1307)"/>
<path id="Vector_12" d="M189.574 81.9445V64.1667H225.241V81.9445H189.574ZM196.518 70.0001V76.0556H218.241V70.0001H196.518ZM227.852 91.1112H210.907V97.3334H203.852V91.1112H186.963V85.0001H227.852V91.1112ZM225.907 100.333V106.5H189.463V93.9445H196.63V100.333H225.907Z" fill="var(--fill-0, #1E1307)"/>
<path id="Vector_13" d="M175.024 64.0001H182.024V95.6667H175.024V79.8334H168.858V73.3889H175.024V64.0001ZM157.413 81.6667C155.821 84.1112 153.839 86.0741 151.469 87.5556C149.135 89.0371 146.561 89.8519 143.747 90.0001V83.3334C146.561 83.0371 148.858 81.7408 150.635 79.4445C152.45 77.1112 153.524 74.2778 153.858 70.9445H144.247V64.6667H170.135V70.9445H160.913C160.876 72.5371 160.617 74.1297 160.135 75.7223L171.691 84.3889L167.747 89.6667L157.413 81.6667ZM182.691 106.5H146.247V91.9445H153.413V99.8889H182.691V106.5Z" fill="var(--fill-0, #1E1307)"/>
<path id="Vector_14" d="M119.877 96.3889V64.0001H126.877V96.3889H119.877ZM117.266 90.2778C114.822 91.3149 110.988 91.8334 105.766 91.8334H87.9883V85.8334H98.4883V81.7223H89.9883V64.4445H113.933V70.1667H96.9883V75.9445H114.433V81.7223H105.433V85.8334C111.025 85.8334 114.97 85.2963 117.266 84.2223V90.2778ZM127.655 106.5H91.1549V94.3334H98.3216V100.222H127.655V106.5Z" fill="var(--fill-0, #1E1307)"/>
<path id="Vector_15" d="M63.383 76.0556C61.2719 77.426 58.6793 78.5001 55.6053 79.2778C52.5312 80.0186 49.309 80.426 45.9386 80.5001V74.7223C49.1238 74.6482 52.1238 74.1852 54.9386 73.3334C57.7534 72.4445 59.6793 71.2778 60.7164 69.8334H46.4386V64.1667H82.4386V69.8334H68.5497C68.5127 70.3149 68.3275 70.8519 67.9941 71.4445L83.4941 75.1112L81.883 80.6667L63.383 76.0556ZM84.883 88.3889H43.9941V82.6667H84.883V88.3889ZM64.4386 90.7223C76.6238 90.7223 82.7164 93.4445 82.7164 98.8889C82.7164 101.778 81.0867 103.852 77.8275 105.111C74.5682 106.407 70.1053 107.056 64.4386 107.056C58.7719 107.056 54.2904 106.407 50.9941 105.111C47.7349 103.815 46.1053 101.741 46.1053 98.8889C46.1053 93.4445 52.2164 90.7223 64.4386 90.7223ZM64.4386 101.5C71.6608 101.5 75.2719 100.63 75.2719 98.8889C75.2719 97.1482 71.6608 96.2778 64.4386 96.2778C61.1053 96.2778 58.4571 96.4815 56.4941 96.8889C54.5312 97.2964 53.5497 97.963 53.5497 98.8889C53.5497 99.8149 54.5312 100.482 56.4941 100.889C58.4571 101.296 61.1053 101.5 64.4386 101.5Z" fill="var(--fill-0, #1E1307)"/>
<path id="Vector_16" d="M39.0556 87.1112H32.0556V79.1112H22.2222C20.3704 81.6667 17.6111 83.5741 13.9444 84.8334C10.3148 86.0556 6.01852 86.6667 1.05556 86.6667V80.3889C6.2037 80.3149 10.2778 79.5186 13.2778 78.0001C16.3148 76.4445 17.8333 74.3149 17.8333 71.6112V70.8334H1.05556V64.6667H25V70.1112C25 70.926 24.9444 71.6667 24.8333 72.3334H32.0556V64.0001H39.0556V87.1112ZM39.0556 88.8889V106.5H3.27778V88.8889H39.0556ZM32.0556 100.389V95.0001H10.3333V100.389H32.0556Z" fill="var(--fill-0, #1E1307)"/>
<path id="Vector_17" d="M423.364 31.5556C424.735 31.5556 425.864 32.0001 426.753 32.8889C427.642 33.7778 428.087 34.926 428.087 36.3334C428.087 37.0371 427.994 37.7223 427.809 38.3889C427.661 39.0556 427.327 40.0186 426.809 41.2778L423.809 49.2223H419.031L421.309 40.5556C420.457 40.2593 419.79 39.7408 419.309 39.0001C418.827 38.2223 418.587 37.3334 418.587 36.3334C418.587 34.926 419.031 33.7778 419.92 32.8889C420.846 32.0001 421.994 31.5556 423.364 31.5556Z" fill="var(--fill-0, #1E1307)"/>
<path id="Vector_18" d="M416.648 13.1112H411.592V20.8889H404.592V5.34058e-05H411.592V6.38894H416.648V13.1112ZM402.37 18.2778C401.259 18.7593 399.741 19.1297 397.815 19.3889C395.926 19.6482 393.87 19.7778 391.648 19.7778H374.981V0.666719H399.87V6.72227H381.981V13.7223H391.981C394.129 13.7223 396.111 13.6112 397.926 13.3889C399.778 13.1297 401.259 12.7593 402.37 12.2778V18.2778ZM412.204 37.3334V42.5001H376.37V30.2778H404.704V27.8334H376.259V22.6667H411.592V34.8889H383.426V37.3334H412.204Z" fill="var(--fill-0, #1E1307)"/>
<path id="Vector_19" d="M372.654 13.2223H367.598V21.3889H360.598V5.34058e-05H367.598V6.50005H372.654V13.2223ZM330.987 20.2778V0.555608H337.821V4.61116H348.598V0.555608H355.432V20.2778H330.987ZM348.598 10.2778H337.821V14.5001H348.598V10.2778ZM368.209 37.5001V42.5001H332.376V30.5001H360.765V28.2223H332.265V23.1667H367.598V35.1667H339.376V37.5001H368.209Z" fill="var(--fill-0, #1E1307)"/>
<path id="Vector_20" d="M324.993 42.6667H317.993V23.5001H311.882C311.586 29.3519 310.345 33.7408 308.16 36.6667C306.012 39.5556 303.141 41.0001 299.549 41.0001C295.697 41.0001 292.66 39.3334 290.438 36.0001C288.215 32.6297 287.104 27.5741 287.104 20.8334C287.104 14.0926 288.215 9.05561 290.438 5.72227C292.66 2.3519 295.697 0.666719 299.549 0.666719C302.956 0.666719 305.734 2.00005 307.882 4.66672C310.03 7.29635 311.345 11.2778 311.826 16.6112H317.993V5.34058e-05H324.993V42.6667ZM299.549 34.2778C301.215 34.2778 302.53 33.2223 303.493 31.1112C304.493 29.0001 304.993 25.5741 304.993 20.8334C304.993 16.1297 304.493 12.7223 303.493 10.6112C302.53 8.46302 301.215 7.38894 299.549 7.38894C297.845 7.38894 296.493 8.46302 295.493 10.6112C294.53 12.7223 294.049 16.1297 294.049 20.8334C294.049 29.7963 295.882 34.2778 299.549 34.2778Z" fill="var(--fill-0, #1E1307)"/>
<path id="Vector_21" d="M267.443 16.0556C266.777 18.9445 265.332 21.2408 263.11 22.9445C260.888 24.6482 258.129 25.5001 254.832 25.5001C252.277 25.5001 250.017 24.9815 248.054 23.9445C246.092 22.8704 244.554 21.3889 243.443 19.5001C242.369 17.5741 241.832 15.3519 241.832 12.8334C241.832 10.3519 242.369 8.1482 243.443 6.22227C244.554 4.29635 246.092 2.81487 248.054 1.77783C250.017 0.703756 252.277 0.166719 254.832 0.166719C258.054 0.166719 260.758 0.981534 262.943 2.61116C265.166 4.20376 266.647 6.37043 267.388 9.11117H273.999V5.34058e-05H280.999V31.6667H273.999V16.0556H267.443ZM248.832 12.8334C248.832 14.8704 249.369 16.463 250.443 17.6112C251.554 18.7593 253.017 19.3334 254.832 19.3334C256.647 19.3334 258.092 18.7593 259.166 17.6112C260.277 16.463 260.832 14.8704 260.832 12.8334C260.832 10.7963 260.277 9.20376 259.166 8.05561C258.092 6.90746 256.647 6.33339 254.832 6.33339C253.017 6.33339 251.554 6.90746 250.443 8.05561C249.369 9.20376 248.832 10.7963 248.832 12.8334ZM281.666 42.5001H245.721V27.8334H252.832V35.8889H281.666V42.5001Z" fill="var(--fill-0, #1E1307)"/>
<path id="Vector_22" d="M218.907 42.6667V5.34058e-05H225.852V42.6667H218.907ZM201.018 0.444498C203.463 0.444498 205.648 1.01857 207.574 2.16672C209.537 3.31487 211.055 4.92598 212.13 7.00005C213.241 9.07413 213.796 11.463 213.796 14.1667C213.796 16.8704 213.241 19.2778 212.13 21.3889C211.055 23.463 209.537 25.0741 207.574 26.2223C205.648 27.3704 203.463 27.9445 201.018 27.9445C198.537 27.9445 196.315 27.3704 194.352 26.2223C192.389 25.0741 190.852 23.463 189.741 21.3889C188.667 19.2778 188.13 16.8704 188.13 14.1667C188.13 11.463 188.667 9.07413 189.741 7.00005C190.852 4.92598 192.389 3.31487 194.352 2.16672C196.315 1.01857 198.537 0.444498 201.018 0.444498ZM201.018 7.05561C199.167 7.05561 197.685 7.7408 196.574 9.11117C195.5 10.4445 194.963 12.1297 194.963 14.1667C194.963 16.2778 195.5 18.0001 196.574 19.3334C197.685 20.6297 199.167 21.2778 201.018 21.2778C202.833 21.2778 204.296 20.6112 205.407 19.2778C206.518 17.9445 207.074 16.2408 207.074 14.1667C207.074 12.1297 206.518 10.4445 205.407 9.11117C204.296 7.7408 202.833 7.05561 201.018 7.05561ZM216.241 38.6667C214.981 39.2593 213.315 39.7223 211.241 40.0556C209.167 40.3519 206.944 40.5001 204.574 40.5001H186.963V33.6112H204.852C207.111 33.6112 209.241 33.463 211.241 33.1667C213.278 32.8704 214.944 32.426 216.241 31.8334V38.6667Z" fill="var(--fill-0, #1E1307)"/>
<path id="Vector_23" d="M174.747 42.6667V5.34058e-05H181.802V42.6667H174.747ZM156.969 0.666719C160.858 0.666719 163.913 2.3519 166.135 5.72227C168.395 9.05561 169.524 14.0926 169.524 20.8334C169.524 27.5741 168.395 32.6297 166.135 36.0001C163.913 39.3334 160.858 41.0001 156.969 41.0001C153.043 41.0001 149.95 39.3334 147.691 36.0001C145.469 32.6297 144.358 27.5741 144.358 20.8334C144.358 14.0926 145.469 9.05561 147.691 5.72227C149.95 2.3519 153.043 0.666719 156.969 0.666719ZM156.969 7.38894C155.228 7.38894 153.839 8.46302 152.802 10.6112C151.802 12.7223 151.302 16.1297 151.302 20.8334C151.302 25.5741 151.802 29.0001 152.802 31.1112C153.839 33.2223 155.228 34.2778 156.969 34.2778C158.672 34.2778 160.043 33.2223 161.08 31.1112C162.117 28.963 162.635 25.5371 162.635 20.8334C162.635 16.1667 162.117 12.7593 161.08 10.6112C160.043 8.46302 158.672 7.38894 156.969 7.38894Z" fill="var(--fill-0, #1E1307)"/>
<path id="Vector_24" d="M136.641 23.2223V42.6667H129.641V5.34058e-05H136.641V16.1112H141.697V23.2223H136.641ZM112.363 0.666719C116.215 0.666719 119.234 2.3519 121.419 5.72227C123.641 9.05561 124.752 14.0926 124.752 20.8334C124.752 27.5741 123.641 32.6297 121.419 36.0001C119.234 39.3334 116.215 41.0001 112.363 41.0001C108.512 41.0001 105.475 39.3334 103.252 36.0001C101.03 32.6297 99.9191 27.5741 99.9191 20.8334C99.9191 14.0926 101.03 9.05561 103.252 5.72227C105.475 2.3519 108.512 0.666719 112.363 0.666719ZM112.363 34.2778C114.03 34.2778 115.345 33.2223 116.308 31.1112C117.271 29.0001 117.752 25.5741 117.752 20.8334C117.752 16.1297 117.271 12.7223 116.308 10.6112C115.345 8.46302 114.03 7.38894 112.363 7.38894C110.66 7.38894 109.308 8.46302 108.308 10.6112C107.345 12.7223 106.863 16.1297 106.863 20.8334C106.863 29.7963 108.697 34.2778 112.363 34.2778Z" fill="var(--fill-0, #1E1307)"/>
<path id="Vector_25" d="M75.7719 42.6667V5.34058e-05H82.8275V42.6667H75.7719ZM52.9386 23.9445V33.8889H62.7164C64.6053 33.8889 66.4941 33.7038 68.383 33.3334C70.309 32.926 71.9201 32.426 73.2164 31.8334V38.4445C71.9941 39.0741 70.4015 39.5741 68.4386 39.9445C66.4756 40.3149 64.4756 40.5001 62.4386 40.5001H45.9386V17.3889H62.3275V7.83339H45.883V1.16672H69.2719V23.9445H52.9386Z" fill="var(--fill-0, #1E1307)"/>
<path id="Vector_26" d="M20.4444 23.5556C16.7407 23.5556 13.5 23.0741 10.7222 22.1112C7.94445 21.1482 5.77778 19.7778 4.22222 18.0001C2.7037 16.2223 1.94444 14.1482 1.94444 11.7778C1.94444 9.40746 2.7037 7.33339 4.22222 5.55561C5.77778 3.77783 7.94445 2.40746 10.7222 1.4445C13.5 0.481534 16.7407 5.34058e-05 20.4444 5.34058e-05C24.1481 5.34058e-05 27.3889 0.481534 30.1667 1.4445C32.9444 2.40746 35.0926 3.77783 36.6111 5.55561C38.1667 7.33339 38.9444 9.40746 38.9444 11.7778C38.9444 14.1482 38.1667 16.2223 36.6111 18.0001C35.0926 19.7778 32.9444 21.1482 30.1667 22.1112C27.3889 23.0741 24.1481 23.5556 20.4444 23.5556ZM20.4444 6.61117C17.1481 6.61117 14.463 7.07413 12.3889 8.00006C10.3519 8.88894 9.33333 10.1482 9.33333 11.7778C9.33333 13.4075 10.3519 14.6852 12.3889 15.6112C14.463 16.5001 17.1481 16.9445 20.4444 16.9445C23.7037 16.9445 26.3519 16.5001 28.3889 15.6112C30.463 14.6852 31.5 13.4075 31.5 11.7778C31.5 10.1482 30.4815 8.88894 28.4444 8.00006C26.4074 7.07413 23.7407 6.61117 20.4444 6.61117ZM24.0556 33.3889V43.6667H16.8333V33.3889H0V26.5556H40.8889V33.3889H24.0556Z" fill="var(--fill-0, #1E1307)"/>
</g>
</svg>
