<svg preserveAspectRatio="none" width="100%" height="100%" overflow="visible" style="display: block;" viewBox="0 0 25 25" fill="none" xmlns="http://www.w3.org/2000/svg">
<g id="Group 432">
<circle id="Ellipse 19" cx="8.98323" cy="3.26692" r="3.26692" fill="var(--fill-0, white)"/>
<path id="Subtract" d="M6.0652 9.51495C7.25502 7.15711 10.6292 7.17886 11.7879 9.55206L17.3582 20.9651C18.2673 22.8283 16.9107 24.9999 14.8377 25.0003H14.4988C14.0871 25.0003 13.6821 24.8913 13.3259 24.6849L11.6531 23.7151C9.98666 22.749 7.93354 22.7333 6.2527 23.6741L4.41676 24.7024C4.06811 24.8976 3.67471 25.0002 3.27516 25.0003H2.80836C0.718645 25.0003 -0.636936 22.7976 0.304453 20.9319L6.0652 9.51495ZM6.49586 14.7015C6.29083 14.7015 6.12477 14.8675 6.12477 15.0726V16.1302C6.12477 17.5962 7.31309 18.7845 8.77906 18.7845C10.245 18.7844 11.4334 17.5961 11.4334 16.1302V15.0726C11.4334 14.8676 11.2672 14.7016 11.0623 14.7015H6.49586Z" fill="var(--fill-0, white)"/>
<circle id="Ellipse 14" cx="22.1771" cy="10.8873" r="2.82262" fill="var(--fill-0, white)"/>
<rect id="Rectangle 4" x="19.3545" y="14.5164" width="5.64525" height="10.484" rx="2.82262" fill="var(--fill-0, white)"/>
</g>
</svg>
