<svg preserveAspectRatio="none" width="100%" height="100%" overflow="visible" style="display: block;" viewBox="0 0 275 20" fill="none" xmlns="http://www.w3.org/2000/svg">
<g id="&#236;&#160;&#132;&#235;&#172;&#184;&#234;&#176;&#128; 1:1 &#236;&#131;&#129;&#235;&#139;&#180;, &#235;&#176;&#148;&#235;&#161;&#156; &#236;&#139;&#156;&#236;&#158;&#145;&#237;&#149;&#180;&#235;&#179;&#180;&#236;&#132;&#184;&#236;&#154;&#148;">
<path id="Vector" d="M274.568 16.4667H258.212V13.7556H261.546V9.75555C260.701 9.28148 260.049 8.68148 259.59 7.95556C259.131 7.22963 258.901 6.41481 258.901 5.51111C258.901 4.45926 259.212 3.53333 259.835 2.73333C260.457 1.91852 261.331 1.28889 262.457 0.844444C263.598 0.4 264.909 0.177778 266.39 0.177778C267.872 0.177778 269.175 0.4 270.301 0.844444C271.442 1.28889 272.323 1.91852 272.946 2.73333C273.568 3.53333 273.879 4.45926 273.879 5.51111C273.879 6.42963 273.649 7.25185 273.19 7.97778C272.731 8.68889 272.072 9.28148 271.212 9.75555V13.7556H274.568V16.4667ZM266.39 2.82222C265.042 2.82222 263.946 3.07407 263.101 3.57778C262.272 4.06667 261.857 4.71111 261.857 5.51111C261.857 6.32593 262.272 6.98518 263.101 7.48889C263.946 7.97778 265.042 8.22222 266.39 8.22222C267.738 8.22222 268.827 7.97778 269.657 7.48889C270.501 6.98518 270.923 6.32593 270.923 5.51111C270.923 4.71111 270.501 4.06667 269.657 3.57778C268.827 3.07407 267.738 2.82222 266.39 2.82222ZM268.412 13.7556V10.7111C267.835 10.8148 267.16 10.8667 266.39 10.8667C265.62 10.8667 264.946 10.8148 264.368 10.7111V13.7556H268.412Z" fill="var(--fill-0, white)"/>
<path id="Vector_2" d="M256.992 17.1333H254.348V0.0666666H256.992V17.1333ZM252.792 0.133333V16.8444H250.148V8.28889H248.126V5.48889H250.148V0.133333H252.792ZM246.77 0.511111C246.77 3.22222 246.644 5.51111 246.392 7.37778L250.148 14.9111L247.837 16.0889L245.548 11.4C244.585 14.4222 243.089 16.0444 241.059 16.2667V13.2667C242.067 13.0444 242.822 11.8074 243.326 9.55556C243.844 7.3037 244.104 4.25926 244.104 0.422223L246.77 0.511111Z" fill="var(--fill-0, white)"/>
<path id="Vector_3" d="M240.173 16.4667H223.817V13.7111H230.573V10.7333H224.75V0.488889H227.528V2.93333H236.461V0.488889H239.217V10.7333H233.417V13.7111H240.173V16.4667ZM236.461 8.08889V5.55556H227.528V8.08889H236.461Z" fill="var(--fill-0, white)"/>
<path id="Vector_4" d="M214.93 2.33333V4.97778H206.242V2.33333H209.197V0H211.997V2.33333H214.93ZM222.597 17.1333H220.019V9.31111H218.33V16.8444H215.775V0.133333H218.33V6.51111H220.019V0.0666666H222.597V17.1333ZM210.664 5.86667C211.819 5.86667 212.76 6.32593 213.486 7.24444C214.212 8.14815 214.575 9.45185 214.575 11.1556C214.575 12.8593 214.212 14.1704 213.486 15.0889C212.76 16.0074 211.819 16.4667 210.664 16.4667C209.493 16.4667 208.553 16.0148 207.842 15.1111C207.13 14.1926 206.775 12.8741 206.775 11.1556C206.775 9.45185 207.13 8.14815 207.842 7.24444C208.553 6.32593 209.493 5.86667 210.664 5.86667ZM210.664 13.9333C211.064 13.9333 211.397 13.6889 211.664 13.2C211.93 12.6963 212.064 12.0148 212.064 11.1556C212.064 10.2963 211.93 9.62222 211.664 9.13333C211.397 8.64444 211.064 8.4 210.664 8.4C210.249 8.4 209.916 8.64444 209.664 9.13333C209.412 9.60741 209.286 10.2815 209.286 11.1556C209.286 12.0296 209.412 12.7111 209.664 13.2C209.916 13.6889 210.249 13.9333 210.664 13.9333Z" fill="var(--fill-0, white)"/>
<path id="Vector_5" d="M204.488 6.04445V10.2222H201.688V0.0666666H204.488V3.22222H206.511V6.04445H204.488ZM195.044 6.82222C194.422 7.72593 193.644 8.45185 192.711 9C191.777 9.54815 190.748 9.85185 189.622 9.91111V7.24444C190.748 7.12593 191.666 6.65926 192.377 5.84444C193.103 5.01482 193.533 4.01481 193.666 2.84444H189.844V0.333333H200.199V2.84444H196.511C196.466 3.40741 196.362 3.97037 196.199 4.53333L200.733 7.6L199.288 9.77778L195.044 6.82222ZM204.488 10.9333V17.2667H201.644V13.4667H190.288V10.9333H204.488Z" fill="var(--fill-0, white)"/>
<path id="Vector_6" d="M187.757 17.1333H184.935V0.0666666H187.757V17.1333ZM179.913 0.511111C179.913 2.95556 179.698 5.25185 179.268 7.4L184.224 14.5333L181.935 16.2444L178.291 10.8222C177.639 12.5407 176.809 13.8667 175.802 14.8C174.794 15.7333 173.668 16.2222 172.424 16.2667V13.2444C173.343 13.1111 174.15 12.4815 174.846 11.3556C175.543 10.2296 176.083 8.71852 176.468 6.82222C176.854 4.92593 177.046 2.79259 177.046 0.422223L179.913 0.511111Z" fill="var(--fill-0, white)"/>
<path id="Vector_7" d="M167.387 16.4667H151.032V13.7778H157.787V11.4444H151.987V4.73333H163.654V3.13333H151.965V0.533333H166.454V7.22222H154.787V8.86667H166.632V11.4444H160.61V13.7778H167.387V16.4667Z" fill="var(--fill-0, white)"/>
<path id="Vector_8" d="M148.901 9.35556V17.1333H146.101V0.0666666H148.901V6.51111H150.923V9.35556H148.901ZM143.79 0.488889V16.2667H134.456V0.488889H137.234V5.77778H141.012V0.488889H143.79ZM141.012 8.46667H137.234V13.5556H141.012V8.46667Z" fill="var(--fill-0, white)"/>
<path id="Vector_9" d="M126.871 12.6889C127.419 12.6889 127.871 12.8667 128.226 13.2222C128.582 13.5778 128.759 14.037 128.759 14.6C128.759 14.8815 128.722 15.1556 128.648 15.4222C128.589 15.6889 128.456 16.0741 128.248 16.5778L127.048 19.7556H125.137L126.048 16.2889C125.708 16.1704 125.441 15.963 125.248 15.6667C125.056 15.3556 124.959 15 124.959 14.6C124.959 14.037 125.137 13.5778 125.493 13.2222C125.863 12.8667 126.322 12.6889 126.871 12.6889Z" fill="var(--fill-0, white)"/>
<path id="Vector_10" d="M122.562 5.95556V9.31111H119.762V0.0666666H122.562V3.11111H124.584V5.95556H122.562ZM118.873 8.04444C118.428 8.23704 117.821 8.39259 117.051 8.51111C116.28 8.62963 115.458 8.68889 114.584 8.68889H107.917V0.333333H117.873V2.77778H110.717V6.24444H114.717C115.562 6.24444 116.347 6.19259 117.073 6.08889C117.814 5.98519 118.414 5.83704 118.873 5.64444V8.04444ZM122.562 10.0222V17.0667H108.451V10.0222H122.562ZM119.762 14.6222V12.4667H111.273V14.6222H119.762Z" fill="var(--fill-0, white)"/>
<path id="Vector_11" d="M107.386 5.68889H105.364V9.46667H102.564V0.0666666H105.364V2.88889H107.386V5.68889ZM95.9642 5.88889C95.2975 6.88148 94.4827 7.67407 93.5197 8.26667C92.5567 8.85926 91.4827 9.20741 90.2975 9.31111V6.66667C91.2012 6.53333 91.9864 6.17037 92.653 5.57778C93.3345 4.98519 93.8605 4.22222 94.2308 3.28889C94.6012 2.35556 94.7864 1.31111 94.7864 0.155555L97.6086 0.333333C97.6086 1.53333 97.4382 2.63704 97.0975 3.64444L101.697 6.75556L100.275 8.86667L95.9642 5.88889ZM98.3419 9.82222C100.535 9.82222 102.283 10.1185 103.586 10.7111C104.89 11.3037 105.542 12.2444 105.542 13.5333C105.542 14.837 104.89 15.7852 103.586 16.3778C102.283 16.9704 100.535 17.2667 98.3419 17.2667C96.1641 17.2667 94.416 16.9704 93.0975 16.3778C91.7938 15.7852 91.1419 14.837 91.1419 13.5333C91.1419 12.2444 91.7938 11.3037 93.0975 10.7111C94.416 10.1185 96.1641 9.82222 98.3419 9.82222ZM98.3419 14.9111C99.5864 14.9111 100.594 14.8 101.364 14.5778C102.135 14.3407 102.52 13.9926 102.52 13.5333C102.52 13.0741 102.135 12.7333 101.364 12.5111C100.594 12.2889 99.5864 12.1778 98.3419 12.1778C97.0975 12.1778 96.0901 12.2889 95.3197 12.5111C94.5493 12.7333 94.1642 13.0741 94.1642 13.5333C94.1642 13.9926 94.5493 14.3407 95.3197 14.5778C96.0901 14.8 97.0975 14.9111 98.3419 14.9111Z" fill="var(--fill-0, white)"/>
<path id="Vector_12" d="M81.6742 16.3778H78.5409V3.33333H75.2964V0.822222H81.6742V16.3778Z" fill="var(--fill-0, white)"/>
<path id="Vector_13" d="M70.3718 6.33333C69.8385 6.33333 69.3866 6.14815 69.0162 5.77778C68.6459 5.40741 68.4607 4.94815 68.4607 4.4C68.4607 3.83704 68.6385 3.37778 68.994 3.02222C69.3644 2.66667 69.8236 2.48889 70.3718 2.48889C70.9199 2.48889 71.3718 2.66667 71.7273 3.02222C72.0977 3.37778 72.2829 3.83704 72.2829 4.4C72.2829 4.94815 72.0977 5.40741 71.7273 5.77778C71.357 6.14815 70.9051 6.33333 70.3718 6.33333ZM70.3718 14.6889C69.8385 14.6889 69.3866 14.5037 69.0162 14.1333C68.6459 13.763 68.4607 13.3037 68.4607 12.7556C68.4607 12.1926 68.6385 11.7333 68.994 11.3778C69.3644 11.0222 69.8236 10.8444 70.3718 10.8444C70.9199 10.8444 71.3718 11.0222 71.7273 11.3778C72.0977 11.7333 72.2829 12.1926 72.2829 12.7556C72.2829 13.3037 72.0977 13.763 71.7273 14.1333C71.357 14.5037 70.9051 14.6889 70.3718 14.6889Z" fill="var(--fill-0, white)"/>
<path id="Vector_14" d="M63.5875 16.3778H60.4542V3.33333H57.2097V0.822222H63.5875V16.3778Z" fill="var(--fill-0, white)"/>
<path id="Vector_15" d="M49.1509 9.35556V17.1333H46.3509V0.0666666H49.1509V6.51111H51.1731V9.35556H49.1509ZM43.662 0.533333V5C43.662 7.28148 43.2916 9.26667 42.5509 10.9556C41.8249 12.6444 40.7731 13.9481 39.3953 14.8667C38.0324 15.7852 36.4249 16.2444 34.5731 16.2444V13.4444C36.5731 13.4444 38.1064 12.7037 39.1731 11.2222C40.2546 9.72593 40.7953 7.65926 40.7953 5.02222V3.22222H34.5731V0.533333H43.662Z" fill="var(--fill-0, white)"/>
<path id="Vector_16" d="M17.931 7.24444V0.133333H32.1977V7.24444H17.931ZM20.7088 2.46667V4.88889H29.3977V2.46667H20.7088ZM33.2421 10.9111H26.4643V13.4H23.6421V10.9111H16.8865V8.46667H33.2421V10.9111ZM32.4643 14.6V17.0667H17.8865V12.0444H20.7532V14.6H32.4643Z" fill="var(--fill-0, white)"/>
<path id="Vector_17" d="M12.5111 0.0666666H15.3111V12.7333H12.5111V6.4H10.0444V3.82222H12.5111V0.0666666ZM5.46667 7.13333C4.82963 8.11111 4.03704 8.8963 3.08889 9.48889C2.15556 10.0815 1.12593 10.4074 0 10.4667V7.8C1.12593 7.68148 2.04444 7.16296 2.75556 6.24444C3.48148 5.31111 3.91111 4.17778 4.04444 2.84444H0.2V0.333333H10.5556V2.84444H6.86667C6.85185 3.48148 6.74815 4.11852 6.55556 4.75556L11.1778 8.22222L9.6 10.3333L5.46667 7.13333ZM15.5778 17.0667H1V11.2444H3.86667V14.4222H15.5778V17.0667Z" fill="var(--fill-0, white)"/>
</g>
</svg>
