<svg preserveAspectRatio="none" width="100%" height="100%" overflow="visible" style="display: block;" viewBox="0 0 197 84" fill="none" xmlns="http://www.w3.org/2000/svg">
<g id="&#236;&#154;&#176;&#235;&#166;&#172; &#236;&#149;&#132;&#236;&#157;&#180;&#236;&#157;&#152; &#236;&#150;&#184;&#236;&#150;&#180;&#235;&#176;&#156;&#235;&#139;&#172;, &#234;&#178;&#128;&#236;&#166;&#157;&#235;&#144;&#156; &#236;&#160;&#132;&#235;&#172;&#184;&#234;&#176;&#128;&#236;&#153;&#128; &#236;&#160;&#149;&#237;&#153;&#149;&#237;&#149;&#152;&#234;&#178;&#140; &#234;&#178;&#128;&#236;&#130;&#172;&#237;&#149;&#152;&#236;&#132;&#184;&#236;&#154;&#148;">
<path id="Vector" d="M191.477 82.86H172.668V79.7423H176.502V75.1423C175.531 74.5971 174.781 73.9071 174.253 73.0723C173.725 72.2374 173.461 71.3004 173.461 70.2611C173.461 69.0515 173.818 67.9867 174.534 67.0667C175.25 66.1297 176.255 65.4056 177.55 64.8945C178.861 64.3834 180.369 64.1278 182.073 64.1278C183.777 64.1278 185.276 64.3834 186.571 64.8945C187.883 65.4056 188.896 66.1297 189.612 67.0667C190.327 67.9867 190.685 69.0515 190.685 70.2611C190.685 71.3174 190.421 72.263 189.893 73.0978C189.365 73.9156 188.607 74.5971 187.618 75.1423V79.7423H191.477V82.86ZM182.073 67.1689C180.523 67.1689 179.262 67.4586 178.291 68.0378C177.337 68.6 176.86 69.3411 176.86 70.2611C176.86 71.1982 177.337 71.9563 178.291 72.5356C179.262 73.0978 180.523 73.3789 182.073 73.3789C183.623 73.3789 184.875 73.0978 185.83 72.5356C186.801 71.9563 187.286 71.1982 187.286 70.2611C187.286 69.3411 186.801 68.6 185.83 68.0378C184.875 67.4586 183.623 67.1689 182.073 67.1689ZM184.398 79.7423V76.2411C183.734 76.3604 182.959 76.42 182.073 76.42C181.187 76.42 180.412 76.3604 179.747 76.2411V79.7423H184.398Z" fill="var(--fill-0, #1E1307)"/>
<path id="Vector_2" d="M170.806 83.6267H167.764V64H170.806V83.6267ZM165.976 64.0767V83.2945H162.934V73.4556H160.609V70.2356H162.934V64.0767H165.976ZM159.05 64.5111C159.05 67.6289 158.905 70.2611 158.616 72.4078L162.934 81.0711L160.277 82.4256L157.644 77.0334C156.537 80.5089 154.816 82.3745 152.482 82.63V79.18C153.641 78.9245 154.51 77.5019 155.089 74.9123C155.685 72.3226 155.983 68.8215 155.983 64.4089L159.05 64.5111Z" fill="var(--fill-0, #1E1307)"/>
<path id="Vector_3" d="M144.716 66.5556V69.6734H132.603V66.5556H136.998V63.9234H140.295V66.5556H144.716ZM149.521 74.6823V83.6267H146.301V64H149.521V71.4111H151.846V74.6823H149.521ZM138.659 70.7211C139.716 70.7211 140.644 70.9852 141.445 71.5134C142.263 72.0245 142.893 72.74 143.336 73.66C143.779 74.58 144.001 75.6193 144.001 76.7778C144.001 77.9534 143.779 79.0011 143.336 79.9211C142.893 80.8411 142.263 81.5652 141.445 82.0934C140.644 82.6045 139.716 82.86 138.659 82.86C137.586 82.86 136.641 82.6045 135.823 82.0934C135.022 81.5652 134.4 80.8411 133.957 79.9211C133.514 79.0011 133.293 77.9534 133.293 76.7778C133.293 75.6193 133.514 74.58 133.957 73.66C134.4 72.74 135.022 72.0245 135.823 71.5134C136.641 70.9852 137.586 70.7211 138.659 70.7211ZM138.659 79.9467C139.341 79.9467 139.886 79.6571 140.295 79.0778C140.704 78.4986 140.908 77.7319 140.908 76.7778C140.908 75.8237 140.704 75.0656 140.295 74.5034C139.886 73.9241 139.341 73.6345 138.659 73.6345C137.961 73.6345 137.407 73.9241 136.998 74.5034C136.589 75.0656 136.385 75.8237 136.385 76.7778C136.385 77.7319 136.589 78.4986 136.998 79.0778C137.424 79.6571 137.978 79.9467 138.659 79.9467Z" fill="var(--fill-0, #1E1307)"/>
<path id="Vector_4" d="M129.283 74.6823V83.6267H126.063V64H129.283V71.4111H131.609V74.6823H129.283ZM120.492 64.5111C120.492 67.4415 120.254 70.1163 119.777 72.5356L125.348 80.6623L122.69 82.6045L118.627 76.4711C117.894 78.4134 116.957 79.9126 115.815 80.9689C114.691 82.0252 113.422 82.5789 112.008 82.63V79.1545C113.047 79.0011 113.958 78.2771 114.742 76.9823C115.526 75.6874 116.131 73.9582 116.557 71.7945C117 69.6137 117.221 67.1519 117.221 64.4089L120.492 64.5111Z" fill="var(--fill-0, #1E1307)"/>
<path id="Vector_5" d="M109.685 74.6311H106.465V70.9511H101.941C101.09 72.1267 99.8203 73.0041 98.1337 73.5834C96.4641 74.1456 94.4878 74.4267 92.2048 74.4267V71.5389C94.5729 71.5049 96.447 71.1386 97.827 70.44C99.2241 69.7245 99.9226 68.7448 99.9226 67.5011V67.1434H92.2048V64.3067H103.219V66.8111C103.219 67.186 103.194 67.5267 103.143 67.8334H106.465V64H109.685V74.6311ZM109.685 75.4489V83.55H93.227V75.4489H109.685ZM106.465 80.7389V78.26H96.4726V80.7389H106.465Z" fill="var(--fill-0, #1E1307)"/>
<path id="Vector_6" d="M84.8027 83.6267H81.736V64H84.8027V83.6267ZM79.9982 64.0767V83.2945H76.9316V74.6311H74.4016C73.8734 77.1867 72.9278 79.1545 71.5649 80.5345C70.2019 81.9145 68.6004 82.6045 66.7604 82.6045V79.4356C67.7656 79.3674 68.6345 78.9756 69.3671 78.26C70.1167 77.5445 70.696 76.5137 71.1049 75.1678C71.5138 73.8219 71.7182 72.2204 71.7182 70.3634V67.6034H66.7604V64.5367H74.8104V70.21L74.7849 71.4111H76.9316V64.0767H79.9982Z" fill="var(--fill-0, #1E1307)"/>
<path id="Vector_7" d="M58.7131 66.5556V69.6734H46.5998V66.5556H50.9954V63.9234H54.292V66.5556H58.7131ZM63.5176 74.6823V83.6267H60.2976V64H63.5176V71.4111H65.8431V74.6823H63.5176ZM52.6565 70.7211C53.7128 70.7211 54.6413 70.9852 55.442 71.5134C56.2598 72.0245 56.8902 72.74 57.3331 73.66C57.7761 74.58 57.9976 75.6193 57.9976 76.7778C57.9976 77.9534 57.7761 79.0011 57.3331 79.9211C56.8902 80.8411 56.2598 81.5652 55.442 82.0934C54.6413 82.6045 53.7128 82.86 52.6565 82.86C51.5831 82.86 50.6376 82.6045 49.8198 82.0934C49.0191 81.5652 48.3972 80.8411 47.9543 79.9211C47.5113 79.0011 47.2898 77.9534 47.2898 76.7778C47.2898 75.6193 47.5113 74.58 47.9543 73.66C48.3972 72.74 49.0191 72.0245 49.8198 71.5134C50.6376 70.9852 51.5831 70.7211 52.6565 70.7211ZM52.6565 79.9467C53.338 79.9467 53.8831 79.6571 54.292 79.0778C54.7009 78.4986 54.9054 77.7319 54.9054 76.7778C54.9054 75.8237 54.7009 75.0656 54.292 74.5034C53.8831 73.9241 53.338 73.6345 52.6565 73.6345C51.958 73.6345 51.4043 73.9241 50.9954 74.5034C50.5865 75.0656 50.382 75.8237 50.382 76.7778C50.382 77.7319 50.5865 78.4986 50.9954 79.0778C51.4213 79.6571 51.975 79.9467 52.6565 79.9467Z" fill="var(--fill-0, #1E1307)"/>
<path id="Vector_8" d="M25.9281 67.3223V64.9456H30.5025V63.4123H33.7992V64.9456H38.3992V67.3223H25.9281ZM43.3314 71.7178V77.4934H40.1114V64H43.3314V68.5745H45.6058V71.7178H43.3314ZM38.8847 76.5989C37.8455 77.076 36.0821 77.3145 33.5947 77.3145H25.9536V74.8356H30.5536V73.8645C29.361 73.7282 28.4155 73.4045 27.7169 72.8934C27.0355 72.3823 26.6947 71.7349 26.6947 70.9511C26.6947 69.98 27.1888 69.2304 28.1769 68.7023C29.1821 68.1571 30.5195 67.8845 32.1892 67.8845C33.8418 67.8845 35.1621 68.1571 36.1503 68.7023C37.1555 69.2304 37.6581 69.98 37.6581 70.9511C37.6581 71.7349 37.3088 72.3823 36.6103 72.8934C35.9118 73.4045 34.9577 73.7367 33.7481 73.89V74.8356C34.7703 74.8356 35.7414 74.776 36.6614 74.6567C37.5814 74.5204 38.3225 74.333 38.8847 74.0945V76.5989ZM29.6847 70.9511C29.6847 71.2067 29.9062 71.4026 30.3492 71.5389C30.7921 71.6752 31.4055 71.7434 32.1892 71.7434C32.9558 71.7434 33.5607 71.6752 34.0036 71.5389C34.4466 71.4026 34.6681 71.2067 34.6681 70.9511C34.6681 70.6786 34.4466 70.4741 34.0036 70.3378C33.5607 70.1845 32.9558 70.1078 32.1892 70.1078C31.4225 70.1078 30.8092 70.1845 30.3492 70.3378C29.9062 70.4741 29.6847 70.6786 29.6847 70.9511ZM43.3314 78.3111V83.78H40.0858V80.8411H27.0269V78.3111H43.3314Z" fill="var(--fill-0, #1E1307)"/>
<path id="Vector_9" d="M20.4619 64H23.6819V74.9889H20.4619V70.1334H17.6252V67.2456H20.4619V64ZM12.3863 71.2323C11.6537 72.2204 10.7422 73.0211 9.65186 73.6345C8.56149 74.2308 7.3689 74.563 6.07409 74.6311V71.6411C7.33483 71.5389 8.37409 71.0619 9.19186 70.21C10.0096 69.3582 10.5122 68.336 10.6996 67.1434H6.30409V64.3067H18.213V67.1434H13.9708C13.9196 67.6715 13.8174 68.1826 13.6641 68.6767L18.8774 71.9223L17.3185 74.4267L12.3863 71.2323ZM15.453 75.3978C18.0085 75.3978 20.0445 75.73 21.5608 76.3945C23.0941 77.0589 23.8608 78.1237 23.8608 79.5889C23.8608 81.0541 23.0941 82.1189 21.5608 82.7834C20.0445 83.4478 18.0085 83.78 15.453 83.78C12.9145 83.78 10.887 83.4478 9.37075 82.7834C7.85446 82.1189 7.09631 81.0541 7.09631 79.5889C7.09631 78.1237 7.85446 77.0589 9.37075 76.3945C10.887 75.73 12.9145 75.3978 15.453 75.3978ZM15.453 81.0967C16.9182 81.0967 18.1022 80.9774 19.0052 80.7389C19.9252 80.4834 20.3852 80.1 20.3852 79.5889C20.3852 79.0948 19.9252 78.72 19.0052 78.4645C18.0852 78.2089 16.9011 78.0811 15.453 78.0811C14.0048 78.0811 12.8293 78.2089 11.9263 78.4645C11.0233 78.72 10.5719 79.0948 10.5719 79.5889C10.5719 80.1 11.0233 80.4834 11.9263 80.7389C12.8293 80.9774 14.0048 81.0967 15.453 81.0967Z" fill="var(--fill-0, #1E1307)"/>
<path id="Vector_10" d="M169.809 42.5034V51.6267H166.589V32H169.809V39.2067H172.083V42.5034H169.809ZM160.2 47.4611C161.239 47.4611 162.21 47.4015 163.113 47.2823C164.033 47.146 164.783 46.9415 165.362 46.6689V49.8378C164.238 50.366 162.483 50.63 160.098 50.63H152.431V47.4611H156.954V44.2923C155.694 43.9515 154.689 43.253 153.939 42.1967C153.189 41.1404 152.814 39.8541 152.814 38.3378C152.814 37.1452 153.062 36.0889 153.556 35.1689C154.05 34.2319 154.731 33.5078 155.6 32.9967C156.486 32.4686 157.483 32.2045 158.59 32.2045C159.697 32.2045 160.694 32.4686 161.58 32.9967C162.466 33.5078 163.156 34.2319 163.65 35.1689C164.161 36.0889 164.417 37.1452 164.417 38.3378C164.417 39.8371 164.033 41.1234 163.267 42.1967C162.5 43.253 161.478 43.9515 160.2 44.2923V47.4611ZM158.59 35.2456C157.772 35.2456 157.116 35.5352 156.622 36.1145C156.145 36.6937 155.907 37.4348 155.907 38.3378C155.907 39.2408 156.145 39.9904 156.622 40.5867C157.116 41.166 157.772 41.4556 158.59 41.4556C159.408 41.4556 160.064 41.166 160.558 40.5867C161.069 39.9904 161.324 39.2408 161.324 38.3378C161.324 37.4519 161.069 36.7193 160.558 36.14C160.047 35.5437 159.391 35.2456 158.59 35.2456Z" fill="var(--fill-0, #1E1307)"/>
<path id="Vector_11" d="M149.521 42.6823V51.6267H146.301V32H149.521V39.4111H151.846V42.6823H149.521ZM143.208 32.5367V37.6734C143.208 40.2971 142.782 42.58 141.931 44.5223C141.096 46.4645 139.886 47.9637 138.302 49.02C136.734 50.0763 134.886 50.6045 132.756 50.6045V47.3845C135.056 47.3845 136.819 46.5326 138.046 44.8289C139.29 43.1082 139.912 40.7315 139.912 37.6989V35.6289H132.756V32.5367H143.208Z" fill="var(--fill-0, #1E1307)"/>
<path id="Vector_12" d="M113.158 40.2545V32.0767H129.564V40.2545H113.158ZM116.352 34.76V37.5456H126.344V34.76H116.352ZM130.765 44.4711H122.971V47.3334H119.725V44.4711H111.957V41.66H130.765V44.4711ZM129.871 48.7134V51.55H113.107V45.7745H116.403V48.7134H129.871Z" fill="var(--fill-0, #1E1307)"/>
<path id="Vector_13" d="M106.465 32H109.685V46.5667H106.465V39.2834H103.628V36.3189H106.465V32ZM98.3637 40.1267C97.6311 41.2511 96.7196 42.1541 95.6292 42.8356C94.5559 43.5171 93.3718 43.8919 92.077 43.96V40.8934C93.3718 40.7571 94.4281 40.1608 95.2459 39.1045C96.0807 38.0311 96.5748 36.7278 96.7281 35.1945H92.307V32.3067H104.216V35.1945H99.9737C99.9566 35.9271 99.8374 36.6597 99.6159 37.3923L104.931 41.3789L103.117 43.8067L98.3637 40.1267ZM109.991 51.55H93.227V44.8545H96.5237V48.5089H109.991V51.55Z" fill="var(--fill-0, #1E1307)"/>
<path id="Vector_14" d="M81.0971 46.8989V32H84.3171V46.8989H81.0971ZM79.896 44.0878C78.7716 44.5648 77.0082 44.8034 74.606 44.8034H66.4282V42.0434H71.2582V40.1523H67.3482V32.2045H78.3627V34.8367H70.5682V37.4945H78.5927V40.1523H74.4527V42.0434C77.0253 42.0434 78.8397 41.7963 79.896 41.3023V44.0878ZM84.6749 51.55H67.8849V45.9534H71.1816V48.6623H84.6749V51.55Z" fill="var(--fill-0, #1E1307)"/>
<path id="Vector_15" d="M55.1098 37.5456C54.1387 38.176 52.9461 38.67 51.532 39.0278C50.118 39.3686 48.6357 39.556 47.0854 39.59V36.9323C48.5505 36.8982 49.9305 36.6852 51.2254 36.2934C52.5202 35.8845 53.4061 35.3478 53.8831 34.6834H47.3154V32.0767H63.8754V34.6834H57.4865C57.4694 34.9048 57.3843 35.1519 57.2309 35.4245L64.3609 37.1111L63.6198 39.6667L55.1098 37.5456ZM64.9998 43.2189H46.1909V40.5867H64.9998V43.2189ZM55.5954 44.2923C61.2005 44.2923 64.0031 45.5445 64.0031 48.0489C64.0031 49.3778 63.2535 50.3319 61.7543 50.9111C60.255 51.5074 58.202 51.8056 55.5954 51.8056C52.9887 51.8056 50.9272 51.5074 49.4109 50.9111C47.9117 50.3148 47.162 49.3608 47.162 48.0489C47.162 45.5445 49.9731 44.2923 55.5954 44.2923ZM55.5954 49.25C58.9176 49.25 60.5787 48.8497 60.5787 48.0489C60.5787 47.2482 58.9176 46.8478 55.5954 46.8478C54.062 46.8478 52.8439 46.9415 51.9409 47.1289C51.038 47.3163 50.5865 47.623 50.5865 48.0489C50.5865 48.4748 51.038 48.7815 51.9409 48.9689C52.8439 49.1563 54.062 49.25 55.5954 49.25Z" fill="var(--fill-0, #1E1307)"/>
<path id="Vector_16" d="M43.9192 42.6311H40.6992V38.9511H36.1758C35.324 40.1267 34.0547 41.0041 32.3681 41.5834C30.6984 42.1456 28.7221 42.4267 26.4392 42.4267V39.5389C28.8073 39.5048 30.6814 39.1386 32.0614 38.44C33.4584 37.7245 34.1569 36.7448 34.1569 35.5011V35.1434H26.4392V32.3067H37.4536V34.8111C37.4536 35.186 37.4281 35.5267 37.3769 35.8334H40.6992V32H43.9192V42.6311ZM43.9192 43.4489V51.55H27.4614V43.4489H43.9192ZM40.6992 48.7389V46.26H30.7069V48.7389H40.6992Z" fill="var(--fill-0, #1E1307)"/>
<path id="Vector_17" d="M194.748 14.5156C195.378 14.5156 195.898 14.72 196.306 15.1289C196.715 15.5378 196.92 16.066 196.92 16.7134C196.92 17.0371 196.877 17.3523 196.792 17.6589C196.724 17.9656 196.571 18.4086 196.332 18.9878L194.952 22.6423H192.754L193.802 18.6556C193.41 18.5193 193.104 18.2808 192.882 17.94C192.661 17.5823 192.55 17.1734 192.55 16.7134C192.55 16.066 192.754 15.5378 193.163 15.1289C193.589 14.72 194.117 14.5156 194.748 14.5156Z" fill="var(--fill-0, #1E1307)"/>
<path id="Vector_18" d="M191.658 6.03115H189.333V9.60892H186.113V3.43323e-05H189.333V2.93892H191.658V6.03115ZM185.09 8.40781C184.579 8.62929 183.881 8.79966 182.995 8.91892C182.126 9.03818 181.18 9.09781 180.158 9.09781H172.491V0.306701H183.94V3.09226H175.711V6.31226H180.311C181.3 6.31226 182.211 6.26115 183.046 6.15892C183.898 6.03966 184.579 5.86929 185.09 5.64781V8.40781ZM189.614 17.1734V19.55H173.13V13.9278H186.164V12.8034H173.079V10.4267H189.333V16.0489H176.376V17.1734H189.614Z" fill="var(--fill-0, #1E1307)"/>
<path id="Vector_19" d="M171.421 6.08226H169.095V9.83892H165.875V3.43323e-05H169.095V2.99003H171.421V6.08226ZM152.254 9.32781V0.255589H155.397V2.12115H160.355V0.255589H163.499V9.32781H152.254ZM160.355 4.72781H155.397V6.67003H160.355V4.72781ZM169.376 17.25V19.55H152.893V14.03H165.952V12.9823H152.842V10.6567H169.095V16.1767H156.113V17.25H169.376Z" fill="var(--fill-0, #1E1307)"/>
<path id="Vector_20" d="M149.497 19.6267H146.277V10.81H143.466C143.329 13.5019 142.759 15.5208 141.753 16.8667C140.765 18.1956 139.445 18.86 137.792 18.86C136.021 18.86 134.623 18.0934 133.601 16.56C132.579 15.0097 132.068 12.6841 132.068 9.58337C132.068 6.48263 132.579 4.16559 133.601 2.63226C134.623 1.08189 136.021 0.306701 137.792 0.306701C139.36 0.306701 140.638 0.920033 141.626 2.1467C142.614 3.35633 143.219 5.18781 143.44 7.64115H146.277V3.43323e-05H149.497V19.6267ZM137.792 15.7678C138.559 15.7678 139.164 15.2823 139.607 14.3111C140.067 13.34 140.297 11.7641 140.297 9.58337C140.297 7.41966 140.067 5.85226 139.607 4.88115C139.164 3.893 138.559 3.39892 137.792 3.39892C137.009 3.39892 136.387 3.893 135.927 4.88115C135.484 5.85226 135.262 7.41966 135.262 9.58337C135.262 13.7063 136.106 15.7678 137.792 15.7678Z" fill="var(--fill-0, #1E1307)"/>
<path id="Vector_21" d="M123.024 7.38559C122.717 8.71448 122.053 9.77078 121.031 10.5545C120.008 11.3382 118.739 11.73 117.223 11.73C116.047 11.73 115.008 11.4915 114.105 11.0145C113.202 10.5204 112.495 9.83892 111.984 8.97003C111.49 8.08411 111.243 7.06189 111.243 5.90337C111.243 4.76189 111.49 3.74818 111.984 2.86226C112.495 1.97633 113.202 1.29485 114.105 0.817812C115.008 0.323738 116.047 0.0767012 117.223 0.0767012C118.705 0.0767012 119.949 0.451515 120.954 1.20114C121.976 1.93374 122.658 2.93041 122.998 4.19115H126.04V3.43323e-05H129.259V14.5667H126.04V7.38559H123.024ZM114.463 5.90337C114.463 6.84041 114.71 7.573 115.204 8.10115C115.715 8.62929 116.388 8.89337 117.223 8.89337C118.058 8.89337 118.722 8.62929 119.216 8.10115C119.727 7.573 119.983 6.84041 119.983 5.90337C119.983 4.96633 119.727 4.23374 119.216 3.70559C118.722 3.17744 118.058 2.91337 117.223 2.91337C116.388 2.91337 115.715 3.17744 115.204 3.70559C114.71 4.23374 114.463 4.96633 114.463 5.90337ZM129.566 19.55H113.032V12.8034H116.303V16.5089H129.566V19.55Z" fill="var(--fill-0, #1E1307)"/>
<path id="Vector_22" d="M100.697 19.6267V3.43323e-05H103.892V19.6267H100.697ZM92.4685 0.204479C93.5929 0.204479 94.5981 0.468553 95.484 0.996701C96.387 1.52485 97.0855 2.26596 97.5796 3.22003C98.0907 4.17411 98.3463 5.273 98.3463 6.5167C98.3463 7.76041 98.0907 8.86781 97.5796 9.83892C97.0855 10.793 96.387 11.5341 95.484 12.0623C94.5981 12.5904 93.5929 12.8545 92.4685 12.8545C91.327 12.8545 90.3048 12.5904 89.4018 12.0623C88.4989 11.5341 87.7918 10.793 87.2807 9.83892C86.7866 8.86781 86.5396 7.76041 86.5396 6.5167C86.5396 5.273 86.7866 4.17411 87.2807 3.22003C87.7918 2.26596 88.4989 1.52485 89.4018 0.996701C90.3048 0.468553 91.327 0.204479 92.4685 0.204479ZM92.4685 3.24559C91.6166 3.24559 90.9352 3.56078 90.424 4.19115C89.93 4.80448 89.6829 5.57966 89.6829 6.5167C89.6829 7.48781 89.93 8.28003 90.424 8.89337C90.9352 9.48966 91.6166 9.78781 92.4685 9.78781C93.3033 9.78781 93.9763 9.48115 94.4874 8.86781C94.9985 8.25448 95.254 7.47078 95.254 6.5167C95.254 5.57966 94.9985 4.80448 94.4874 4.19115C93.9763 3.56078 93.3033 3.24559 92.4685 3.24559ZM99.4707 17.7867C98.8914 18.0593 98.1248 18.2723 97.1707 18.4256C96.2166 18.5619 95.1944 18.63 94.104 18.63H86.0029V15.4611H94.2318C95.2711 15.4611 96.2507 15.393 97.1707 15.2567C98.1077 15.1204 98.8744 14.916 99.4707 14.6434V17.7867Z" fill="var(--fill-0, #1E1307)"/>
<path id="Vector_23" d="M80.3834 19.6267V3.43323e-05H83.629V19.6267H80.3834ZM72.2056 0.306701C73.9945 0.306701 75.4001 1.08189 76.4223 2.63226C77.4616 4.16559 77.9812 6.48263 77.9812 9.58337C77.9812 12.6841 77.4616 15.0097 76.4223 16.56C75.4001 18.0934 73.9945 18.86 72.2056 18.86C70.3997 18.86 68.9771 18.0934 67.9378 16.56C66.9156 15.0097 66.4045 12.6841 66.4045 9.58337C66.4045 6.48263 66.9156 4.16559 67.9378 2.63226C68.9771 1.08189 70.3997 0.306701 72.2056 0.306701ZM72.2056 3.39892C71.4049 3.39892 70.766 3.893 70.289 4.88115C69.829 5.85226 69.599 7.41966 69.599 9.58337C69.599 11.7641 69.829 13.34 70.289 14.3111C70.766 15.2823 71.4049 15.7678 72.2056 15.7678C72.9893 15.7678 73.6197 15.2823 74.0967 14.3111C74.5738 13.323 74.8123 11.7471 74.8123 9.58337C74.8123 7.4367 74.5738 5.86929 74.0967 4.88115C73.6197 3.893 72.9893 3.39892 72.2056 3.39892Z" fill="var(--fill-0, #1E1307)"/>
<path id="Vector_24" d="M62.855 10.6823V19.6267H59.635V3.43323e-05H62.855V7.41115H65.1805V10.6823H62.855ZM51.6872 0.306701C53.4591 0.306701 54.8476 1.08189 55.8528 2.63226C56.875 4.16559 57.3861 6.48263 57.3861 9.58337C57.3861 12.6841 56.875 15.0097 55.8528 16.56C54.8476 18.0934 53.4591 18.86 51.6872 18.86C49.9154 18.86 48.5183 18.0934 47.4961 16.56C46.4739 15.0097 45.9628 12.6841 45.9628 9.58337C45.9628 6.48263 46.4739 4.16559 47.4961 2.63226C48.5183 1.08189 49.9154 0.306701 51.6872 0.306701ZM51.6872 15.7678C52.4539 15.7678 53.0587 15.2823 53.5017 14.3111C53.9446 13.34 54.1661 11.7641 54.1661 9.58337C54.1661 7.41966 53.9446 5.85226 53.5017 4.88115C53.0587 3.893 52.4539 3.39892 51.6872 3.39892C50.9035 3.39892 50.2817 3.893 49.8217 4.88115C49.3787 5.85226 49.1572 7.41966 49.1572 9.58337C49.1572 13.7063 50.0005 15.7678 51.6872 15.7678Z" fill="var(--fill-0, #1E1307)"/>
<path id="Vector_25" d="M34.8551 19.6267V3.43323e-05H38.1006V19.6267H34.8551ZM24.3517 11.0145V15.5889H28.8495C29.7184 15.5889 30.5873 15.5037 31.4562 15.3334C32.3421 15.146 33.0832 14.916 33.6795 14.6434V17.6845C33.1173 17.9741 32.3847 18.2041 31.4817 18.3745C30.5788 18.5448 29.6588 18.63 28.7217 18.63H21.1317V7.99892H28.6706V3.60337H21.1062V0.5367H31.8651V11.0145H24.3517Z" fill="var(--fill-0, #1E1307)"/>
<path id="Vector_26" d="M9.40444 10.8356C7.70074 10.8356 6.21 10.6141 4.93222 10.1711C3.65444 9.72818 2.65778 9.09781 1.94222 8.28004C1.2437 7.46226 0.894444 6.50818 0.894444 5.41781C0.894444 4.32744 1.2437 3.37337 1.94222 2.55559C2.65778 1.73781 3.65444 1.10744 4.93222 0.664479C6.21 0.221516 7.70074 3.43323e-05 9.40444 3.43323e-05C11.1081 3.43323e-05 12.5989 0.221516 13.8767 0.664479C15.1544 1.10744 16.1426 1.73781 16.8411 2.55559C17.5567 3.37337 17.9144 4.32744 17.9144 5.41781C17.9144 6.50818 17.5567 7.46226 16.8411 8.28004C16.1426 9.09781 15.1544 9.72818 13.8767 10.1711C12.5989 10.6141 11.1081 10.8356 9.40444 10.8356ZM9.40444 3.04115C7.88815 3.04115 6.65296 3.25411 5.69889 3.68003C4.76185 4.08892 4.29333 4.66818 4.29333 5.41781C4.29333 6.16744 4.76185 6.75522 5.69889 7.18115C6.65296 7.59003 7.88815 7.79448 9.40444 7.79448C10.9037 7.79448 12.1219 7.59003 13.0589 7.18115C14.013 6.75522 14.49 6.16744 14.49 5.41781C14.49 4.66818 14.0215 4.08892 13.0844 3.68003C12.1474 3.25411 10.9207 3.04115 9.40444 3.04115ZM11.0656 15.3589V20.0867H7.74333V15.3589H0V12.2156H18.8089V15.3589H11.0656Z" fill="var(--fill-0, #1E1307)"/>
</g>
</svg>
