<svg preserveAspectRatio="none" width="100%" height="100%" overflow="visible" style="display: block;" viewBox="0 0 75 75" fill="none" xmlns="http://www.w3.org/2000/svg">
<g id="Group 437">
<circle id="Ellipse 52" cx="37.5" cy="37.5" r="37.5" fill="var(--fill-0, #FFF2E1)"/>
<g id="Group">
<path id="Vector" d="M45.0182 31.1753C45.0182 29.7946 43.8989 28.6753 42.5182 28.6753H20.0257C18.645 28.6753 17.5258 29.7946 17.5258 31.1753V56.0953C17.5258 56.1967 17.4678 56.2402 17.5258 56.1678L24.4929 49.5335H42.5182C43.8989 49.5335 45.0182 48.4142 45.0182 47.0335V31.1753Z" fill="var(--fill-0, #FF6A00)"/>
<path id="Vector_2" d="M31.9818 21.0356C31.9818 19.6549 33.101 18.5356 34.4818 18.5356H56.9742C58.3549 18.5356 59.4742 19.6549 59.4742 21.0356V45.9556C59.4742 46.057 59.5322 46.1005 59.4742 46.0281L52.507 39.3939H34.4818C33.101 39.3939 31.9818 38.2746 31.9818 36.8939V21.0356Z" fill="var(--fill-0, #FFC472)"/>
</g>
</g>
</svg>
