<svg preserveAspectRatio="none" width="100%" height="100%" overflow="visible" style="display: block;" viewBox="0 0 602 44" fill="none" xmlns="http://www.w3.org/2000/svg">
<g id="&#236;&#150;&#184;&#236;&#150;&#180;&#236;&#187;&#168;&#236;&#132;&#164;&#237;&#140;&#133; &#236;&#157;&#180;&#235;&#160;&#135;&#234;&#178;&#140; &#236;&#167;&#132;&#237;&#150;&#137;&#235;&#144;&#169;&#235;&#139;&#136;&#235;&#139;&#164;.">
<path id="Vector" d="M598.23 41.7222C597.23 41.7222 596.378 41.3889 595.674 40.7222C594.97 40.0185 594.619 39.1481 594.619 38.1111C594.619 37.0741 594.97 36.2222 595.674 35.5556C596.378 34.8519 597.23 34.5 598.23 34.5C599.23 34.5 600.082 34.8519 600.785 35.5556C601.489 36.2222 601.841 37.0741 601.841 38.1111C601.841 39.1481 601.489 40.0185 600.785 40.7222C600.082 41.3889 599.23 41.7222 598.23 41.7222Z" fill="var(--fill-0, black)"/>
<path id="Vector_2" d="M586.569 22.8333V43.3333H581.569V0.666666H586.569V17.7778H592.18V22.8333H586.569ZM567.68 36.0556C569.606 36.0556 571.532 35.8704 573.458 35.5C575.384 35.1296 576.958 34.6296 578.18 34V38.7778C576.995 39.4074 575.402 39.9074 573.402 40.2778C571.439 40.6481 569.439 40.8333 567.402 40.8333H551.569V2.16666H575.013V6.94444H556.625V36.0556H567.68Z" fill="var(--fill-0, black)"/>
<path id="Vector_3" d="M538.686 43.3333V0.666666H543.742V43.3333H538.686ZM524.63 36C526.556 36 528.464 35.8148 530.353 35.4444C532.279 35.037 533.871 34.5185 535.13 33.8889V38.7222C533.908 39.3889 532.334 39.9074 530.408 40.2778C528.519 40.6481 526.593 40.8333 524.63 40.8333H507.964V1.88889H513.13V36H524.63Z" fill="var(--fill-0, black)"/>
<path id="Vector_4" d="M499.803 25.6667H494.803V0.666666H499.803V25.6667ZM491.525 23.2778C489.044 24.3889 484.655 24.9444 478.359 24.9444H461.692V20.7778H473.303V16.2222H464.025V1.38889H487.636V5.44444H468.914V12.1667H488.081V16.2222H478.192V20.7778C484.562 20.7778 489.007 20.2222 491.525 19.1111V23.2778ZM499.803 27.3333V42.8333H465.192V27.3333H470.192V31.1111H494.859V27.3333H499.803ZM494.859 35H470.192V38.8889H494.859V35Z" fill="var(--fill-0, black)"/>
<path id="Vector_5" d="M416.975 8.27778V4.27778H425.475V0H430.42V4.27778H438.587V8.27778H416.975ZM441.364 25.5556V0.888887H446.031V10.5H452.198V0.666666H456.864V27.0556H452.198V15.2222H446.031V25.5556H441.364ZM437.642 18.3333C437.642 20.7407 436.735 22.6667 434.92 24.1111C433.105 25.5185 430.809 26.2222 428.031 26.2222C425.253 26.2222 422.957 25.5185 421.142 24.1111C419.327 22.6667 418.42 20.7407 418.42 18.3333C418.42 15.9259 419.327 14.0185 421.142 12.6111C422.957 11.1667 425.253 10.4444 428.031 10.4444C430.809 10.4444 433.105 11.1667 434.92 12.6111C436.735 14.0185 437.642 15.9259 437.642 18.3333ZM422.92 18.3333C422.92 19.4815 423.383 20.4444 424.309 21.2222C425.272 22 426.512 22.3889 428.031 22.3889C429.55 22.3889 430.772 22 431.698 21.2222C432.661 20.4444 433.142 19.4815 433.142 18.3333C433.142 17.1852 432.661 16.2222 431.698 15.4444C430.772 14.6667 429.55 14.2778 428.031 14.2778C426.512 14.2778 425.272 14.6667 424.309 15.4444C423.383 16.2222 422.92 17.1852 422.92 18.3333ZM439.087 27.8333C444.568 27.8333 448.976 28.463 452.309 29.7222C455.642 30.9444 457.309 32.9074 457.309 35.6111C457.309 38.3148 455.642 40.2778 452.309 41.5C448.976 42.7593 444.568 43.3889 439.087 43.3889C433.605 43.3889 429.198 42.7593 425.864 41.5C422.568 40.2778 420.92 38.3148 420.92 35.6111C420.92 32.9074 422.568 30.9444 425.864 29.7222C429.198 28.463 433.605 27.8333 439.087 27.8333ZM439.087 39.2778C442.864 39.2778 445.957 38.9815 448.364 38.3889C450.809 37.7593 452.031 36.8333 452.031 35.6111C452.031 34.3889 450.809 33.4815 448.364 32.8889C445.957 32.2593 442.864 31.9444 439.087 31.9444C435.309 31.9444 432.198 32.2593 429.753 32.8889C427.346 33.4815 426.142 34.3889 426.142 35.6111C426.142 36.8333 427.346 37.7593 429.753 38.3889C432.198 38.9815 435.309 39.2778 439.087 39.2778Z" fill="var(--fill-0, black)"/>
<path id="Vector_6" d="M406.703 32.3333V0.666666H411.759V32.3333H406.703ZM388.37 16.4444C386.926 19.1481 385.037 21.3333 382.703 23C380.37 24.6296 377.722 25.6111 374.759 25.9444V21.1111C378.055 20.6296 380.722 19.0556 382.759 16.3889C384.796 13.6852 385.944 10.2963 386.203 6.22222H375.259V1.66667H401.537V6.22222H391.259C391.222 8.2963 390.907 10.2593 390.315 12.1111L402.815 21.7222L400.037 25.6111L388.37 16.4444ZM412.759 42.8333H377.148V29.1111H382.203V38.0556H412.759V42.8333Z" fill="var(--fill-0, black)"/>
<path id="Vector_7" d="M357.89 43.3333H353.056V0.666666H357.89V43.3333ZM347.668 0.888887V42.6111H342.89V22.6667H335.89C334.853 28.2963 332.89 32.7222 330.001 35.9444C327.112 39.1296 323.668 40.7222 319.668 40.7222V35.7778C322.112 35.7037 324.242 34.7778 326.056 33C327.908 31.1852 329.316 28.6481 330.279 25.3889C331.279 22.1296 331.779 18.3333 331.779 14V6.94444H319.668V2.16666H336.612V13.7222C336.612 15.0926 336.556 16.4259 336.445 17.7222H342.89V0.888887H347.668Z" fill="var(--fill-0, black)"/>
<path id="Vector_8" d="M301.229 11.3333V6.72222H308.062V0.666666H313.062V23.1667H308.062V11.3333H301.229ZM293.673 5.44444H276.284V1.66667H298.618V13.1111H281.284V17.1667H290.951C293.581 17.1667 295.988 17 298.173 16.6667C300.359 16.3333 302.099 15.8704 303.396 15.2778V19.1111C302.173 19.7037 300.433 20.1667 298.173 20.5C295.914 20.8333 293.396 21 290.618 21H276.396V9.5H293.673V5.44444ZM314.229 29.8333H277.34V26.0556H293.284V22.7222H298.34V26.0556H314.229V29.8333ZM295.784 32C301.673 32 305.951 32.463 308.618 33.3889C311.284 34.3148 312.618 35.7778 312.618 37.7778C312.618 39.7778 311.284 41.2407 308.618 42.1667C305.951 43.0926 301.673 43.5556 295.784 43.5556C289.933 43.5556 285.673 43.0926 283.007 42.1667C280.34 41.2407 279.007 39.7778 279.007 37.7778C279.007 35.7778 280.34 34.3148 283.007 33.3889C285.673 32.463 289.933 32 295.784 32ZM295.784 40.1111C299.784 40.1111 302.747 39.9259 304.673 39.5556C306.599 39.1852 307.562 38.5926 307.562 37.7778C307.562 36.963 306.599 36.3704 304.673 36C302.747 35.6296 299.784 35.4444 295.784 35.4444C291.822 35.4444 288.877 35.6296 286.951 36C285.062 36.3704 284.118 36.963 284.118 37.7778C284.118 38.5926 285.062 39.1852 286.951 39.5556C288.877 39.9259 291.822 40.1111 295.784 40.1111Z" fill="var(--fill-0, black)"/>
<path id="Vector_9" d="M263.735 43.3333V0.666666H268.79V43.3333H263.735ZM244.79 1.61111C248.568 1.61111 251.55 3.27778 253.735 6.61111C255.957 9.94444 257.068 14.9074 257.068 21.5C257.068 28.0926 255.957 33.0556 253.735 36.3889C251.55 39.7222 248.568 41.3889 244.79 41.3889C241.013 41.3889 238.013 39.7222 235.79 36.3889C233.568 33.0556 232.457 28.0926 232.457 21.5C232.457 14.9074 233.568 9.94444 235.79 6.61111C238.013 3.27778 241.013 1.61111 244.79 1.61111ZM244.79 6.44445C242.531 6.44445 240.735 7.68519 239.401 10.1667C238.068 12.6111 237.401 16.3889 237.401 21.5C237.401 26.6111 238.068 30.4074 239.401 32.8889C240.735 35.3333 242.531 36.5556 244.79 36.5556C246.976 36.5556 248.735 35.3148 250.068 32.8333C251.401 30.3519 252.068 26.5741 252.068 21.5C252.068 16.4259 251.401 12.6481 250.068 10.1667C248.735 7.68519 246.976 6.44445 244.79 6.44445Z" fill="var(--fill-0, black)"/>
<path id="Vector_10" d="M208.754 26.0556V0.666666H213.81V26.0556H208.754ZM205.643 22.2778C204.421 22.8704 202.68 23.3333 200.421 23.6667C198.162 24 195.625 24.1667 192.81 24.1667H177.588V1.66667H202.81V5.77778H182.588V10.9444H201.977V14.8333H182.588V20H193.199C195.865 20 198.291 19.8519 200.477 19.5556C202.662 19.2222 204.384 18.7593 205.643 18.1667V22.2778ZM196.643 27.3333C202.051 27.3333 206.347 27.9815 209.532 29.2778C212.754 30.537 214.365 32.5741 214.365 35.3889C214.365 38.2037 212.754 40.2407 209.532 41.5C206.347 42.7593 202.051 43.3889 196.643 43.3889C191.273 43.3889 186.977 42.7593 183.754 41.5C180.569 40.2407 178.977 38.2037 178.977 35.3889C178.977 32.5741 180.569 30.537 183.754 29.2778C186.977 27.9815 191.273 27.3333 196.643 27.3333ZM196.643 39.2222C200.347 39.2222 203.328 38.9074 205.588 38.2778C207.884 37.6481 209.032 36.6852 209.032 35.3889C209.032 34.0556 207.902 33.0741 205.643 32.4444C203.384 31.8148 200.384 31.5 196.643 31.5C192.939 31.5 189.958 31.8148 187.699 32.4444C185.44 33.0741 184.31 34.0556 184.31 35.3889C184.31 36.7222 185.44 37.7037 187.699 38.3333C189.958 38.9259 192.939 39.2222 196.643 39.2222Z" fill="var(--fill-0, black)"/>
<path id="Vector_11" d="M155.538 11.0556V6.38889H165.094V0.666666H170.094V21.9444H165.094V11.0556H155.538ZM145.316 13.2778C143.834 15.537 141.945 17.3889 139.649 18.8333C137.39 20.2778 134.797 21.2222 131.871 21.6667V16.9444C134.316 16.5 136.427 15.5185 138.205 14C140.019 12.4815 141.408 10.5926 142.371 8.33333C143.334 6.07407 143.834 3.62963 143.871 0.999999L148.927 1.33333C148.927 4.14815 148.445 6.83333 147.482 9.38889L159.594 17.3889L156.982 21.1111L145.316 13.2778ZM170.982 42.8333H135.482V31.7222H165.094V28.0556H135.427V24.1667H170.094V35.2222H140.482V39H170.982V42.8333Z" fill="var(--fill-0, black)"/>
<path id="Vector_12" d="M111.711 15.8333C108.896 22.9074 101.34 26.4444 89.0438 26.4444V22.1111C93.4883 22.1111 97.1919 21.6111 100.155 20.6111C103.155 19.5741 105.303 17.9259 106.599 15.6667H89.0438V11.4444H108.044C108.155 10.6667 108.211 9.85185 108.211 9V5.94444H89.0438V1.66667H113.044V8.72222C113.044 9.53704 112.988 10.2778 112.877 10.9444H121.099V0.666666H126.099V32.3333H121.099V15.8333H111.711ZM126.988 42.8333H91.3771V29.3333H96.4327V38.0556H126.988V42.8333Z" fill="var(--fill-0, black)"/>
<path id="Vector_13" d="M82.1052 43.3333H77.1052V23.1667H69.4941C69.309 29.1667 68.1238 33.7037 65.9386 36.7778C63.7905 39.8519 60.9386 41.3889 57.383 41.3889C53.6793 41.3889 50.7349 39.7222 48.5497 36.3889C46.3645 33.0556 45.2719 28.0926 45.2719 21.5C45.2719 14.9074 46.3645 9.94444 48.5497 6.61111C50.7349 3.27778 53.6793 1.61111 57.383 1.61111C60.7904 1.61111 63.5497 3 65.6608 5.77778C67.8089 8.55556 69.0682 12.7037 69.4386 18.2222H77.1052V0.666666H82.1052V43.3333ZM57.383 36.5556C59.5682 36.5556 61.3089 35.3333 62.6052 32.8889C63.9015 30.4074 64.5497 26.6111 64.5497 21.5C64.5497 16.3889 63.9015 12.6111 62.6052 10.1667C61.3089 7.68519 59.5682 6.44445 57.383 6.44445C55.2348 6.44445 53.5127 7.68519 52.2164 10.1667C50.9201 12.6111 50.2719 16.3889 50.2719 21.5C50.2719 26.6111 50.9201 30.4074 52.2164 32.8889C53.5127 35.3333 55.2348 36.5556 57.383 36.5556Z" fill="var(--fill-0, black)"/>
<path id="Vector_14" d="M25.1666 15.6667C24.7222 18.7037 23.3888 21.1852 21.1666 23.1111C18.9444 25 16.1296 25.9444 12.7222 25.9444C10.1667 25.9444 7.92593 25.4259 6 24.3889C4.07407 23.3148 2.59258 21.8333 1.55554 19.9444C0.518505 18.0556 0 15.9074 0 13.5C0 11.0926 0.518505 8.94444 1.55554 7.05555C2.59258 5.16666 4.07407 3.7037 6 2.66667C7.92593 1.59259 10.1667 1.05555 12.7222 1.05555C16.0556 1.05555 18.8148 1.94444 21 3.72222C23.1852 5.5 24.5555 7.83333 25.1111 10.7222H33.1111V0.666666H38.1111V32.3889H33.1111V15.6667H25.1666ZM5 13.5C5 15.9444 5.70368 17.8889 7.11108 19.3333C8.51849 20.7778 10.3889 21.5 12.7222 21.5C15.0556 21.5 16.9074 20.7778 18.2778 19.3333C19.6852 17.8889 20.3889 15.9444 20.3889 13.5C20.3889 11.0556 19.6852 9.11111 18.2778 7.66667C16.9074 6.22222 15.0556 5.5 12.7222 5.5C10.3889 5.5 8.51849 6.22222 7.11108 7.66667C5.70368 9.11111 5 11.0556 5 13.5ZM38.9445 42.8333H3.88885V28.7778H8.94446V38.0556H38.9445V42.8333Z" fill="var(--fill-0, black)"/>
</g>
</svg>
