<svg preserveAspectRatio="none" width="100%" height="100%" overflow="visible" style="display: block;" viewBox="0 0 179 55" fill="none" xmlns="http://www.w3.org/2000/svg">
<g id="&#236;&#150;&#184;&#236;&#150;&#180;&#236;&#187;&#168;&#236;&#132;&#164;&#237;&#140;&#133; &#236;&#157;&#180;&#235;&#160;&#135;&#234;&#178;&#140; &#236;&#167;&#132;&#237;&#150;&#137;&#235;&#144;&#169;&#235;&#139;&#136;&#235;&#139;&#164;.">
<path id="Vector" d="M176.131 53.76C175.491 53.76 174.949 53.5467 174.504 53.12C174.06 52.6756 173.838 52.1156 173.838 51.44C173.838 50.7644 174.051 50.2133 174.478 49.7867C174.922 49.36 175.473 49.1467 176.131 49.1467C176.789 49.1467 177.331 49.36 177.758 49.7867C178.202 50.2133 178.424 50.7644 178.424 51.44C178.424 52.1156 178.202 52.6756 177.758 53.12C177.313 53.5467 176.771 53.76 176.131 53.76Z" fill="var(--fill-0, #1E1307)"/>
<path id="Vector_2" d="M170.507 45.1467V54.48H167.147V34H170.507V41.7333H172.934V45.1467H170.507ZM160.96 50.24C161.885 50.24 162.809 50.1511 163.734 49.9733C164.658 49.7956 165.414 49.5644 166 49.28V52.48C165.449 52.7822 164.676 53.0222 163.68 53.2C162.703 53.36 161.716 53.44 160.72 53.44H153.174V34.56H164.48V37.76H156.587V50.24H160.96Z" fill="var(--fill-0, #1E1307)"/>
<path id="Vector_3" d="M146.563 54.48V34H149.95V54.48H146.563ZM140.297 50.2133C141.203 50.2133 142.119 50.1244 143.043 49.9467C143.968 49.7689 144.732 49.5289 145.337 49.2267V52.4533C144.75 52.7733 143.994 53.0222 143.07 53.2C142.163 53.36 141.239 53.44 140.297 53.44H132.243V34.4267H135.737V50.2133H140.297Z" fill="var(--fill-0, #1E1307)"/>
<path id="Vector_4" d="M128.859 46.0267H125.499V34H128.859V46.0267ZM124.246 45.0933C123.09 45.6089 121.25 45.8667 118.726 45.8667H110.193V43.1733H115.259V41.6H111.153V34.2133H122.646V36.8267H114.433V38.96H122.859V41.6H118.539V43.1733C121.17 43.1733 123.073 42.9156 124.246 42.4V45.0933ZM128.859 46.8267V54.4H111.713V46.8267H115.073V48.0533H125.553V46.8267H128.859ZM125.553 50.56H115.073V51.84H125.553V50.56Z" fill="var(--fill-0, #1E1307)"/>
<path id="Vector_5" d="M88.6489 38V35.3867H92.2755V33.68H95.6089V35.3867H99.0755V38H88.6489ZM100.062 45.92V34.08H103.129V38.3467H105.156V34H108.249V46.64H105.156V41.4933H103.129V45.92H100.062ZM98.7555 42.48C98.7555 43.6356 98.3022 44.56 97.3955 45.2533C96.4889 45.9467 95.36 46.2933 94.0089 46.2933C92.64 46.2933 91.5022 45.9467 90.5955 45.2533C89.7066 44.56 89.2622 43.6356 89.2622 42.48C89.2622 41.3244 89.7066 40.4 90.5955 39.7067C91.5022 39.0133 92.64 38.6667 94.0089 38.6667C95.36 38.6667 96.4889 39.0133 97.3955 39.7067C98.3022 40.4 98.7555 41.3244 98.7555 42.48ZM92.2222 42.48C92.2222 42.8711 92.3911 43.2 92.7289 43.4667C93.0666 43.7156 93.4933 43.84 94.0089 43.84C94.5244 43.84 94.9511 43.7156 95.2889 43.4667C95.6266 43.2 95.7955 42.8711 95.7955 42.48C95.7955 42.0889 95.6266 41.7689 95.2889 41.52C94.9511 41.2711 94.5244 41.1467 94.0089 41.1467C93.4933 41.1467 93.0666 41.2711 92.7289 41.52C92.3911 41.7689 92.2222 42.0889 92.2222 42.48ZM99.3689 46.8C102.124 46.8 104.32 47.1111 105.956 47.7333C107.591 48.3556 108.409 49.3511 108.409 50.72C108.409 52.1067 107.591 53.1022 105.956 53.7067C104.32 54.3289 102.124 54.64 99.3689 54.64C96.6133 54.64 94.4177 54.3289 92.7822 53.7067C91.1466 53.1022 90.3289 52.1067 90.3289 50.72C90.3289 49.3511 91.1466 48.3556 92.7822 47.7333C94.4177 47.1111 96.6133 46.8 99.3689 46.8ZM99.3689 51.9733C100.969 51.9733 102.284 51.8667 103.316 51.6533C104.347 51.44 104.862 51.1289 104.862 50.72C104.862 50.3111 104.347 50 103.316 49.7867C102.284 49.5733 100.969 49.4667 99.3689 49.4667C97.7689 49.4667 96.4533 49.5733 95.4222 49.7867C94.3911 50 93.8755 50.3111 93.8755 50.72C93.8755 51.1289 94.3911 51.44 95.4222 51.6533C96.4533 51.8667 97.7689 51.9733 99.3689 51.9733Z" fill="var(--fill-0, #1E1307)"/>
<path id="Vector_6" d="M83.2117 49.1733V34H86.5983V49.1733H83.2117ZM75.0783 42.32C74.3139 43.4933 73.3628 44.4356 72.225 45.1467C71.0872 45.84 69.8161 46.2222 68.4117 46.2933V43.0667C69.7983 42.9244 70.9272 42.32 71.7983 41.2533C72.6872 40.1867 73.2117 38.88 73.3717 37.3333H68.705V34.32H81.2917V37.3333H76.785C76.7672 38.0444 76.6428 38.7644 76.4117 39.4933L82.0383 43.5733L80.1717 46.1333L75.0783 42.32ZM86.945 54.4H69.4517V47.4133H72.8917V51.2267H86.945V54.4Z" fill="var(--fill-0, #1E1307)"/>
<path id="Vector_7" d="M60.741 54.48H57.541V34H60.741V54.48ZM55.7277 34.08V54.1333H52.5277V45.0933H49.8877C49.3366 47.76 48.3499 49.8133 46.9277 51.2533C45.5055 52.6933 43.8344 53.4133 41.9144 53.4133V50.1067C42.9633 50.0356 43.8699 49.6267 44.6344 48.88C45.4166 48.1333 46.021 47.0578 46.4477 45.6533C46.8744 44.2489 47.0877 42.5778 47.0877 40.64V37.76H41.9144V34.56H50.3144V40.48L50.2877 41.7333H52.5277V34.08H55.7277Z" fill="var(--fill-0, #1E1307)"/>
<path id="Vector_8" d="M33.1172 39.5467V36.4533H35.8372V34H39.1972V44.7733H35.8372V39.5467H33.1172ZM28.8239 36.7733H21.0372V34.32H32.1305V40.2667H24.3972V41.4667H28.9572C29.9883 41.4667 30.9394 41.4044 31.8105 41.28C32.6994 41.1378 33.4105 40.9511 33.9439 40.72V43.1733C33.4105 43.4222 32.6816 43.6178 31.7572 43.76C30.8505 43.8844 29.8639 43.9467 28.7972 43.9467H21.0905V38H28.8239V36.7733ZM39.5972 48.24H21.6772V45.84H28.9305V44.6133H32.3439V45.84H39.5972V48.24ZM30.6372 48.9333C33.5527 48.9333 35.6594 49.1556 36.9572 49.6C38.2727 50.0444 38.9305 50.7822 38.9305 51.8133C38.9305 52.8267 38.2727 53.5556 36.9572 54C35.6594 54.4444 33.5527 54.6667 30.6372 54.6667C27.7394 54.6667 25.6327 54.4444 24.3172 54C23.0194 53.5556 22.3705 52.8267 22.3705 51.8133C22.3705 50.8 23.0194 50.0711 24.3172 49.6267C25.615 49.1644 27.7216 48.9333 30.6372 48.9333ZM30.6372 52.5067C32.3794 52.5067 33.6239 52.4533 34.3705 52.3467C35.135 52.24 35.5172 52.0622 35.5172 51.8133C35.5172 51.5644 35.1439 51.3867 34.3972 51.28C33.6505 51.1733 32.3972 51.12 30.6372 51.12C28.8772 51.12 27.6327 51.1733 26.9039 51.28C26.175 51.3867 25.8105 51.5644 25.8105 51.8133C25.8105 52.0622 26.175 52.24 26.9039 52.3467C27.6505 52.4533 28.895 52.5067 30.6372 52.5067Z" fill="var(--fill-0, #1E1307)"/>
<path id="Vector_9" d="M14.5867 54.48V34H17.9733V54.48H14.5867ZM6.05334 34.32C7.92 34.32 9.38667 35.1289 10.4533 36.7467C11.5378 38.3467 12.08 40.7644 12.08 44C12.08 47.2356 11.5378 49.6622 10.4533 51.28C9.38667 52.88 7.92 53.68 6.05334 53.68C4.16889 53.68 2.68445 52.88 1.6 51.28C0.533337 49.6622 3.33786e-06 47.2356 3.33786e-06 44C3.33786e-06 40.7644 0.533337 38.3467 1.6 36.7467C2.68445 35.1289 4.16889 34.32 6.05334 34.32ZM6.05334 37.5467C5.21778 37.5467 4.55111 38.0622 4.05334 39.0933C3.57334 40.1067 3.33334 41.7422 3.33334 44C3.33334 46.2756 3.57334 47.92 4.05334 48.9333C4.55111 49.9467 5.21778 50.4533 6.05334 50.4533C6.87111 50.4533 7.52889 49.9467 8.02667 48.9333C8.52445 47.9022 8.77334 46.2578 8.77334 44C8.77334 41.76 8.52445 40.1244 8.02667 39.0933C7.52889 38.0622 6.87111 37.5467 6.05334 37.5467Z" fill="var(--fill-0, #1E1307)"/>
<path id="Vector_10" d="M137.363 12.1867V0H139.789V12.1867H137.363ZM135.869 10.3733C135.283 10.6578 134.447 10.88 133.363 11.04C132.278 11.2 131.06 11.28 129.709 11.28H122.403V0.48H134.509V2.45333H124.803V4.93333H134.109V6.8H124.803V9.28H129.896C131.176 9.28 132.34 9.20889 133.389 9.06667C134.438 8.90667 135.265 8.68444 135.869 8.4V10.3733ZM131.549 12.8C134.145 12.8 136.207 13.1111 137.736 13.7333C139.283 14.3378 140.056 15.3156 140.056 16.6667C140.056 18.0178 139.283 18.9956 137.736 19.6C136.207 20.2044 134.145 20.5067 131.549 20.5067C128.972 20.5067 126.909 20.2044 125.363 19.6C123.834 18.9956 123.069 18.0178 123.069 16.6667C123.069 15.3156 123.834 14.3378 125.363 13.7333C126.909 13.1111 128.972 12.8 131.549 12.8ZM131.549 18.5067C133.327 18.5067 134.758 18.3556 135.843 18.0533C136.945 17.7511 137.496 17.2889 137.496 16.6667C137.496 16.0267 136.954 15.5556 135.869 15.2533C134.785 14.9511 133.345 14.8 131.549 14.8C129.772 14.8 128.34 14.9511 127.256 15.2533C126.172 15.5556 125.629 16.0267 125.629 16.6667C125.629 17.3067 126.172 17.7778 127.256 18.08C128.34 18.3644 129.772 18.5067 131.549 18.5067Z" fill="var(--fill-0, #1E1307)"/>
<path id="Vector_11" d="M111.819 4.98667V2.74667H116.406V0H118.806V10.2133H116.406V4.98667H111.819ZM106.912 6.05333C106.201 7.13778 105.294 8.02667 104.192 8.72C103.108 9.41333 101.863 9.86667 100.459 10.08V7.81333C101.632 7.6 102.646 7.12889 103.499 6.4C104.37 5.67111 105.037 4.76444 105.499 3.68C105.961 2.59556 106.201 1.42222 106.219 0.16L108.646 0.32C108.646 1.67111 108.414 2.96 107.952 4.18667L113.766 8.02667L112.512 9.81333L106.912 6.05333ZM119.232 20.24H102.192V14.9067H116.406V13.1467H102.166V11.28H118.806V16.5867H104.592V18.4H119.232V20.24Z" fill="var(--fill-0, #1E1307)"/>
<path id="Vector_12" d="M90.7817 7.28C89.4306 10.6756 85.8039 12.3733 79.9017 12.3733V10.2933C82.035 10.2933 83.8128 10.0533 85.235 9.57333C86.675 9.07556 87.7061 8.28445 88.3283 7.2H79.9017V5.17333H89.0217C89.075 4.8 89.1017 4.40889 89.1017 4V2.53333H79.9017V0.48H91.4217V3.86667C91.4217 4.25778 91.395 4.61333 91.3417 4.93333H95.2883V0H97.6883V15.2H95.2883V7.28H90.7817ZM98.115 20.24H81.0217V13.76H83.4483V17.9467H98.115V20.24Z" fill="var(--fill-0, #1E1307)"/>
<path id="Vector_13" d="M76.5712 20.48H74.1712V10.8H70.5178C70.4289 13.68 69.86 15.8578 68.8111 17.3333C67.78 18.8089 66.4111 19.5467 64.7045 19.5467C62.9267 19.5467 61.5134 18.7467 60.4645 17.1467C59.4156 15.5467 58.8911 13.1644 58.8911 10C58.8911 6.83556 59.4156 4.45333 60.4645 2.85333C61.5134 1.25333 62.9267 0.453333 64.7045 0.453333C66.34 0.453333 67.6645 1.12 68.6778 2.45333C69.7089 3.78667 70.3134 5.77778 70.4911 8.42667H74.1712V0H76.5712V20.48ZM64.7045 17.2267C65.7534 17.2267 66.5889 16.64 67.2112 15.4667C67.8334 14.2756 68.1445 12.4533 68.1445 10C68.1445 7.54667 67.8334 5.73333 67.2112 4.56C66.5889 3.36889 65.7534 2.77333 64.7045 2.77333C63.6734 2.77333 62.8467 3.36889 62.2245 4.56C61.6023 5.73333 61.2911 7.54667 61.2911 10C61.2911 12.4533 61.6023 14.2756 62.2245 15.4667C62.8467 16.64 63.6734 17.2267 64.7045 17.2267Z" fill="var(--fill-0, #1E1307)"/>
<path id="Vector_14" d="M49.2406 7.2C49.0273 8.65778 48.3873 9.84889 47.3206 10.7733C46.254 11.68 44.9029 12.1333 43.2673 12.1333C42.0406 12.1333 40.9651 11.8844 40.0406 11.3867C39.1162 10.8711 38.4051 10.16 37.9073 9.25333C37.4095 8.34667 37.1606 7.31556 37.1606 6.16C37.1606 5.00444 37.4095 3.97333 37.9073 3.06667C38.4051 2.16 39.1162 1.45778 40.0406 0.960001C40.9651 0.444444 42.0406 0.186666 43.2673 0.186666C44.8673 0.186666 46.1917 0.613333 47.2406 1.46667C48.2895 2.32 48.9473 3.44 49.214 4.82667H53.054V0H55.454V15.2267H53.054V7.2H49.2406ZM39.5606 6.16C39.5606 7.33333 39.8984 8.26667 40.574 8.96C41.2495 9.65333 42.1473 10 43.2673 10C44.3873 10 45.2762 9.65333 45.934 8.96C46.6095 8.26667 46.9473 7.33333 46.9473 6.16C46.9473 4.98667 46.6095 4.05333 45.934 3.36C45.2762 2.66667 44.3873 2.32 43.2673 2.32C42.1473 2.32 41.2495 2.66667 40.574 3.36C39.8984 4.05333 39.5606 4.98667 39.5606 6.16ZM55.854 20.24H39.0273V13.4933H41.454V17.9467H55.854V20.24Z" fill="var(--fill-0, #1E1307)"/>
</g>
</svg>
