<svg preserveAspectRatio="none" width="100%" height="100%" overflow="visible" style="display: block;" viewBox="0 0 150 150" fill="none" xmlns="http://www.w3.org/2000/svg">
<g id="Group 437">
<circle id="Ellipse 52" cx="75" cy="75" r="75" fill="var(--fill-0, #FFF2E1)"/>
<g id="Group">
<path id="Vector" d="M90.0364 62.3511C90.0364 59.5897 87.7978 57.3511 85.0364 57.3511H40.0515C37.2901 57.3511 35.0515 59.5897 35.0515 62.3511V112.191C35.0515 112.394 34.9356 112.481 35.0515 112.336L48.9858 99.0676H85.0364C87.7978 99.0676 90.0364 96.829 90.0364 94.0676V62.3511Z" fill="var(--fill-0, #FF6A00)"/>
<path id="Vector_2" d="M63.9636 42.0717C63.9636 39.3103 66.2021 37.0717 68.9636 37.0717H113.948C116.71 37.0717 118.948 39.3103 118.948 42.0717V91.9117C118.948 92.1144 119.064 92.2015 118.948 92.0567L105.014 78.7882H68.9636C66.2021 78.7882 63.9636 76.5496 63.9636 73.7882V42.0717Z" fill="var(--fill-0, #FFC472)"/>
</g>
</g>
</svg>
