<svg preserveAspectRatio="none" width="100%" height="100%" overflow="visible" style="display: block;" viewBox="0 0 17 12" fill="none" xmlns="http://www.w3.org/2000/svg">
<g id="01">
<path id="Vector" d="M16.3549 11.8167H14.3716V1.76667H11.8383V0.15H16.3549V11.8167Z" fill="var(--fill-0, #FF7300)"/>
<path id="Vector_2" d="M4.83337 11.9667C3.90004 11.9667 3.06671 11.7278 2.33337 11.25C1.60004 10.7722 1.02782 10.0833 0.616708 9.18333C0.205596 8.28333 4.1008e-05 7.21667 4.1008e-05 5.98333C4.1008e-05 4.75 0.205596 3.68333 0.616708 2.78333C1.02782 1.88333 1.60004 1.19444 2.33337 0.716666C3.06671 0.238889 3.90004 0 4.83337 0C5.77782 0 6.61115 0.238889 7.33337 0.716666C8.06671 1.19444 8.63893 1.88333 9.05004 2.78333C9.46115 3.68333 9.66671 4.75 9.66671 5.98333C9.66671 7.21667 9.46115 8.28333 9.05004 9.18333C8.63893 10.0833 8.06671 10.7722 7.33337 11.25C6.61115 11.7278 5.77782 11.9667 4.83337 11.9667ZM4.83337 10.2833C5.70004 10.2833 6.38893 9.91667 6.90004 9.18333C7.41115 8.45 7.66671 7.38333 7.66671 5.98333C7.66671 4.58333 7.41115 3.51667 6.90004 2.78333C6.38893 2.05 5.70004 1.68333 4.83337 1.68333C3.96671 1.68333 3.27782 2.05 2.76671 2.78333C2.26671 3.51667 2.01671 4.58333 2.01671 5.98333C2.01671 7.38333 2.26671 8.45 2.76671 9.18333C3.27782 9.91667 3.96671 10.2833 4.83337 10.2833Z" fill="var(--fill-0, #FF7300)"/>
</g>
</svg>
