<svg preserveAspectRatio="none" width="100%" height="100%" overflow="visible" style="display: block;" viewBox="0 0 41 43" fill="none" xmlns="http://www.w3.org/2000/svg">
<g id="Group 436">
<path id="Rectangle 4304" d="M41 33.1593V13.0676H0.081665V39.0397C0.081665 41.2049 1.83685 42.9601 4.00199 42.9601H30.9542L41 33.1593Z" fill="var(--fill-0, white)"/>
<path id="Rectangle 4305" d="M0 7.02383C0 4.8587 1.75519 3.10352 3.92032 3.10352H37.0797C39.2448 3.10352 41 4.8587 41 7.02383V13.0677H0V7.02383Z" fill="var(--fill-0, #FDAEB3)"/>
<rect id="Rectangle 4306" x="6.37048" width="3.10359" height="6.20717" rx="1.55179" fill="var(--fill-0, #4B596A)"/>
<rect id="Rectangle 4307" x="31.3625" width="3.10359" height="6.20717" rx="1.55179" fill="var(--fill-0, #4B596A)"/>
<path id="Vector 20" d="M40.9184 33.0776L30.9542 42.8784L31.1435 35.3073C31.1745 34.067 32.1889 33.0776 33.4296 33.0776H40.9184Z" fill="var(--fill-0, #F1F1F1)"/>
<g id="24">
<path id="Vector" d="M29.3704 30.7411C30.3346 30.7411 30.5114 31.2232 30.5114 31.7214C30.5114 32.2678 30.3025 32.7338 29.3704 32.7338H28.599V33.8266C28.599 34.3247 28.3419 35.0479 27.201 35.0479C26.06 35.0479 25.8029 34.3247 25.8029 33.8266V32.7338H20.9658C20.0337 32.7338 19.9212 31.7053 20.2748 31.0947L24.678 23.4132C25.0797 22.7383 25.7707 22.6418 26.3974 22.9311C27.1688 23.2846 27.2813 24.0239 26.8796 24.6988L23.3281 30.7411H25.8029V28.2824C25.8029 27.5914 26.1725 26.9647 27.201 26.9647C28.2134 26.9647 28.599 27.5753 28.599 28.2824V30.7411H29.3704Z" fill="var(--fill-0, #FB5D6A)"/>
<path id="Vector_2" d="M18.2144 33.0392C19.034 33.0392 19.3393 33.5213 19.3393 34.0677C19.3393 34.4855 19.0983 35.048 18.2144 35.048H11.8025C10.9347 35.048 10.4847 34.4052 10.4847 33.7463C10.4847 33.5053 10.5812 33.216 10.774 32.9107C11.4007 32.059 12.4935 31.0466 13.538 30.1145C15.0647 28.7485 16.4306 27.4951 16.4306 26.338C16.4306 25.6631 16.3021 24.8114 15.0486 24.8114C14.1808 24.8114 13.3934 25.2292 13.3934 26.1452C13.3934 26.6273 12.9756 27.0451 12.14 27.0451C11.465 27.0451 10.8222 26.7398 10.8222 25.872C10.8222 23.9918 12.831 22.7705 14.9683 22.7705C17.6198 22.7705 19.1465 24.1365 19.1465 26.2095C19.1465 28.0736 17.7323 29.4556 15.9968 31.0305C15.3057 31.6572 14.6147 32.2357 13.9077 33.0392H18.2144Z" fill="var(--fill-0, #FB5D6A)"/>
</g>
</g>
</svg>
