<svg preserveAspectRatio="none" width="100%" height="100%" overflow="visible" style="display: block;" viewBox="0 0 132 55" fill="none" xmlns="http://www.w3.org/2000/svg">
<g id="&#236;&#157;&#180;&#235;&#159;&#176;&#235;&#182;&#132;&#235;&#147;&#164;&#236;&#151;&#144;&#234;&#178;&#140; &#234;&#182;&#140;&#237;&#149;&#180;&#235;&#147;&#156;&#235;&#166;&#189;&#235;&#139;&#136;&#235;&#139;&#164;.">
<path id="Vector" d="M129.29 53.76C128.65 53.76 128.108 53.5467 127.663 53.12C127.219 52.6756 126.996 52.1156 126.996 51.44C126.996 50.7644 127.21 50.2133 127.636 49.7867C128.081 49.36 128.632 49.1467 129.29 49.1467C129.948 49.1467 130.49 49.36 130.916 49.7867C131.361 50.2133 131.583 50.7644 131.583 51.44C131.583 52.1156 131.361 52.6756 130.916 53.12C130.472 53.5467 129.93 53.76 129.29 53.76Z" fill="var(--fill-0, #1E1307)"/>
<path id="Vector_2" d="M123.666 45.1467V54.48H120.306V34H123.666V41.7333H126.093V45.1467H123.666ZM114.119 50.24C115.044 50.24 115.968 50.1511 116.893 49.9733C117.817 49.7956 118.573 49.5644 119.159 49.28V52.48C118.608 52.7822 117.835 53.0222 116.839 53.2C115.861 53.36 114.875 53.44 113.879 53.44H106.333V34.56H117.639V37.76H109.746V50.24H114.119Z" fill="var(--fill-0, #1E1307)"/>
<path id="Vector_3" d="M99.7221 54.48V34H103.109V54.48H99.7221ZM93.4554 50.2133C94.3621 50.2133 95.2776 50.1244 96.2021 49.9467C97.1265 49.7689 97.891 49.5289 98.4954 49.2267V52.4533C97.9087 52.7733 97.1532 53.0222 96.2288 53.2C95.3221 53.36 94.3976 53.44 93.4554 53.44H85.4021V34.4267H88.8954V50.2133H93.4554Z" fill="var(--fill-0, #1E1307)"/>
<path id="Vector_4" d="M81.9916 45.4133H78.6049V34H81.9916V45.4133ZM72.4716 36.9867H64.0182V34.32H75.8049V41.04H67.4316V42.56H72.4716C73.4849 42.56 74.4271 42.4978 75.2982 42.3733C76.1871 42.2311 76.8982 42.0356 77.4316 41.7867V44.4533C76.8982 44.7022 76.1871 44.8978 75.2982 45.04C74.4271 45.1644 73.4582 45.2267 72.3916 45.2267H64.0716V38.5333H72.4716V36.9867ZM81.9916 46.16V54.4H64.8449V46.16H68.1782V47.5733H78.6316V46.16H81.9916ZM78.6316 50.24H68.1782V51.68H78.6316V50.24Z" fill="var(--fill-0, #1E1307)"/>
<path id="Vector_5" d="M46.7944 37.84V43.7867H60.9277V47.04H43.3544V34.56H60.7144V37.84H46.7944ZM42.2344 53.68V50.3733H61.861V53.68H42.2344Z" fill="var(--fill-0, #1E1307)"/>
<path id="Vector_6" d="M31.0905 36.72V39.8933H20.6639V36.72H24.2105V33.92H27.5705V36.72H31.0905ZM40.2905 54.48H37.1972V45.0933H35.1705V54.1333H32.1039V34.08H35.1705V41.7333H37.1972V34H40.2905V54.48ZM25.9705 40.96C27.3572 40.96 28.4861 41.5111 29.3572 42.6133C30.2283 43.6978 30.6639 45.2622 30.6639 47.3067C30.6639 49.3511 30.2283 50.9244 29.3572 52.0267C28.4861 53.1289 27.3572 53.68 25.9705 53.68C24.5661 53.68 23.4372 53.1378 22.5839 52.0533C21.7305 50.9511 21.3039 49.3689 21.3039 47.3067C21.3039 45.2622 21.7305 43.6978 22.5839 42.6133C23.4372 41.5111 24.5661 40.96 25.9705 40.96ZM25.9705 50.64C26.4505 50.64 26.8505 50.3467 27.1705 49.76C27.4905 49.1556 27.6505 48.3378 27.6505 47.3067C27.6505 46.2756 27.4905 45.4667 27.1705 44.88C26.8505 44.2933 26.4505 44 25.9705 44C25.4727 44 25.0727 44.2933 24.7705 44.88C24.4683 45.4489 24.3172 46.2578 24.3172 47.3067C24.3172 48.3556 24.4683 49.1733 24.7705 49.76C25.0727 50.3467 25.4727 50.64 25.9705 50.64Z" fill="var(--fill-0, #1E1307)"/>
<path id="Vector_7" d="M15.4133 34H18.7733V49.8933H15.4133V48.7733H10.1333V45.9733H15.4133V34ZM1.30667 37.12V34.2133H12.4267V40.6933H9.06667V37.12H1.30667ZM0 44.6133V41.7067H8.69333C11.2 41.7067 13.0133 41.4667 14.1333 40.9867V43.84C13.5467 44.1067 12.7467 44.3022 11.7333 44.4267C10.7378 44.5511 9.64444 44.6133 8.45333 44.6133H8.18667V48.5067H4.82667V44.6133H0ZM18.9067 54.4H1.41333V47.36H4.8V51.3867H18.9067V54.4Z" fill="var(--fill-0, #1E1307)"/>
<path id="Vector_8" d="M125.157 20.48H122.837V0H125.157V20.48ZM120.251 0.106666V20.1333H117.957V10.56H114.597C114.1 13.2622 113.157 15.3867 111.771 16.9333C110.384 18.4622 108.731 19.2267 106.811 19.2267V16.8533C107.984 16.8178 109.006 16.3733 109.877 15.52C110.766 14.6489 111.442 13.4311 111.904 11.8667C112.384 10.3022 112.624 8.48 112.624 6.4V3.01333H106.811V0.719999H114.944V6.26667C114.944 6.92445 114.917 7.56444 114.864 8.18667H117.957V0.106666H120.251Z" fill="var(--fill-0, #1E1307)"/>
<path id="Vector_9" d="M104.04 20.48H101.747V0H104.04V20.48ZM99.2935 0.106666V20.1333H97.0268V10.88H94.5735C94.5024 13.8489 94.0846 16.0356 93.3202 17.44C92.5557 18.8444 91.4535 19.5467 90.0135 19.5467C88.5202 19.5467 87.3913 18.7733 86.6268 17.2267C85.8624 15.68 85.4802 13.2711 85.4802 10C85.4802 6.72889 85.8624 4.32 86.6268 2.77333C87.3913 1.22667 88.5202 0.453333 90.0135 0.453333C91.4002 0.453333 92.4668 1.10222 93.2135 2.4C93.9779 3.69778 94.4224 5.71556 94.5468 8.45333H97.0268V0.106666H99.2935ZM90.0135 17.2533C90.7957 17.2533 91.3735 16.6667 91.7468 15.4933C92.1202 14.3022 92.3068 12.4711 92.3068 10C92.3068 7.52889 92.1202 5.70667 91.7468 4.53333C91.3735 3.34222 90.7957 2.74667 90.0135 2.74667C89.249 2.74667 88.6802 3.34222 88.3068 4.53333C87.9335 5.70667 87.7468 7.52889 87.7468 10C87.7468 12.4711 87.9335 14.3022 88.3068 15.4933C88.6802 16.6667 89.249 17.2533 90.0135 17.2533Z" fill="var(--fill-0, #1E1307)"/>
<path id="Vector_10" d="M67.9096 2.13333V4.88H82.443V6.8H65.5096V0.213334H82.2296V2.13333H67.9096ZM64.123 10.4267V8.50667H83.5896V10.4267H64.123ZM67.803 16.9067V18.5067H82.603V20.24H65.4563V15.3867H79.9363V13.8133H65.403V12.1067H82.283V16.9067H67.803Z" fill="var(--fill-0, #1E1307)"/>
<path id="Vector_11" d="M44.3924 8.85333V0.106666H46.7658V2.48H58.7391V0.106666H61.1124V8.85333H44.3924ZM58.7391 4.4H46.7658V6.88H58.7391V4.4ZM62.4724 12.9333H53.9391V16.0533H51.5391V12.9333H43.0058V10.8H62.4724V12.9333ZM61.4858 18.1067V20.24H44.3391V14.72H46.7924V18.1067H61.4858Z" fill="var(--fill-0, #1E1307)"/>
<path id="Vector_12" d="M34.6086 6.64V4.29333H37.8619V0H40.2886V15.28H37.8619V6.64H34.6086ZM30.9819 2.50667H22.6353V0.48H33.3553V7.44H25.0619V10.4267H29.6753C30.9553 10.4267 32.1197 10.3556 33.1686 10.2133C34.2175 10.0533 35.0441 9.83111 35.6486 9.54667V11.5733C35.0619 11.8578 34.2264 12.08 33.1419 12.24C32.0575 12.4 30.8486 12.48 29.5153 12.48H22.6886V5.49333H30.9819V2.50667ZM40.6886 20.24H23.6219V14.2933H26.1019V17.9733H40.6886V20.24Z" fill="var(--fill-0, #1E1307)"/>
<path id="Vector_13" d="M16.6114 20.48V0H19.0381V20.48H16.6114ZM7.51807 0.453333C9.33141 0.453333 10.7625 1.25333 11.8114 2.85333C12.8781 4.45333 13.4114 6.83556 13.4114 10C13.4114 13.1644 12.8781 15.5467 11.8114 17.1467C10.7625 18.7467 9.33141 19.5467 7.51807 19.5467C5.70474 19.5467 4.26474 18.7467 3.19807 17.1467C2.13141 15.5467 1.59807 13.1644 1.59807 10C1.59807 6.83556 2.13141 4.45333 3.19807 2.85333C4.26474 1.25333 5.70474 0.453333 7.51807 0.453333ZM7.51807 2.77333C6.43363 2.77333 5.57141 3.36889 4.93141 4.56C4.29141 5.73333 3.97141 7.54667 3.97141 10C3.97141 12.4533 4.29141 14.2756 4.93141 15.4667C5.57141 16.64 6.43363 17.2267 7.51807 17.2267C8.56696 17.2267 9.41141 16.6311 10.0514 15.44C10.6914 14.2489 11.0114 12.4356 11.0114 10C11.0114 7.56444 10.6914 5.75111 10.0514 4.56C9.41141 3.36889 8.56696 2.77333 7.51807 2.77333Z" fill="var(--fill-0, #1E1307)"/>
</g>
</svg>
