<svg preserveAspectRatio="none" width="100%" height="100%" overflow="visible" style="display: block;" viewBox="0 0 150 152" fill="none" xmlns="http://www.w3.org/2000/svg">
<g id="img_step02">
<circle id="Ellipse 50" cx="75" cy="75" r="75" fill="var(--fill-0, #FFF2E1)"/>
<g id="Group 429">
<path id="Union" d="M76.2344 40.4404C94.2217 40.4406 109.435 52.3121 114.47 68.6474C121.546 69.6105 127 75.6775 127 83.0185C127 91.029 120.506 97.5224 112.495 97.5224C112.469 97.5224 112.444 97.5206 112.418 97.5204C106.011 111.072 92.2192 120.449 76.2344 120.449C60.2453 120.449 46.4485 111.068 40.0439 97.5107C39.865 97.5172 39.6854 97.5224 39.5049 97.5224C31.4943 97.5224 25.0002 91.029 25 83.0185C25 75.5105 30.7044 69.3343 38.0156 68.5888C43.0682 52.2835 58.2683 40.4404 76.2344 40.4404Z" fill="var(--fill-0, #FFDCC3)"/>
<path id="Union_2" d="M76.234 25C102.115 25.0001 120.654 42.6597 121.141 71.5547C117.389 71.4767 108.02 70.2449 100.564 65.9404C96.3481 63.5063 93.8619 59.9101 92.4811 56.624C88.9404 61.5253 82.7775 64.7704 75.7663 64.7705C68.6055 64.7705 62.329 61.3859 58.8278 56.3086C57.9642 58.0806 54.664 62.3194 47.4587 66.6426C39.9729 71.134 33.2838 71.3213 30.8747 70.8535C31.6666 42.3743 50.5632 25 76.234 25Z" fill="var(--fill-0, #644242)"/>
<circle id="Ellipse 45" cx="60" cy="83" r="5" fill="var(--fill-0, #3C3C3C)"/>
<circle id="Ellipse 46" cx="92" cy="83" r="5" fill="var(--fill-0, #3C3C3C)"/>
<path id="Subtract" d="M80.9637 88C82.0682 88 82.9924 88.9136 82.6823 89.9737C81.8298 92.8889 79.1367 95.0184 75.9461 95.0186C72.7552 95.0186 70.0616 92.889 69.2089 89.9737C68.8988 88.9136 69.823 88 70.9275 88H80.9637Z" fill="var(--fill-0, #FF8E4C)"/>
</g>
<g id="Group 430">
<circle id="Ellipse 48" cx="117" cy="132" r="20" fill="var(--fill-0, #6EC62A)"/>
<path id="Vector" d="M111 133.614L116.248 139L126 129" stroke="var(--stroke-0, white)" stroke-width="5" stroke-linecap="round" stroke-linejoin="round"/>
</g>
</g>
</svg>
