<svg preserveAspectRatio="none" width="100%" height="100%" overflow="visible" style="display: block;" viewBox="0 0 75 76" fill="none" xmlns="http://www.w3.org/2000/svg">
<g id="img_step02">
<circle id="Ellipse 50" cx="37.5" cy="37.5" r="37.5" fill="var(--fill-0, #FFF2E1)"/>
<g id="Group 429">
<path id="Union" d="M38.1172 20.2202C47.1111 20.2203 54.7174 26.1567 57.2344 34.3247C60.7729 34.8061 63.5 37.8387 63.5 41.5093C63.4999 45.5144 60.2532 48.7611 56.248 48.7612C56.2351 48.7612 56.2219 48.7603 56.209 48.7603C53.0057 55.5363 46.1096 60.225 38.1172 60.2251C30.1222 60.2251 23.2235 55.5338 20.0215 48.7544C19.9321 48.7577 19.8421 48.7612 19.752 48.7612C15.7468 48.761 12.5001 45.5144 12.5 41.5093C12.5 37.7556 15.3517 34.6676 19.0068 34.2944C21.5331 26.1417 29.1341 20.2202 38.1172 20.2202Z" fill="var(--fill-0, #FFDCC3)"/>
<path id="Union_2" d="M38.117 12.5C51.0574 12.5 60.3277 21.3298 60.5711 35.7773C58.6948 35.7384 54.0099 35.122 50.282 32.9697C48.1728 31.7519 46.9302 29.9524 46.2401 28.3086C44.4699 30.7604 41.3893 32.3857 37.8826 32.3857C34.3021 32.3856 31.1643 30.6922 29.4139 28.1533C28.9826 29.0388 27.333 31.1591 23.7293 33.3213C19.9864 35.567 16.6418 35.6607 15.4373 35.4268C15.8333 21.1872 25.2816 12.5 38.117 12.5Z" fill="var(--fill-0, #644242)"/>
<circle id="Ellipse 45" cx="30" cy="41.5" r="2.5" fill="var(--fill-0, #3C3C3C)"/>
<circle id="Ellipse 46" cx="46" cy="41.5" r="2.5" fill="var(--fill-0, #3C3C3C)"/>
<path id="Subtract" d="M40.4823 44C41.0346 44 41.4967 44.4568 41.3416 44.9869C40.9151 46.4447 39.568 47.5098 37.9725 47.5098C36.3772 47.5096 35.0307 46.4446 34.6044 44.9869C34.4494 44.4568 34.9115 44 35.4637 44H40.4823Z" fill="var(--fill-0, #FF8E4C)"/>
</g>
<g id="Group 430">
<circle id="Ellipse 48" cx="57.5" cy="66" r="10" fill="var(--fill-0, #6EC62A)"/>
<path id="Vector" d="M54.5 66.8072L57.1242 69.5L62 64.5" stroke="var(--stroke-0, white)" stroke-width="2.5" stroke-linecap="round" stroke-linejoin="round"/>
</g>
</g>
</svg>
