<svg preserveAspectRatio="none" width="100%" height="100%" overflow="visible" style="display: block;" viewBox="0 0 317 261" fill="none" xmlns="http://www.w3.org/2000/svg">
<g id="Logo">
<g id="Vector" filter="url(#filter0_f_499_1954)">
<path d="M79.0724 24.7228L59.3713 16.1459C52.8305 13.2983 45.256 16.2704 42.4134 22.7998L19.3474 75.7823C16.9501 81.289 20.295 88.0323 26.8357 90.8798C33.3765 93.7274 40.5914 91.5813 42.9888 86.0746L47.2184 76.3591L55.0988 79.7899C70.3475 86.4284 88.0402 79.4861 94.6671 64.264C101.294 49.0419 94.321 31.3613 79.0724 24.7228ZM63.6608 60.1231L54.0467 55.9376C52.8252 55.4058 52.2682 53.9936 52.7991 52.7743L57.7479 41.4068C58.2788 40.1875 59.6919 39.633 60.9134 40.1648L70.5275 44.3503C74.8618 46.2372 76.8668 51.3211 74.9832 55.6478C73.0995 59.9745 68.0122 61.9707 63.6779 60.0837L63.6608 60.1231Z" fill="var(--fill-0, #923D9B)"/>
</g>
<path id="Vector_2" d="M239.701 1.91027L195.952 9.55137C189.9 10.6084 185.866 16.3309 186.919 22.3629C187.973 28.395 193.708 32.4109 199.76 31.3539L210.698 29.4437L217.044 65.7812C218.098 71.8133 223.834 75.8293 229.885 74.7722C235.937 73.7152 239.972 67.9927 238.919 61.9607L232.572 25.6231L243.509 23.7128C249.561 22.6558 253.596 16.9333 252.543 10.9013C251.489 4.86923 245.753 0.853246 239.701 1.91027Z" fill="var(--fill-0, #EB4C25)"/>
<g id="Vector_3" filter="url(#filter1_f_499_1954)">
<path d="M240.911 235.027C242.377 231.401 240.597 227.257 236.936 225.776L220.411 219.091C220.013 218.93 219.822 218.486 219.981 218.092L221.522 214.283C221.682 213.889 222.128 213.702 222.525 213.863L239.051 220.548C242.711 222.029 246.873 220.288 248.339 216.663C249.806 213.037 248.025 208.893 244.365 207.412L219.165 197.218C214.762 195.437 209.784 197.52 208.019 201.881L194.203 236.034C192.439 240.395 194.57 245.354 198.973 247.135L224.172 257.329C227.833 258.809 231.994 257.069 233.461 253.443C234.927 249.818 233.147 245.674 229.486 244.193L212.961 237.508C212.563 237.347 212.372 236.903 212.531 236.509L214.072 232.699C214.232 232.305 214.678 232.119 215.075 232.28L231.601 238.965C235.261 240.445 239.423 238.705 240.889 235.079L240.911 235.027Z" fill="var(--fill-0, #FF9501)"/>
</g>
<path id="Vector_4" d="M37.8819 172.982C16.9472 177.965 4.02582 198.913 8.99889 219.807C13.972 240.702 34.9449 253.582 55.8797 248.6C76.8144 243.617 89.7358 222.669 84.7627 201.775C79.7896 180.88 58.8166 167.999 37.8819 172.982ZM60.2327 209.001L58.3392 210.25C54.5919 212.74 52.0989 216.782 51.5593 221.242L51.2942 223.492C51.1398 224.79 49.4251 225.198 48.6624 224.118L47.4122 222.229C44.9213 218.49 40.8747 216.005 36.4076 215.47L34.154 215.208C32.8536 215.055 32.4462 213.343 33.5288 212.581L35.4224 211.331C39.1696 208.841 41.6627 204.8 42.2023 200.34L42.4674 198.09C42.6218 196.792 44.3365 196.383 45.0992 197.464L46.3494 199.353C48.8403 203.091 52.8869 205.577 57.354 206.111L59.6076 206.374C60.908 206.527 61.3153 208.238 60.2327 209.001Z" fill="var(--fill-0, #00AFF2)"/>
<g id="Vector_5">
</g>
<g id="N">
<path id="Vector (Stroke)" d="M302.484 112.844L312.409 149.882C313.809 155.11 310.046 161.129 304.022 162.743C302.001 163.285 300.583 163.232 299.342 162.915C298.008 162.574 296.765 161.906 295.021 160.952C294.448 160.638 290.207 158.048 286.004 155.47L273.125 147.549L276.253 159.225C277.767 164.876 274.457 170.32 268.542 171.905C262.664 173.479 256.961 170.144 255.523 164.779L245.771 128.386C244.267 122.77 247.868 117.211 253.483 115.706C257.329 114.675 261.499 116.129 264.766 117.918L280.168 127.172L284.884 130.082L281.754 118.399C280.249 112.783 283.85 107.223 289.466 105.719C295.344 104.144 301.046 107.479 302.484 112.844Z" fill="var(--fill-0, #6EC62A)"/>
<path id="Polygon 2" d="M298.262 90.4386C298.338 90.4545 298.364 90.5504 298.306 90.6023L283.032 104.26C282.979 104.307 282.895 104.282 282.877 104.214L278.094 86.3653C278.076 86.2969 278.136 86.2333 278.205 86.2478L298.262 90.4386Z" fill="var(--fill-0, #6EC62A)"/>
<rect id="Rectangle 48" x="279.282" y="90.8" width="3.09904" height="24.7923" transform="rotate(-15 279.282 90.8)" fill="var(--fill-0, #6EC62A)"/>
</g>
</g>
<defs>
<filter id="filter0_f_499_1954" x="14.0718" y="10.5652" width="87.6003" height="86.0733" filterUnits="userSpaceOnUse" color-interpolation-filters="sRGB">
<feFlood flood-opacity="0" result="BackgroundImageFix"/>
<feBlend mode="normal" in="SourceGraphic" in2="BackgroundImageFix" result="shape"/>
<feGaussianBlur stdDeviation="2.25" result="effect1_foregroundBlur_499_1954"/>
</filter>
<filter id="filter1_f_499_1954" x="192.646" y="195.644" width="57.1444" height="63.1502" filterUnits="userSpaceOnUse" color-interpolation-filters="sRGB">
<feFlood flood-opacity="0" result="BackgroundImageFix"/>
<feBlend mode="normal" in="SourceGraphic" in2="BackgroundImageFix" result="shape"/>
<feGaussianBlur stdDeviation="0.46875" result="effect1_foregroundBlur_499_1954"/>
</filter>
</defs>
</svg>
