<svg preserveAspectRatio="none" width="100%" height="100%" overflow="visible" style="display: block;" viewBox="0 0 19 12" fill="none" xmlns="http://www.w3.org/2000/svg">
<g id="03">
<path id="Vector" d="M15.4716 5.03333C16.6049 5.14444 17.466 5.5 18.0549 6.1C18.6549 6.68889 18.9549 7.44444 18.9549 8.36667C18.9549 9.03333 18.7827 9.63889 18.4383 10.1833C18.1049 10.7278 17.5994 11.1611 16.9216 11.4833C16.2438 11.8056 15.4105 11.9667 14.4216 11.9667C13.5771 11.9667 12.7716 11.8444 12.0049 11.6C11.2383 11.3556 10.6049 11.0222 10.1049 10.6L10.9049 9.08333C11.316 9.45 11.8271 9.74444 12.4383 9.96667C13.0494 10.1778 13.6938 10.2833 14.3716 10.2833C15.1827 10.2833 15.816 10.1167 16.2716 9.78333C16.7271 9.43889 16.9549 8.96667 16.9549 8.36667C16.9549 7.76667 16.7327 7.30555 16.2883 6.98333C15.8549 6.65 15.1938 6.48333 14.3049 6.48333H13.2549V5.15L16.0716 1.76667H10.6216V0.15H18.4549V1.45L15.4716 5.03333Z" fill="var(--fill-0, #E23D25)"/>
<path id="Vector_2" d="M4.83337 11.9667C3.90004 11.9667 3.06671 11.7278 2.33337 11.25C1.60004 10.7722 1.02782 10.0833 0.616708 9.18333C0.205597 8.28333 4.1008e-05 7.21667 4.1008e-05 5.98333C4.1008e-05 4.75 0.205597 3.68333 0.616708 2.78333C1.02782 1.88333 1.60004 1.19444 2.33337 0.716666C3.06671 0.238889 3.90004 0 4.83337 0C5.77782 0 6.61115 0.238889 7.33337 0.716666C8.06671 1.19444 8.63893 1.88333 9.05004 2.78333C9.46115 3.68333 9.66671 4.75 9.66671 5.98333C9.66671 7.21667 9.46115 8.28333 9.05004 9.18333C8.63893 10.0833 8.06671 10.7722 7.33337 11.25C6.61115 11.7278 5.77782 11.9667 4.83337 11.9667ZM4.83337 10.2833C5.70004 10.2833 6.38893 9.91667 6.90004 9.18333C7.41115 8.45 7.66671 7.38333 7.66671 5.98333C7.66671 4.58333 7.41115 3.51667 6.90004 2.78333C6.38893 2.05 5.70004 1.68333 4.83337 1.68333C3.96671 1.68333 3.27782 2.05 2.76671 2.78333C2.26671 3.51667 2.01671 4.58333 2.01671 5.98333C2.01671 7.38333 2.26671 8.45 2.76671 9.18333C3.27782 9.91667 3.96671 10.2833 4.83337 10.2833Z" fill="var(--fill-0, #E23D25)"/>
</g>
</svg>
