<svg preserveAspectRatio="none" width="100%" height="100%" overflow="visible" style="display: block;" viewBox="0 0 43 54" fill="none" xmlns="http://www.w3.org/2000/svg">
<g id="Group">
<g id="Group_2">
<path id="Vector" d="M43 19.9693V45.4645C43 50.1781 39.1975 54 34.5078 54H8.49223C3.80248 54 0 50.1781 0 45.4645V8.53556C0 3.82191 3.80248 0 8.49223 0H24.0983L42.9841 19.9693H43Z" fill="var(--fill-0, #F2F2F2)"/>
<path id="Vector_2" d="M43 20H27.9656C25.7837 20 24 18.2311 24 16.0319V0" fill="var(--fill-0, #D9D9D9)"/>
</g>
<g id="AI">
<path d="M22.715 41.4085C22.8777 42.2598 22.2919 42.9062 21.4458 43.0797C20.6484 43.2373 19.7535 43.0008 19.5094 42.1179L18.9887 39.8319H14.2372L13.7328 42.1022C13.5538 42.7959 12.9192 43.127 12.2683 43.127C12.1056 43.127 11.9591 43.1112 11.7964 43.0797C10.9503 42.9062 10.3645 42.2598 10.5272 41.4085L13.0006 30.4513C13.1633 29.7103 13.863 29.127 14.6766 29.127H18.3541C19.184 29.127 20.0138 29.4896 20.2416 30.4513L22.715 41.4085ZM18.289 36.7733L17.2476 32.2013H15.9783L14.9369 36.7733H18.289Z" fill="var(--fill-0, #968EFF)"/>
<path d="M25.2589 43.0639C24.429 43.0639 23.827 42.3387 23.827 41.5346C23.827 40.7463 24.429 40.0053 25.2589 40.0053H26.4305V32.1855H25.2589C24.429 32.1855 23.827 31.4603 23.827 30.6562C23.827 29.8679 24.429 29.127 25.2589 29.127H31.0518C31.8817 29.127 32.5 29.8679 32.5 30.6562C32.5 31.4603 31.8817 32.1855 31.0518 32.1855H29.8476V40.0053H31.0518C31.8817 40.0053 32.5 40.7463 32.5 41.5346C32.5 42.3387 31.8817 43.0639 31.0518 43.0639H25.2589Z" fill="var(--fill-0, #968EFF)"/>
</g>
</g>
</svg>
