<svg preserveAspectRatio="none" width="100%" height="100%" overflow="visible" style="display: block;" viewBox="0 0 735 143" fill="none" xmlns="http://www.w3.org/2000/svg">
<g id="&#236;&#149;&#132;&#236;&#157;&#180;&#237;&#143;&#172;&#237;&#133;&#144;&#236;&#157;&#180; &#236;&#154;&#176;&#235;&#166;&#172; &#236;&#149;&#132;&#236;&#157;&#180;&#235;&#165;&#188; &#236;&#156;&#132;&#237;&#149;&#156; &#236;&#181;&#156;&#236;&#160;&#129;&#236;&#157;&#152; &#236;&#160;&#132;&#235;&#172;&#184;&#234;&#176;&#128;&#235;&#165;&#188; &#236;&#176;&#190;&#236;&#149;&#132;&#235;&#147;&#156;&#235;&#166;&#189;&#235;&#139;&#136;&#235;&#139;&#164;">
<path id="Vector" d="M728.586 117.76V141.871H719.906V88.9644H728.586V108.942H734.855V117.76H728.586ZM703.924 130.918C706.312 130.918 708.7 130.688 711.088 130.229C713.476 129.77 715.428 129.173 716.944 128.438V136.704C715.52 137.485 713.522 138.105 710.95 138.564C708.424 138.978 705.875 139.184 703.304 139.184H683.808V90.4111H713.017V98.6778H692.626V130.918H703.924Z" fill="var(--fill-0, #1E1307)"/>
<path id="Vector_2" d="M666.731 141.871V88.9644H675.48V141.871H666.731ZM650.542 130.849C652.884 130.849 655.249 130.619 657.637 130.16C660.026 129.701 662 129.081 663.562 128.3V136.636C662.046 137.462 660.095 138.105 657.706 138.564C655.364 138.978 652.976 139.184 650.542 139.184H629.737V90.0667H638.762V130.849H650.542Z" fill="var(--fill-0, #1E1307)"/>
<path id="Vector_3" d="M620.927 118.449H612.178V88.9644H620.927V118.449ZM596.334 96.68H574.496V89.7911H604.945V107.151H583.314V111.078H596.334C598.951 111.078 601.385 110.917 603.636 110.596C605.932 110.228 607.769 109.723 609.147 109.08V115.969C607.769 116.612 605.932 117.117 603.636 117.484C601.385 117.806 598.883 117.967 596.127 117.967H574.634V100.676H596.334V96.68ZM620.927 120.378V141.664H576.631V120.378H585.242V124.029H612.247V120.378H620.927ZM612.247 130.918H585.242V134.638H612.247V130.918Z" fill="var(--fill-0, #1E1307)"/>
<path id="Vector_4" d="M530.001 98.8844V114.247H566.512V122.651H521.114V90.4111H565.961V98.8844H530.001ZM518.221 139.804V131.262H568.923V139.804H518.221Z" fill="var(--fill-0, #1E1307)"/>
<path id="Vector_5" d="M510.375 117.76V141.871H501.695V88.9644H510.375V108.942H516.644V117.76H510.375ZM480.27 89.7911C485.047 89.7911 488.79 91.8807 491.499 96.06C494.255 100.193 495.633 106.439 495.633 114.798C495.633 123.156 494.255 129.425 491.499 133.604C488.79 137.738 485.047 139.804 480.27 139.804C475.494 139.804 471.728 137.738 468.973 133.604C466.217 129.425 464.839 123.156 464.839 114.798C464.839 106.439 466.217 100.193 468.973 96.06C471.728 91.8807 475.494 89.7911 480.27 89.7911ZM480.27 131.469C482.337 131.469 483.967 130.16 485.161 127.542C486.356 124.924 486.953 120.676 486.953 114.798C486.953 108.965 486.356 104.74 485.161 102.122C483.967 99.4585 482.337 98.1267 480.27 98.1267C478.158 98.1267 476.481 99.4585 475.241 102.122C474.047 104.74 473.45 108.965 473.45 114.798C473.45 125.912 475.724 131.469 480.27 131.469Z" fill="var(--fill-0, #1E1307)"/>
<path id="Vector_6" d="M425.924 110.527C423.995 113.007 421.63 115.004 418.829 116.52C416.073 118.036 413.042 118.885 409.735 119.069V111.284C412.812 110.963 415.384 109.815 417.451 107.84C419.564 105.865 420.987 103.454 421.722 100.607H410.287V93.0978H422.067V88H430.884V93.0978H442.595V100.607H430.747C430.609 101.341 430.31 102.444 429.851 103.913L443.767 111.698L439.909 118.587L425.924 110.527ZM462.091 108.047H455.822V119.482H447.142V88.9644H455.822V99.16H462.091V108.047ZM439.495 128.713C439.312 129.31 439.036 129.93 438.669 130.573L457.475 135.051L455.615 142.353L433.364 136.291C430.701 138.128 427.463 139.483 423.651 140.356C419.885 141.228 415.867 141.664 411.595 141.664V134.224C415.591 134.224 419.196 133.742 422.411 132.778C425.672 131.813 428.037 130.459 429.507 128.713H412.078V121.687H456.029V128.713H439.495Z" fill="var(--fill-0, #1E1307)"/>
<path id="Vector_7" d="M352.72 101.984V104.533H388.955V109.976H344.246V97.0933H380V94.6133H344.109V89.1711H388.404V101.984H352.72ZM340.94 118.518V112.387H391.642V118.518H340.94ZM352.513 133.742V136.222H389.162V141.664H344.109V128.851H380.137V126.371H343.971V120.998H388.542V133.742H352.513Z" fill="var(--fill-0, #1E1307)"/>
<path id="Vector_8" d="M333.094 117.76V141.871H324.414V88.9644H333.094V108.942H339.362V117.76H333.094ZM316.078 90.4111V104.258C316.078 111.33 314.93 117.484 312.634 122.72C310.383 127.956 307.122 131.997 302.851 134.844C298.626 137.692 293.643 139.116 287.902 139.116V130.436C294.102 130.436 298.856 128.139 302.162 123.547C305.515 118.908 307.191 112.501 307.191 104.327V98.7467H287.902V90.4111H316.078Z" fill="var(--fill-0, #1E1307)"/>
<path id="Vector_9" d="M235.072 111.216V89.1711H279.299V111.216H235.072ZM243.683 96.4044V103.913H270.619V96.4044H243.683ZM282.536 122.582H261.525V130.298H252.776V122.582H231.834V115.004H282.536V122.582ZM280.125 134.018V141.664H234.934V126.096H243.821V134.018H280.125Z" fill="var(--fill-0, #1E1307)"/>
<path id="Vector_10" d="M217.03 88.9644H225.71V128.231H217.03V108.598H209.384V100.607H217.03V88.9644ZM195.193 110.871C193.218 113.902 190.761 116.336 187.821 118.173C184.928 120.01 181.736 121.021 178.246 121.204V112.938C181.736 112.57 184.584 110.963 186.788 108.116C189.038 105.222 190.37 101.709 190.784 97.5756H178.866V89.7911H210.968V97.5756H199.533C199.487 99.5504 199.165 101.525 198.568 103.5L212.897 114.247L208.006 120.791L195.193 110.871ZM226.537 141.664H181.346V123.616H190.233V133.467H226.537V141.664Z" fill="var(--fill-0, #1E1307)"/>
<path id="Vector_11" d="M148.717 141.871V88.9644H157.328V141.871H148.717ZM126.535 89.5156C129.566 89.5156 132.275 90.2274 134.663 91.6511C137.097 93.0748 138.98 95.0726 140.312 97.6444C141.69 100.216 142.379 103.179 142.379 106.531C142.379 109.884 141.69 112.869 140.312 115.487C138.98 118.059 137.097 120.056 134.663 121.48C132.275 122.904 129.566 123.616 126.535 123.616C123.457 123.616 120.702 122.904 118.268 121.48C115.834 120.056 113.928 118.059 112.55 115.487C111.218 112.869 110.552 109.884 110.552 106.531C110.552 103.179 111.218 100.216 112.55 97.6444C113.928 95.0726 115.834 93.0748 118.268 91.6511C120.702 90.2274 123.457 89.5156 126.535 89.5156ZM126.535 97.7133C124.238 97.7133 122.401 98.563 121.023 100.262C119.692 101.916 119.026 104.005 119.026 106.531C119.026 109.149 119.692 111.284 121.023 112.938C122.401 114.545 124.238 115.349 126.535 115.349C128.785 115.349 130.599 114.522 131.977 112.869C133.355 111.216 134.043 109.103 134.043 106.531C134.043 104.005 133.355 101.916 131.977 100.262C130.599 98.563 128.785 97.7133 126.535 97.7133ZM145.41 136.911C143.849 137.646 141.782 138.22 139.21 138.633C136.638 139.001 133.883 139.184 130.943 139.184H109.106V130.642H131.288C134.089 130.642 136.73 130.459 139.21 130.091C141.736 129.724 143.803 129.173 145.41 128.438V136.911Z" fill="var(--fill-0, #1E1307)"/>
<path id="Vector_12" d="M102.913 121.067H94.2329V108.184H86.6551V100.262H94.2329V88.9644H102.913V121.067ZM72.3262 110.32C70.3514 113.167 67.9174 115.464 65.024 117.209C62.1766 118.954 59.0077 119.919 55.5174 120.102V111.836C59.0077 111.468 61.8551 109.953 64.0596 107.289C66.3099 104.625 67.6418 101.387 68.0551 97.5756H56.1374V89.7911H88.2396V97.5756H76.804C76.7581 98.9993 76.4366 100.859 75.8396 103.156L90.0996 113.007L85.484 119.689L72.3262 110.32ZM102.913 123.271V142.284H94.0262V131.124H58.3418V123.271H102.913Z" fill="var(--fill-0, #1E1307)"/>
<path id="Vector_13" d="M17.8424 113.627C15.9135 116.336 13.5024 118.518 10.6091 120.171C7.71573 121.779 4.50092 122.674 0.964622 122.858V114.66C4.13351 114.339 6.77425 113.053 8.88684 110.802C10.9994 108.552 12.3543 105.727 12.9513 102.329H1.99796V94.0622H13.158V88.2756H21.9757V94.0622H33.1357V102.329H21.9068C21.7691 103.982 21.5165 105.36 21.1491 106.462L35.4091 116.107L30.6557 122.789L17.8424 113.627ZM48.2224 141.871H39.5424V88.9644H48.2224V141.871ZM22.1824 130.78C25.0298 130.78 27.6935 130.619 30.1735 130.298C32.6994 129.93 34.7431 129.379 36.3046 128.644V137.049C33.1817 138.473 28.4513 139.184 22.1135 139.184H0.000178099V130.78H12.9513V121.893H21.5624V130.78H22.1824Z" fill="var(--fill-0, #1E1307)"/>
<path id="Vector_14" d="M661.07 12.1933V4.96H673.745V0H682.632V4.96H695.376V12.1933H661.07ZM714.39 22.8022H708.121V40.5067H699.441V0.964445H708.121V13.9156H714.39V22.8022ZM678.223 35.8911C673.814 35.8911 670.163 34.9267 667.27 32.9978C664.376 31.0689 662.93 28.4052 662.93 25.0067C662.93 21.6081 664.376 18.9444 667.27 17.0156C670.163 15.0867 673.814 14.1222 678.223 14.1222C682.586 14.1222 686.214 15.0867 689.108 17.0156C692.047 18.9444 693.516 21.6081 693.516 25.0067C693.516 28.4052 692.047 31.0689 689.108 32.9978C686.214 34.9267 682.586 35.8911 678.223 35.8911ZM678.223 20.8044C676.111 20.8044 674.411 21.2178 673.125 22.0444C671.885 22.8252 671.265 23.8126 671.265 25.0067C671.265 26.2467 671.885 27.257 673.125 28.0378C674.411 28.8185 676.111 29.2089 678.223 29.2089C680.29 29.2089 681.966 28.8185 683.252 28.0378C684.538 27.257 685.181 26.2467 685.181 25.0067C685.181 23.8126 684.538 22.8252 683.252 22.0444C681.966 21.2178 680.29 20.8044 678.223 20.8044ZM709.085 45.6733V53.6645H664.376V37.9578H673.263V45.6733H709.085Z" fill="var(--fill-0, #1E1307)"/>
<path id="Vector_15" d="M655.084 53.8711H646.473V0.964445H655.084V53.8711ZM624.29 29.3467C621.305 29.3467 618.641 28.7726 616.299 27.6244C614.003 26.4304 612.212 24.777 610.926 22.6644C609.64 20.5059 608.997 18.0719 608.997 15.3622C608.997 12.6985 609.64 10.3104 610.926 8.19778C612.212 6.08519 614.003 4.43185 616.299 3.23778C618.641 2.0437 621.305 1.44666 624.29 1.44666C627.23 1.44666 629.847 2.0437 632.144 3.23778C634.44 4.43185 636.231 6.08519 637.517 8.19778C638.803 10.3104 639.446 12.6985 639.446 15.3622C639.446 18.0719 638.803 20.5059 637.517 22.6644C636.231 24.777 634.44 26.4304 632.144 27.6244C629.847 28.7726 627.23 29.3467 624.29 29.3467ZM624.29 8.88667C622.224 8.88667 620.547 9.50667 619.262 10.7467C617.976 11.9867 617.333 13.5252 617.333 15.3622C617.333 17.2452 617.976 18.8296 619.262 20.1156C620.547 21.3556 622.224 21.9756 624.29 21.9756C626.311 21.9756 627.964 21.3556 629.25 20.1156C630.536 18.8296 631.179 17.2452 631.179 15.3622C631.179 13.5252 630.536 11.9867 629.25 10.7467C627.964 9.50667 626.311 8.88667 624.29 8.88667ZM629.044 32.86C635.565 32.86 640.273 32.1941 643.166 30.8622V39.1978C640.089 40.4837 635.359 41.1267 628.975 41.1267H628.493V53.8711H619.813V41.1267H606.862V32.86H629.044Z" fill="var(--fill-0, #1E1307)"/>
<path id="Vector_16" d="M550.466 13.9844V16.5333H586.701V21.9756H541.992V9.09333H577.746V6.61333H541.855V1.17111H586.15V13.9844H550.466ZM538.686 30.5178V24.3867H589.388V30.5178H538.686ZM550.259 45.7422V48.2222H586.908V53.6645H541.855V40.8511H577.883V38.3711H541.717V32.9978H586.288V45.7422H550.259Z" fill="var(--fill-0, #1E1307)"/>
<path id="Vector_17" d="M523.537 53.8711V0.964445H532.286V53.8711H523.537ZM501.493 1.79111C506.315 1.79111 510.104 3.88074 512.86 8.06C515.661 12.1933 517.062 18.4393 517.062 26.7978C517.062 35.1563 515.661 41.4252 512.86 45.6044C510.104 49.7378 506.315 51.8044 501.493 51.8044C496.625 51.8044 492.79 49.7378 489.989 45.6044C487.233 41.4252 485.855 35.1563 485.855 26.7978C485.855 18.4393 487.233 12.1933 489.989 8.06C492.79 3.88074 496.625 1.79111 501.493 1.79111ZM501.493 10.1267C499.334 10.1267 497.612 11.4585 496.326 14.1222C495.086 16.74 494.466 20.9652 494.466 26.7978C494.466 32.6763 495.086 36.9244 496.326 39.5422C497.612 42.16 499.334 43.4689 501.493 43.4689C503.606 43.4689 505.305 42.16 506.591 39.5422C507.877 36.8785 508.52 32.6304 508.52 26.7978C508.52 21.0111 507.877 16.7859 506.591 14.1222C505.305 11.4585 503.606 10.1267 501.493 10.1267Z" fill="var(--fill-0, #1E1307)"/>
<path id="Vector_18" d="M476.287 29.76V53.8711H467.607V0.964445H476.287V20.9422H482.556V29.76H476.287ZM446.182 1.79111C450.959 1.79111 454.702 3.88074 457.411 8.06C460.167 12.1933 461.545 18.4393 461.545 26.7978C461.545 35.1563 460.167 41.4252 457.411 45.6044C454.702 49.7378 450.959 51.8044 446.182 51.8044C441.406 51.8044 437.64 49.7378 434.885 45.6044C432.129 41.4252 430.751 35.1563 430.751 26.7978C430.751 18.4393 432.129 12.1933 434.885 8.06C437.64 3.88074 441.406 1.79111 446.182 1.79111ZM446.182 43.4689C448.249 43.4689 449.88 42.16 451.074 39.5422C452.268 36.9244 452.865 32.6763 452.865 26.7978C452.865 20.9652 452.268 16.74 451.074 14.1222C449.88 11.4585 448.249 10.1267 446.182 10.1267C444.07 10.1267 442.394 11.4585 441.154 14.1222C439.96 16.74 439.362 20.9652 439.362 26.7978C439.362 37.9119 441.636 43.4689 446.182 43.4689Z" fill="var(--fill-0, #1E1307)"/>
<path id="Vector_19" d="M400.809 53.8711V0.964445H409.558V53.8711H400.809ZM372.496 30.6556V42.9867H384.62C386.962 42.9867 389.304 42.757 391.647 42.2978C394.035 41.7926 396.033 41.1726 397.64 40.4378V48.6356C396.124 49.4163 394.15 50.0363 391.716 50.4956C389.282 50.9548 386.802 51.1844 384.276 51.1844H363.816V22.5267H384.138V10.6778H363.747V2.41111H392.749V30.6556H372.496Z" fill="var(--fill-0, #1E1307)"/>
<path id="Vector_20" d="M332.203 30.1733C327.61 30.1733 323.592 29.5763 320.147 28.3822C316.703 27.1881 314.016 25.4889 312.087 23.2844C310.204 21.08 309.263 18.5081 309.263 15.5689C309.263 12.6296 310.204 10.0578 312.087 7.85333C314.016 5.64889 316.703 3.94963 320.147 2.75556C323.592 1.56148 327.61 0.964445 332.203 0.964445C336.795 0.964445 340.814 1.56148 344.258 2.75556C347.703 3.94963 350.367 5.64889 352.25 7.85333C354.178 10.0578 355.143 12.6296 355.143 15.5689C355.143 18.5081 354.178 21.08 352.25 23.2844C350.367 25.4889 347.703 27.1881 344.258 28.3822C340.814 29.5763 336.795 30.1733 332.203 30.1733ZM332.203 9.16222C328.115 9.16222 324.786 9.7363 322.214 10.8844C319.688 11.9867 318.425 13.5481 318.425 15.5689C318.425 17.5896 319.688 19.1741 322.214 20.3222C324.786 21.4244 328.115 21.9756 332.203 21.9756C336.244 21.9756 339.528 21.4244 342.054 20.3222C344.626 19.1741 345.912 17.5896 345.912 15.5689C345.912 13.5481 344.649 11.9867 342.123 10.8844C339.597 9.7363 336.29 9.16222 332.203 9.16222ZM336.681 42.3667V55.1111H327.725V42.3667H306.852V33.8933H357.554V42.3667H336.681Z" fill="var(--fill-0, #1E1307)"/>
<path id="Vector_21" d="M278.08 53.8711V0.964445H286.829V53.8711H278.08ZM256.036 1.79111C260.858 1.79111 264.647 3.88074 267.403 8.06C270.204 12.1933 271.605 18.4393 271.605 26.7978C271.605 35.1563 270.204 41.4252 267.403 45.6044C264.647 49.7378 260.858 51.8044 256.036 51.8044C251.168 51.8044 247.333 49.7378 244.532 45.6044C241.776 41.4252 240.398 35.1563 240.398 26.7978C240.398 18.4393 241.776 12.1933 244.532 8.06C247.333 3.88074 251.168 1.79111 256.036 1.79111ZM256.036 10.1267C253.877 10.1267 252.155 11.4585 250.869 14.1222C249.629 16.74 249.009 20.9652 249.009 26.7978C249.009 32.6763 249.629 36.9244 250.869 39.5422C252.155 42.16 253.877 43.4689 256.036 43.4689C258.149 43.4689 259.848 42.16 261.134 39.5422C262.42 36.8785 263.063 32.6304 263.063 26.7978C263.063 21.0111 262.42 16.7859 261.134 14.1222C259.848 11.4585 258.149 10.1267 256.036 10.1267Z" fill="var(--fill-0, #1E1307)"/>
<path id="Vector_22" d="M225.525 40.9889V0.964445H233.654V40.9889H225.525ZM208.372 20.8733V12.5378H212.988V1.17111H221.117V40.0933H212.988V20.8733H208.372ZM209.957 32.7911C208.625 33.3881 206.788 33.8704 204.445 34.2378C202.149 34.5593 199.715 34.72 197.143 34.72H185.225V1.79111H207.27V9.23111H193.354V14.5356H205.961V21.6311H193.354V27.2111H197.763C200.197 27.2111 202.494 27.0733 204.652 26.7978C206.811 26.4763 208.579 26.017 209.957 25.42V32.7911ZM234.481 53.6644H188.05V37.7511H197.005V45.4667H234.481V53.6644Z" fill="var(--fill-0, #1E1307)"/>
<path id="Vector_23" d="M180.273 51.8044H129.57V43.3311H150.513V33.8933H131.982V25.5578H139.973V10.8844H132.464V2.48H177.379V10.8844H169.87V25.5578H177.862V33.8933H159.262V43.3311H180.273V51.8044ZM161.19 25.5578V10.8844H148.653V25.5578H161.19Z" fill="var(--fill-0, #1E1307)"/>
<path id="Vector_24" d="M114.422 53.8711V0.964445H123.171V53.8711H114.422ZM92.3778 1.79111C97.2 1.79111 100.989 3.88074 103.744 8.06C106.546 12.1933 107.947 18.4393 107.947 26.7978C107.947 35.1563 106.546 41.4252 103.744 45.6044C100.989 49.7378 97.2 51.8044 92.3778 51.8044C87.5096 51.8044 83.6748 49.7378 80.8733 45.6044C78.1178 41.4252 76.74 35.1563 76.74 26.7978C76.74 18.4393 78.1178 12.1933 80.8733 8.06C83.6748 3.88074 87.5096 1.79111 92.3778 1.79111ZM92.3778 10.1267C90.2192 10.1267 88.497 11.4585 87.2111 14.1222C85.9711 16.74 85.3511 20.9652 85.3511 26.7978C85.3511 32.6763 85.9711 36.9244 87.2111 39.5422C88.497 42.16 90.2192 43.4689 92.3778 43.4689C94.4903 43.4689 96.1896 42.16 97.4755 39.5422C98.7615 36.8785 99.4044 32.6304 99.4044 26.7978C99.4044 21.0111 98.7615 16.7859 97.4755 14.1222C96.1896 11.4585 94.4903 10.1267 92.3778 10.1267Z" fill="var(--fill-0, #1E1307)"/>
<path id="Vector_25" d="M67.1717 29.76V53.8711H58.4917V0.964445H67.1717V20.9422H73.4406V29.76H67.1717ZM37.0672 1.79111C41.8435 1.79111 45.5865 3.88074 48.2961 8.06C51.0517 12.1933 52.4295 18.4393 52.4295 26.7978C52.4295 35.1563 51.0517 41.4252 48.2961 45.6044C45.5865 49.7378 41.8435 51.8044 37.0672 51.8044C32.2909 51.8044 28.525 49.7378 25.7695 45.6044C23.0139 41.4252 21.6361 35.1563 21.6361 26.7978C21.6361 18.4393 23.0139 12.1933 25.7695 8.06C28.525 3.88074 32.2909 1.79111 37.0672 1.79111ZM37.0672 43.4689C39.1339 43.4689 40.7643 42.16 41.9584 39.5422C43.1524 36.9244 43.7495 32.6763 43.7495 26.7978C43.7495 20.9652 43.1524 16.74 41.9584 14.1222C40.7643 11.4585 39.1339 10.1267 37.0672 10.1267C34.9547 10.1267 33.2784 11.4585 32.0384 14.1222C30.8443 16.74 30.2472 20.9652 30.2472 26.7978C30.2472 37.9119 32.5206 43.4689 37.0672 43.4689Z" fill="var(--fill-0, #1E1307)"/>
</g>
</svg>
