<svg preserveAspectRatio="none" width="100%" height="100%" overflow="visible" style="display: block;" viewBox="0 0 13 13" fill="none" xmlns="http://www.w3.org/2000/svg">
<g id="Group">
<g id="Group_2">
<path id="Vector" d="M8.68844 2.40481L10.2571 0.83615C10.3914 0.701817 10.6081 0.701817 10.7424 0.83615L11.2798 1.85449L12.1984 2.28782C12.3328 2.42215 12.3328 2.63882 12.1984 2.77315L10.6298 4.34182C10.5474 4.42415 10.4348 4.45882 10.3221 4.43715L9.10876 4.19882C9.03076 4.18582 8.96579 4.14249 8.91812 4.09049C8.87912 4.04715 8.8531 3.99081 8.8401 3.93014L8.6018 2.71682C8.58013 2.60415 8.61479 2.48715 8.69712 2.40915L8.68844 2.40481Z" stroke="var(--stroke-0, #001B72)" stroke-linecap="round" stroke-linejoin="round"/>
<path id="Vector_2" d="M6.24463 6.67767L8.91398 4.08633" stroke="var(--stroke-0, #001B72)" stroke-linecap="round" stroke-linejoin="round"/>
<path id="Vector_3" d="M9.37297 6.62994C9.37297 8.30694 8.01663 9.66327 6.33963 9.66327C4.66263 9.66327 3.3063 8.30694 3.3063 6.62994C3.3063 4.95294 4.66263 3.59661 6.33963 3.59661" stroke="var(--stroke-0, #001B72)" stroke-linecap="round" stroke-linejoin="round"/>
<path id="Vector_4" d="M11.973 6.62994C11.973 9.74127 9.45097 12.2633 6.33963 12.2633C3.2283 12.2633 0.706299 9.74127 0.706299 6.62994C0.706299 3.51861 3.2283 0.996606 6.33963 0.996606" stroke="var(--stroke-0, #001B72)" stroke-linecap="round" stroke-linejoin="round"/>
</g>
<g id="Vector_5">
</g>
</g>
</svg>
