<svg preserveAspectRatio="none" width="100%" height="100%" overflow="visible" style="display: block;" viewBox="0 0 47 51" fill="none" xmlns="http://www.w3.org/2000/svg">
<g id="Group">
<path id="Vector" d="M25.5049 3.8005C24.3193 2.00175 21.6807 2.00175 20.4951 3.8005L11.5654 17.3491C10.2507 19.3437 11.6813 22 14.0703 22H31.9297C34.3187 22 35.7493 19.3437 34.4346 17.3491L25.5049 3.8005Z" fill="var(--fill-0, #F9B3B3)"/>
<path id="Vector_2" d="M17 30.5H3C1.34315 30.5 0 31.8431 0 33.5V47.5C0 49.1569 1.34315 50.5 3 50.5H17C18.6569 50.5 20 49.1569 20 47.5V33.5C20 31.8431 18.6569 30.5 17 30.5Z" fill="var(--fill-0, #5DA6EE)"/>
<path id="Vector_3" d="M36 50.5C41.799 50.5 46.5 45.799 46.5 40C46.5 34.201 41.799 29.5 36 29.5C30.201 29.5 25.5 34.201 25.5 40C25.5 45.799 30.201 50.5 36 50.5Z" fill="var(--fill-0, #FFD99D)"/>
</g>
</svg>
