<svg preserveAspectRatio="none" width="100%" height="100%" overflow="visible" style="display: block;" viewBox="0 0 49 57" fill="none" xmlns="http://www.w3.org/2000/svg">
<g id="Group">
<path id="Vector" fill-rule="evenodd" clip-rule="evenodd" d="M49.0005 32.3766C49.0005 45.9132 38.0368 56.8768 24.5002 56.8768C10.9636 56.8768 6.10352e-05 45.9132 6.10352e-05 32.3766C6.10352e-05 18.84 10.9636 7.87647 24.5002 7.87647C38.0368 7.87647 49.0005 18.84 49.0005 32.3766Z" fill="var(--fill-0, #FFEFDE)"/>
<path id="Vector_2" d="M25.5657 16.3329C25.5657 16.3329 17.7157 12.367 19.3054 4.45155C19.3054 4.45155 19.5943 3.28612 20.4046 2.42241C22.0457 0.673012 25.7228 2.06151 25.9262 4.45155" stroke="var(--stroke-0, #1E1307)" stroke-width="3.27762" stroke-linecap="round" stroke-linejoin="round"/>
<path id="Vector_3" d="M14.4869 38.6866C14.4869 38.6866 16.8632 43.9471 24.2707 43.9471C24.2707 43.9471 31.5961 44.9796 34.546 38.2441" stroke="var(--stroke-0, #1E1307)" stroke-width="3.27762" stroke-linecap="round" stroke-linejoin="round"/>
<path id="Vector_4" fill-rule="evenodd" clip-rule="evenodd" d="M17.5192 27.4444C17.5192 28.9685 16.29 30.1977 14.7659 30.1977C13.2418 30.1977 12.0127 28.9685 12.0127 27.4444C12.0127 25.9203 13.2418 24.6911 14.7659 24.6911C16.29 24.6911 17.5192 25.9203 17.5192 27.4444Z" fill="var(--fill-0, #1E1307)"/>
<path id="Vector_5" fill-rule="evenodd" clip-rule="evenodd" d="M36.8567 27.4444C36.8567 28.9685 35.6276 30.1977 34.1035 30.1977C32.5794 30.1977 31.3503 28.9685 31.3503 27.4444C31.3503 25.9203 32.5794 24.6911 34.1035 24.6911C35.6276 24.6911 36.8567 25.9203 36.8567 27.4444Z" fill="var(--fill-0, #1E1307)"/>
</g>
</svg>
