<svg preserveAspectRatio="none" width="100%" height="100%" overflow="visible" style="display: block;" viewBox="0 0 113 108" fill="none" xmlns="http://www.w3.org/2000/svg">
<path id="Star 3" d="M51.2139 2.20083C54.2364 -0.0666136 58.3926 -0.0666124 61.4151 2.20083L84.6983 19.6686L84.7041 19.6735L84.711 19.6774L108.519 36.4235C111.609 38.5975 112.894 42.5503 111.671 46.1256L102.253 73.6666L102.25 73.6745L102.248 73.6813L93.6797 101.499C92.5673 105.11 89.2041 107.553 85.4258 107.495L56.3223 107.048H56.3067L27.2032 107.495C23.4249 107.553 20.0617 105.11 18.9493 101.499L10.3809 73.6813L10.379 73.6745L10.376 73.6666L0.958056 46.1256C-0.264506 42.5503 1.0199 38.5975 4.1104 36.4235L27.918 19.6774L27.9249 19.6735L27.9307 19.6686L51.2139 2.20083Z" stroke="var(--stroke-0, #F6E5DE)" stroke-opacity="0.5"/>
</svg>
