<svg preserveAspectRatio="none" width="100%" height="100%" overflow="visible" style="display: block;" viewBox="0 0 130 125" fill="none" xmlns="http://www.w3.org/2000/svg">
<path id="Star 4" d="M59.7734 2.20082C62.796 -0.0666116 66.9521 -0.0666137 69.9746 2.20082L97.4902 22.8434L97.5019 22.8532L125.638 42.6422C128.728 44.8162 130.013 48.7691 128.79 52.3444L117.66 84.8922L117.657 84.8991L117.655 84.9069L107.529 117.78C106.417 121.391 103.054 123.834 99.2754 123.776L64.8818 123.249H64.8662L30.4726 123.776C26.6944 123.834 23.3312 121.391 22.2187 117.78L12.0928 84.9069L12.0908 84.8991L12.0879 84.8922L0.957996 52.3444C-0.264501 48.7691 1.01986 44.8162 4.11034 42.6422L32.2461 22.8532L32.2578 22.8434L59.7734 2.20082Z" stroke="var(--stroke-0, #F6E5DE)" stroke-opacity="0.5"/>
</svg>
