<svg preserveAspectRatio="none" width="100%" height="100%" overflow="visible" style="display: block;" viewBox="0 0 44 41" fill="none" xmlns="http://www.w3.org/2000/svg">
<g id="Group 429">
<path id="Union" d="M21.7607 6.55845C29.4009 6.55858 35.8622 11.6021 38 18.5409C41.0058 18.9498 43.3223 21.5254 43.3223 24.6434C43.3222 28.0457 40.5644 30.8035 37.1621 30.8036C37.1511 30.8036 37.1399 30.8026 37.1289 30.8026C34.4079 36.5585 28.55 40.5407 21.7607 40.5409C14.9693 40.5409 9.10868 36.5565 6.38867 30.7977C6.31314 30.8005 6.23734 30.8036 6.16113 30.8036C2.75877 30.8036 1.93278e-05 28.0458 0 24.6434C0 21.4548 2.42249 18.8316 5.52734 18.5145C7.67325 11.589 14.1299 6.55845 21.7607 6.55845Z" fill="var(--fill-0, #FFDCC3)"/>
<path id="Union_2" d="M21.7609 0C32.7533 0 40.6283 7.49998 40.8351 19.7725C39.2413 19.7393 35.2616 19.2169 32.0949 17.3887C30.3028 16.354 29.2475 14.8243 28.6613 13.4277C27.1577 15.5106 24.5415 16.8915 21.5627 16.8916C18.5212 16.8916 15.8554 15.4534 14.3683 13.2969C14.0018 14.0493 12.6 15.8501 9.53924 17.6865C6.35971 19.5942 3.51837 19.6733 2.4953 19.4746C2.83173 7.37883 10.8579 0.000119773 21.7609 0Z" fill="var(--fill-0, #644242)"/>
<circle id="Ellipse 45" cx="14.8656" cy="24.6344" r="2.12366" fill="var(--fill-0, #3C3C3C)"/>
<circle id="Ellipse 46" cx="28.457" cy="24.6344" r="2.12366" fill="var(--fill-0, #3C3C3C)"/>
<path id="Subtract" d="M23.6193 26.7581C24.1716 26.7581 24.6357 27.2182 24.454 27.7397C24.0483 28.9039 22.9412 29.7395 21.6389 29.7395C20.0439 29.7395 18.741 28.4865 18.6613 26.9114C18.6592 26.8273 18.7267 26.7581 18.8108 26.7581H23.6193Z" fill="var(--fill-0, #FF8E4C)"/>
</g>
</svg>
